<svg width="30" height="30" viewBox="0 0 30 30" fill="none" xmlns="http://www.w3.org/2000/svg">
<path d="M24 30H6C2.688 30 0 27.312 0 24V6C0 2.688 2.688 0 6 0H24C27.312 0 30 2.688 30 6V24C30 27.312 27.312 30 24 30Z" fill="white"/>
<path d="M15.7259 17.16C14.8619 17.154 14.0039 17.154 13.1399 17.154C12.9839 17.154 12.8219 17.154 12.6299 17.154C12.6839 17.052 12.7079 16.998 12.7379 16.944C13.8479 15.018 14.9639 13.092 16.0799 11.166C16.7039 10.08 17.3459 9.006 17.9399 7.908C18.3239 7.2 18.0359 6.318 17.3639 5.922C16.6559 5.508 15.7979 5.688 15.3179 6.36C15.2099 6.51 15.1199 6.666 14.9999 6.852C14.8799 6.66 14.7959 6.504 14.6939 6.366C14.3879 5.94 13.9679 5.7 13.4399 5.7C12.2339 5.7 11.5259 6.954 12.1199 8.034C12.4379 8.616 12.7919 9.186 13.1099 9.768C13.1579 9.858 13.1699 10.032 13.1159 10.116C11.8139 12.396 10.4939 14.664 9.1859 16.938C9.0959 17.088 8.9999 17.148 8.8259 17.148C7.9319 17.142 7.0379 17.142 6.1499 17.148C5.1899 17.154 4.5119 17.79 4.5059 18.684C4.4999 19.56 5.2019 20.22 6.1559 20.22C9.6359 20.22 13.1159 20.22 16.5959 20.22C16.9619 20.22 17.3219 20.22 17.7359 20.22C17.1479 19.2 16.5899 18.222 16.0139 17.256C15.9659 17.202 15.8219 17.16 15.7259 17.16Z" fill="#1C1D2B"/>
<path d="M25.362 18.096C25.104 17.49 24.618 17.178 23.964 17.166C23.04 17.148 22.116 17.154 21.192 17.166C20.988 17.166 20.886 17.094 20.79 16.926C19.872 15.324 18.948 13.728 18.024 12.132C17.85 11.832 17.676 11.538 17.49 11.214C17.418 11.334 17.358 11.424 17.31 11.508C16.83 12.342 16.35 13.182 15.858 14.01C15.744 14.202 15.732 14.34 15.852 14.538C17.118 16.716 18.378 18.906 19.638 21.09C20.1 21.888 20.562 22.686 21.024 23.484C21.366 24.072 21.882 24.366 22.56 24.288C23.7 24.156 24.258 22.98 23.688 21.942C23.382 21.39 23.058 20.844 22.71 20.244C23.154 20.244 23.532 20.244 23.91 20.244C24.372 20.244 24.78 20.082 25.086 19.734C25.518 19.242 25.614 18.684 25.362 18.096Z" fill="#1C1D2B"/>
<path d="M7.24193 21.45C6.66593 21.414 6.39593 21.642 6.19793 22.134C5.90993 22.854 6.14393 23.67 6.80393 24.072C7.47593 24.48 8.35793 24.342 8.80193 23.688C9.26993 22.998 9.67193 22.254 10.1399 21.474C9.12593 21.468 8.17793 21.516 7.24193 21.45Z" fill="#1C1D2B"/>
</svg>
