<svg width="31" height="30" viewBox="0 0 31 30" fill="none" xmlns="http://www.w3.org/2000/svg">
<path d="M24.0059 30H6.00586C2.69386 30 0.00585938 27.312 0.00585938 24V6C0.00585938 2.688 2.69386 0 6.00586 0H24.0059C27.3179 0 30.0059 2.688 30.0059 6V24C30.0059 27.312 27.3179 30 24.0059 30Z" fill="white"/>
<path d="M15.8342 23.124C14.7542 22.794 13.7102 22.476 12.6662 22.158C12.5342 22.116 12.5462 22.032 12.5462 21.936C12.5462 20.298 12.5462 18.654 12.5462 17.016C12.5462 13.716 12.5462 10.416 12.5462 7.11C12.5462 7.038 12.5462 6.96 12.5462 6.864C12.9002 6.948 13.2482 7.014 13.5782 7.116C14.9042 7.53 16.2362 7.944 17.5562 8.382C18.1922 8.592 18.7862 8.91 19.3262 9.312C20.3342 10.068 20.8382 11.1 20.9522 12.336C21.0122 13.032 21.0362 13.728 20.8682 14.418C20.6642 15.264 20.2202 15.924 19.3862 16.248C18.7502 16.494 18.1202 16.35 17.5082 16.122C17.4362 16.098 17.3702 16.056 17.2982 16.032C17.1782 15.996 17.1542 15.918 17.1542 15.804C17.1602 14.322 17.1602 12.84 17.1602 11.352C17.1602 11.136 17.1602 10.914 17.1422 10.698C17.1122 10.344 16.8842 10.056 16.5782 9.966C16.1702 9.84 15.8582 10.05 15.8462 10.476C15.8342 10.824 15.8402 11.172 15.8402 11.52C15.8402 15.3 15.8402 19.08 15.8402 22.86C15.8342 22.95 15.8342 23.022 15.8342 23.124Z" fill="#1C1D2B"/>
<path d="M16.6682 22.824C16.6682 22.176 16.6622 21.564 16.6742 20.952C16.6742 20.898 16.7702 20.814 16.8362 20.79C17.8562 20.418 18.8762 20.058 19.8962 19.686C20.4782 19.476 21.0602 19.248 21.6362 19.026C21.7502 18.984 21.8642 18.924 21.9602 18.852C22.1462 18.714 22.1462 18.528 21.9302 18.438C21.7082 18.342 21.4622 18.282 21.2222 18.258C20.6042 18.198 20.0222 18.384 19.4462 18.594C18.5342 18.918 17.6222 19.236 16.6922 19.566C16.6802 19.524 16.6623 19.488 16.6623 19.452C16.6623 18.9 16.6622 18.348 16.6562 17.79C16.6562 17.664 16.6982 17.616 16.8182 17.58C17.7482 17.286 18.6903 17.022 19.6623 16.92C20.6223 16.818 21.5702 16.89 22.5062 17.124C23.3342 17.328 24.1622 17.538 24.9002 17.988C24.9722 18.03 25.0383 18.078 25.0983 18.132C25.6203 18.558 25.6263 19.152 25.0983 19.578C24.9183 19.722 24.7202 19.86 24.5102 19.944C23.4842 20.358 22.4583 20.766 21.4203 21.144C19.8963 21.702 18.3602 22.236 16.8362 22.782C16.8062 22.782 16.7522 22.794 16.6682 22.824Z" fill="#1C1D2B"/>
<path d="M11.5081 19.374C11.5081 19.956 11.5081 20.502 11.5081 21.084C11.1961 21.12 10.8901 21.162 10.5781 21.18C8.9461 21.294 7.34408 21.126 5.79608 20.562C5.46608 20.442 5.1481 20.262 4.8781 20.046C4.3801 19.656 4.39208 19.206 4.86008 18.786C4.97408 18.684 5.0881 18.582 5.2201 18.522C5.7421 18.27 6.25811 18 6.79811 17.796C8.29811 17.244 9.80408 16.722 11.3101 16.182C11.3641 16.164 11.4241 16.146 11.5141 16.122C11.5141 16.392 11.5141 16.644 11.5141 16.89C11.5141 17.232 11.5081 17.574 11.5201 17.916C11.5261 18.054 11.4781 18.114 11.3461 18.162C10.3621 18.51 9.3781 18.864 8.4001 19.224C8.2681 19.272 8.13009 19.332 8.01609 19.41C7.75809 19.59 7.79408 19.866 8.08208 19.98C8.50808 20.148 8.95811 20.172 9.39011 20.058C10.0261 19.884 10.6501 19.656 11.2741 19.452C11.3461 19.434 11.4181 19.41 11.5081 19.374Z" fill="#1C1D2B"/>
</svg>
