<svg width="30" height="30" viewBox="0 0 30 30" fill="none" xmlns="http://www.w3.org/2000/svg">
<path d="M24 30H6C2.688 30 0 27.312 0 24V6C0 2.688 2.688 0 6 0H24C27.312 0 30 2.688 30 6V24C30 27.312 27.318 30 24 30Z" fill="white"/>
<path d="M5.052 4.71C8.502 8.154 11.934 11.586 15.354 15.006C11.946 18.408 8.514 21.834 5.058 25.284C4.722 24.912 4.506 24.444 4.506 23.904C4.5 21.78 4.5 19.656 4.5 17.532C4.5 13.764 4.5 10.002 4.5 6.234C4.506 5.646 4.686 5.136 5.052 4.71Z" fill="#1C1D2B"/>
<path d="M6.06006 25.944C9.45006 22.56 12.8281 19.188 16.1941 15.828C17.3701 17.01 18.5761 18.216 19.7941 19.44C19.2301 19.746 18.6481 20.058 18.0661 20.37C16.3441 21.294 14.6221 22.212 12.9001 23.13C11.2321 24.024 9.56406 24.918 7.89606 25.812C7.29606 26.136 6.65406 26.178 6.06006 25.944Z" fill="#1C1D2B"/>
<path d="M6.06006 4.032C6.70206 3.822 7.32006 3.876 7.91406 4.194C10.2961 5.466 12.6721 6.744 15.0541 8.016C16.5841 8.838 18.1141 9.654 19.6441 10.476C19.6981 10.506 19.7461 10.536 19.7821 10.554C18.5761 11.76 17.3761 12.96 16.1881 14.142C12.8341 10.8 9.45606 7.422 6.06006 4.032Z" fill="#1C1D2B"/>
<path d="M16.98 14.958C17.844 14.1 18.702 13.248 19.56 12.396C19.944 12.012 20.334 11.634 20.712 11.244C20.808 11.148 20.886 11.136 21.006 11.202C22.116 11.802 23.232 12.384 24.336 13.002C25.128 13.44 25.512 14.154 25.5 15.042C25.488 15.948 25.056 16.626 24.252 17.058C23.184 17.634 22.104 18.21 21.036 18.786C20.934 18.84 20.85 18.894 20.742 18.78C19.5 17.526 18.258 16.278 17.01 15.03C17.004 15.018 17.004 15.006 16.98 14.958Z" fill="#1C1D2B"/>
</svg>
