<svg width="30" height="30" viewBox="0 0 30 30" fill="none" xmlns="http://www.w3.org/2000/svg">
<path d="M24 30H6C2.688 30 0 27.312 0 24V6C0 2.688 2.688 0 6 0H24C27.312 0 30 2.688 30 6V24C30 27.312 27.312 30 24 30Z" fill="white"/>
<path d="M13.44 11.502C13.584 12.18 13.866 12.936 13.878 13.692C13.926 17.004 13.902 20.31 13.896 23.622C13.89 25.11 13.092 25.758 11.652 25.41C9.63602 24.924 7.62003 24.42 5.61003 23.898C4.47603 23.604 3.97202 22.986 3.96602 21.798C3.94802 18.27 3.94202 14.736 3.96602 11.208C3.97202 9.924 4.85403 9.276 6.13203 9.57C7.38003 9.858 8.62202 10.188 10.038 10.548C10.038 9.954 10.032 9.468 10.038 8.982C10.05 7.374 10.836 6.756 12.408 7.128C13.596 7.41 14.778 7.716 16.116 8.052C16.116 7.35 16.098 6.732 16.122 6.12C16.164 4.98 16.968 4.308 18.084 4.56C20.262 5.058 22.428 5.598 24.588 6.168C25.458 6.396 26.028 7.008 26.034 7.938C26.064 11.628 26.076 15.312 26.046 19.002C26.04 20.034 25.212 20.658 24.174 20.49C23.43 20.37 22.656 20.238 21.99 19.92C21.654 19.758 21.36 19.17 21.342 18.762C21.204 16.278 21.156 13.788 21.072 11.298C21.03 10.074 20.466 9.288 19.614 9.042C19.734 9.858 19.956 10.746 19.968 11.634C20.01 14.784 19.992 17.94 19.986 21.09C19.98 22.626 19.158 23.31 17.67 22.908C14.922 22.158 15.312 22.854 15.21 19.884C15.138 17.838 15.09 15.792 15.012 13.74C14.946 12.492 14.25 11.628 13.44 11.502Z" fill="#1C1D2B"/>
</svg>
