<svg width="30" height="30" viewBox="0 0 30 30" fill="none" xmlns="http://www.w3.org/2000/svg">
<path d="M24 30H6C2.688 30 0 27.312 0 24V6C0 2.688 2.688 0 6 0H24C27.312 0 30 2.688 30 6V24C30 27.312 27.318 30 24 30Z" fill="white"/>
<path d="M25.4882 10.182C25.4882 9.594 25.4342 9.006 25.3562 8.424C25.2482 7.566 25.0202 6.738 24.4622 6.054C23.7602 5.184 22.8722 4.644 21.7142 4.644C20.8022 4.638 19.8902 4.638 18.9782 4.638C15.4082 4.638 11.8322 4.638 8.25621 4.644C8.05221 4.644 7.84221 4.638 7.64421 4.692C6.22221 5.076 5.28621 5.97 4.85421 7.392C4.58421 8.28 4.50622 9.192 4.50022 10.104C4.49422 13.488 4.51221 16.872 4.52421 20.256C4.53021 20.922 4.63821 21.582 4.81821 22.224C5.25621 23.814 6.31221 24.744 7.89621 25.11C8.73621 25.308 9.58821 25.356 10.4462 25.362C11.9642 25.368 13.4822 25.362 15.0002 25.362V25.332C16.8182 25.332 18.6362 25.344 20.4482 25.332C21.1022 25.326 21.7382 25.218 22.3682 25.038C23.8022 24.636 24.7322 23.73 25.1582 22.296C25.4222 21.39 25.4942 20.466 25.4942 19.53C25.5062 16.416 25.5062 13.302 25.4882 10.182ZM19.1102 8.232L19.0982 8.304C18.9602 9.546 18.3602 10.536 17.3282 11.256C16.6802 11.7 16.1162 11.886 15.1022 11.982H15.0302C13.8722 11.982 12.8402 11.55 12.0422 10.722C11.3042 9.966 10.9082 9.048 10.8722 8.01C10.8662 7.722 10.9802 7.536 11.0762 7.434C11.2202 7.284 11.4122 7.212 11.6522 7.212H11.6822C11.9942 7.212 12.5762 7.212 12.6242 7.986L12.6302 8.106C12.6902 8.718 12.9602 9.234 13.4222 9.636C13.8722 10.026 14.4182 10.236 14.9942 10.236C16.0442 10.236 16.9622 9.552 17.2742 8.544C17.3222 8.394 17.3402 8.214 17.3582 8.022L17.3642 7.938C17.4242 7.404 17.8022 7.212 18.1562 7.212H18.2822C18.4802 7.212 18.7442 7.212 18.9542 7.452C19.1702 7.692 19.1402 7.968 19.1102 8.232Z" fill="#1C1D2B"/>
</svg>
