<svg width="30" height="30" viewBox="0 0 30 30" fill="none" xmlns="http://www.w3.org/2000/svg">
<path d="M24 30H6C2.688 30 0 27.312 0 24V6C0 2.688 2.688 0 6 0H24C27.312 0 30 2.688 30 6V24C30 27.312 27.312 30 24 30Z" fill="white"/>
<path d="M25.1819 15.09C25.0259 14.838 24.888 14.58 24.72 14.334C24.12 13.446 23.52 12.558 22.92 11.67C22.734 11.388 22.428 11.184 22.488 10.758C22.722 9.12 22.1759 7.764 20.9099 6.714C19.7519 5.76 18.4019 5.502 16.9859 5.868C15.7619 6.186 14.8199 6.936 14.2259 8.088C14.0939 8.34 13.9439 8.658 13.7099 8.772C12.7619 9.246 11.7779 9.66 10.7999 10.08C10.6679 10.14 10.4759 10.146 10.3319 10.104C9.24595 9.774 8.17795 9.78 6.75595 10.434C5.63395 11.004 4.67395 12.156 4.51795 13.854C4.34995 15.606 5.00395 16.992 6.47395 17.988C6.61195 18.078 6.75595 18.228 6.79795 18.378C6.91795 18.828 6.97194 19.302 7.08594 19.752C7.36794 20.832 7.63794 21.918 7.98594 22.98C8.09994 23.328 8.37595 23.694 8.68195 23.904C9.94795 24.78 11.5799 24.12 11.8439 22.644C12.1739 20.778 12.4319 18.9 12.7319 17.034C12.7559 16.872 12.8099 16.668 12.9179 16.566C13.1579 16.35 13.4519 16.182 13.7219 15.996C14.5259 15.438 15.4319 15.126 16.3499 14.82C17.2319 14.532 17.226 14.52 17.988 15.036C18.054 15.078 18.114 15.12 18.18 15.162C19.194 15.804 20.2079 16.458 21.2279 17.088C21.7859 17.43 22.332 17.814 22.938 18.036C23.82 18.36 24.528 18.018 25.062 17.352C25.614 16.68 25.6259 15.804 25.1819 15.09ZM10.938 14.142C10.662 14.292 10.368 14.418 10.074 14.538C9.86395 14.622 9.82195 14.742 9.92395 14.946C10.068 15.228 10.2 15.522 10.32 15.81C10.464 16.158 10.3319 16.482 9.98395 16.656C9.65995 16.818 9.32395 16.716 9.14995 16.38C8.99395 16.08 8.84995 15.768 8.72395 15.456C8.63995 15.252 8.53795 15.216 8.34595 15.306C8.05795 15.444 7.76995 15.582 7.47595 15.702C7.12195 15.846 6.81595 15.732 6.64795 15.408C6.47395 15.078 6.55195 14.778 6.89995 14.568C7.19395 14.394 7.49995 14.25 7.80595 14.112C8.00395 14.022 8.06395 13.902 7.96195 13.698C7.82995 13.422 7.70995 13.14 7.58995 12.858C7.44595 12.516 7.57795 12.186 7.91395 12.048C8.26195 11.904 8.57995 12.024 8.72995 12.354C8.79595 12.492 8.85595 12.636 8.92195 12.774C9.23995 13.458 9.23994 13.458 9.93594 13.158C10.0739 13.098 10.218 13.032 10.356 12.978C10.728 12.834 11.0939 12.972 11.2439 13.308C11.3879 13.596 11.262 13.962 10.938 14.142ZM16.8359 11.808C16.4339 11.988 15.834 11.742 15.642 11.322C15.444 10.884 15.6359 10.35 16.0679 10.152C16.5419 9.93 17.082 10.116 17.292 10.578C17.4959 11.01 17.2679 11.616 16.8359 11.808ZM17.7779 9.258C17.3039 9.474 16.8119 9.282 16.6079 8.814C16.4099 8.358 16.6079 7.806 17.0759 7.638C17.4479 7.506 17.964 7.566 18.1919 8.106C18.396 8.586 18.2339 9.048 17.7779 9.258ZM19.3499 12.72C18.8399 12.936 18.3299 12.75 18.1139 12.27C17.8979 11.796 18.1139 11.244 18.5939 11.034C19.0319 10.842 19.5779 11.058 19.7819 11.508C19.9979 12 19.8179 12.522 19.3499 12.72ZM20.256 10.23C19.794 10.428 19.2539 10.23 19.0679 9.786C18.8639 9.306 19.0499 8.82 19.5179 8.61C20.0099 8.388 20.514 8.574 20.724 9.048C20.922 9.48 20.7 10.038 20.256 10.23Z" fill="#1C1D2B"/>
</svg>
