<svg width="31" height="30" viewBox="0 0 31 30" fill="none" xmlns="http://www.w3.org/2000/svg">
<path d="M24 30H6C2.688 30 0 27.312 0 24V6C0 2.688 2.688 0 6 0H24C27.312 0 30 2.688 30 6V24C30 27.312 27.312 30 24 30Z" fill="white"/>
<path d="M14.9818 8.394C19.6318 8.394 24.2879 8.394 28.9379 8.394C29.9579 8.394 29.9699 8.4 29.9759 9.438C29.9879 12.888 29.9699 16.338 30.0058 19.794C30.0119 20.406 29.7719 20.682 29.2558 20.904C26.3159 22.164 23.2499 22.926 20.0879 23.322C15.1739 23.94 10.3019 23.718 5.50786 22.506C3.84586 22.086 2.24985 21.408 0.617847 20.844C0.191847 20.7 0.0058592 20.442 0.0118592 19.956C0.0358592 16.38 0.0478467 12.804 0.0178468 9.228C0.0118468 8.55 0.251854 8.382 0.887854 8.382C5.57385 8.406 10.2778 8.394 14.9818 8.394ZM25.1038 15.348C25.1098 12.888 23.2078 10.962 20.7598 10.95C18.3298 10.938 16.3498 12.882 16.3318 15.294C16.3138 17.748 18.2878 19.74 20.7418 19.734C23.1898 19.728 25.1038 17.802 25.1038 15.348ZM13.5479 13.29C12.7439 12.45 12.0838 11.754 11.2858 10.926C10.6318 11.676 9.96585 12.438 9.17385 13.35C8.36985 12.45 7.69186 11.7 7.09786 11.034C6.31186 11.76 5.60385 12.42 4.76985 13.194C5.56785 13.884 6.33585 14.55 7.33785 15.42C6.38385 16.224 5.60386 16.878 4.86586 17.496C5.64586 18.282 6.32385 18.972 7.12785 19.788C7.81185 19.038 8.48985 18.288 9.34185 17.352C10.0859 18.204 10.7519 18.966 11.3279 19.62C12.1258 18.9 12.8398 18.252 13.7278 17.448C12.9118 16.746 12.1439 16.08 11.2799 15.342C12.1499 14.55 12.8879 13.884 13.5479 13.29Z" fill="#1C1D2B"/>
<path d="M20.7418 16.644C19.9978 16.644 19.4038 16.044 19.4218 15.312C19.4338 14.64 20.0458 14.016 20.7058 13.998C21.4018 13.974 22.0438 14.604 22.0558 15.318C22.0738 16.05 21.4798 16.644 20.7418 16.644Z" fill="#1C1D2B"/>
</svg>
