<svg width="31" height="30" viewBox="0 0 31 30" fill="none" xmlns="http://www.w3.org/2000/svg">
<path d="M24.0063 30H6.00635C2.69435 30 0.00634766 27.312 0.00634766 24V6C0.00634766 2.688 2.69435 0 6.00635 0H24.0063C27.3183 0 30.0063 2.688 30.0063 6V24C30.0063 27.312 27.3183 30 24.0063 30Z" fill="white"/>
<path d="M25.5063 12.108C25.4163 13.716 24.7383 14.91 23.2683 15.588C23.1663 15.636 23.0703 15.702 22.9863 15.78C22.2963 16.398 21.6063 17.022 20.9223 17.652C20.8563 17.718 20.8023 17.85 20.8143 17.94C21.0243 19.476 19.9623 21.09 18.4863 21.462C16.9863 21.846 15.4203 21.036 14.8863 19.536C14.7303 19.098 14.4904 18.912 14.0824 18.768C12.4144 18.192 10.7583 17.586 9.09633 16.986C8.95833 16.938 8.86235 16.938 8.73635 17.028C7.17635 18.114 5.05834 17.268 4.60234 15.342C4.30234 14.082 4.66235 12.996 5.71835 12.222C7.20635 11.124 9.30633 11.91 9.84633 13.746C9.89434 13.914 9.97834 13.992 10.1283 14.046C11.8503 14.658 13.5663 15.276 15.2883 15.9C15.4443 15.954 15.5523 15.954 15.6843 15.828C16.1763 15.354 16.7763 15.084 17.4603 15.024C17.6223 15.012 17.6823 14.952 17.7303 14.796C17.9463 14.07 18.1863 13.35 18.4023 12.618C18.4683 12.402 18.4983 12.168 18.5043 11.946C18.5703 10.026 20.1903 8.274 22.3143 8.454C23.7663 8.58 25.1403 9.834 25.4043 11.322C25.4463 11.592 25.4703 11.862 25.5063 12.108ZM22.0563 14.76C22.2123 14.73 22.4523 14.712 22.6743 14.634C24.4263 14.064 25.0143 11.844 23.7963 10.404C22.8963 9.336 21.3123 9.264 20.3163 10.242C19.5123 11.034 19.2843 12.264 19.7763 13.296C20.2143 14.208 20.9523 14.7 22.0563 14.76ZM17.3583 16.464C17.6103 16.56 17.8623 16.662 18.1203 16.74C18.7503 16.938 19.0803 17.382 19.1763 18.006C19.2663 18.594 19.0803 19.116 18.6183 19.5C18.1803 19.86 17.6883 19.938 17.1543 19.734C16.7523 19.578 16.3443 19.428 15.9423 19.284C15.8943 19.266 15.8343 19.266 15.7683 19.26C16.1163 20.376 17.2024 20.976 18.2824 20.676C19.3384 20.382 20.0043 19.17 19.7283 18.036C19.4523 16.914 18.4083 16.2 17.3583 16.464ZM8.94035 13.62C8.46635 12.678 7.33234 12.324 6.43834 12.792C5.46034 13.308 5.08234 14.586 5.61034 15.588C6.04834 16.41 7.09835 16.872 7.75835 16.512C7.57235 16.446 7.40434 16.362 7.23034 16.32C6.49234 16.152 5.95835 15.228 6.20435 14.352C6.46235 13.44 7.41034 12.978 8.28034 13.356C8.48434 13.452 8.68835 13.524 8.94035 13.62Z" fill="#1C1D2B"/>
<path d="M23.7123 12.156C23.7123 13.188 22.9623 13.992 21.9903 13.992C21.0063 13.998 20.2323 13.182 20.2383 12.15C20.2443 11.136 21.0243 10.314 21.9783 10.314C22.9443 10.32 23.7123 11.136 23.7123 12.156Z" fill="#1C1D2B"/>
</svg>
