<svg width="31" height="30" viewBox="0 0 31 30" fill="none" xmlns="http://www.w3.org/2000/svg">
<path d="M24.0059 30H6.00586C2.69386 30 0.00585938 27.312 0.00585938 24V6C0.00585938 2.688 2.69386 0 6.00586 0H24.0059C27.3179 0 30.0059 2.688 30.0059 6V24C30.0059 27.312 27.3179 30 24.0059 30Z" fill="white"/>
<path d="M16.7456 25.482C16.7456 18.498 16.7456 11.52 16.7456 4.53001C16.7996 4.52401 16.8536 4.50601 16.9016 4.50601C18.0476 4.50601 19.1996 4.48801 20.3456 4.51201C22.8716 4.56601 25.0976 6.54601 25.4276 9.04801C25.5176 9.74401 25.4936 10.452 25.4996 11.16C25.5056 14.154 25.5176 17.148 25.4936 20.136C25.4756 22.686 23.8016 24.774 21.3416 25.344C20.9096 25.446 20.4476 25.476 20.0036 25.482C18.9776 25.5 17.9516 25.488 16.9316 25.488C16.8716 25.494 16.8176 25.488 16.7456 25.482ZM23.0036 16.044C22.9976 14.88 22.0616 13.956 20.8976 13.962C19.7156 13.968 18.7676 14.892 18.7676 16.05C18.7676 17.214 19.7216 18.15 20.9156 18.15C22.0736 18.144 23.0096 17.196 23.0036 16.044Z" fill="#1C1D2B"/>
<path d="M14.6278 25.494C14.3458 25.494 14.0758 25.494 13.8058 25.494C12.4378 25.494 11.0698 25.506 9.69578 25.488C7.15178 25.452 4.90178 23.46 4.57778 20.934C4.49378 20.274 4.51177 19.59 4.51177 18.924C4.50577 15.852 4.49378 12.774 4.51778 9.702C4.53578 7.17 6.52778 4.932 9.03578 4.572C9.38978 4.524 9.75577 4.512 10.1158 4.506C11.5498 4.5 12.9838 4.5 14.4178 4.5C14.4838 4.5 14.5438 4.506 14.6218 4.512C14.6278 11.508 14.6278 18.492 14.6278 25.494ZM12.9238 23.766C12.9238 17.922 12.9238 12.066 12.9238 6.21C11.8018 6.21 10.7038 6.144 9.61177 6.222C7.61377 6.366 6.19777 7.95 6.19777 9.948C6.19177 13.35 6.19177 16.752 6.19777 20.154C6.20377 21.93 7.54778 23.55 9.29978 23.736C10.4878 23.868 11.7058 23.766 12.9238 23.766Z" fill="#1C1D2B"/>
<path d="M11.7115 10.806C11.7055 11.904 10.8295 12.774 9.74354 12.774C8.65154 12.774 7.76953 11.88 7.76953 10.776C7.77553 9.696 8.66954 8.82 9.76154 8.826C10.8595 8.838 11.7175 9.708 11.7115 10.806Z" fill="#1C1D2B"/>
</svg>
