<svg width="31" height="30" viewBox="0 0 31 30" fill="none" xmlns="http://www.w3.org/2000/svg">
<path d="M24.0059 30H6.00586C2.69386 30 0.00585938 27.312 0.00585938 24V6C0.00585938 2.688 2.69386 0 6.00586 0H24.0059C27.3179 0 30.0059 2.688 30.0059 6V24C30.0059 27.312 27.3179 30 24.0059 30Z" fill="white"/>
<path d="M22.8297 22.032C22.4997 22.344 22.1817 22.674 21.8337 22.968C20.0937 24.444 18.0897 25.29 15.8097 25.458C11.1897 25.8 6.89968 23.16 5.26768 18.834C3.74368 14.79 4.49968 11.1 7.34968 7.84799C7.76968 7.36799 8.31567 7.16399 8.97567 7.32599C9.74367 7.51199 10.4277 7.87799 11.0697 8.31599C11.7657 8.78999 12.3957 9.34799 12.9837 9.94799C13.0137 9.97799 13.0317 10.008 13.0617 10.044C12.7677 10.362 12.4737 10.668 12.1977 10.98C10.8597 12.51 9.61767 14.112 8.63367 15.894C7.78167 17.436 7.24768 19.08 7.16368 20.85C7.14568 21.228 7.21166 21.606 7.24166 21.984C7.26566 21.984 7.28367 21.984 7.30767 21.984C7.33767 21.84 7.36167 21.696 7.40367 21.552C7.66167 20.688 8.11167 19.914 8.60367 19.17C9.85167 17.274 11.3697 15.6 12.9717 14.004C13.6497 13.332 14.3397 12.666 15.0777 11.946C15.1437 12.03 15.2217 12.162 15.3297 12.27C17.3577 14.256 19.3017 16.314 21.0357 18.564C21.7977 19.554 22.3917 20.64 22.7277 21.858C22.7517 21.918 22.7997 21.972 22.8297 22.032Z" fill="#1C1D2B"/>
<path d="M22.8295 22.032C22.8535 21.792 22.8654 21.546 22.8954 21.306C23.0394 20.106 22.8715 18.948 22.4155 17.838C21.6655 16.014 20.6334 14.352 19.3794 12.84C18.6234 11.928 17.8014 11.064 17.0154 10.176C16.9914 10.146 16.9614 10.116 16.9194 10.068C17.1174 9.894 17.3034 9.714 17.5014 9.552C18.5634 8.64 19.6974 7.848 21.0114 7.332C21.5754 7.11 22.0794 7.236 22.4754 7.638C22.8954 8.064 23.2854 8.526 23.6334 9.018C24.7374 10.584 25.3615 12.336 25.4875 14.25C25.6795 17.13 24.8214 19.668 22.9554 21.87C22.9014 21.918 22.8655 21.978 22.8295 22.032Z" fill="#1C1D2B"/>
<path d="M9.50977 6.096C12.8818 3.84 17.6878 4.11 20.6638 6.192C19.8238 5.862 19.0618 6.102 18.3178 6.396C17.1778 6.852 16.1638 7.536 15.1798 8.262C15.1258 8.304 15.0718 8.34 15.0418 8.364C14.3158 7.884 13.6198 7.404 12.8998 6.966C12.2338 6.564 11.5378 6.222 10.7638 6.054C10.3438 5.964 9.92977 5.982 9.50977 6.096Z" fill="#1C1D2B"/>
</svg>
