<svg width="115" height="30" viewBox="0 0 115 30" fill="none" xmlns="http://www.w3.org/2000/svg">
<path d="M24.1335 20.0732C24.0278 20.1006 24.1912 20.0273 24.1335 20.0732C23.672 20.4213 22.7008 20.8991 22.1335 21.0732C21.9605 21.119 22.1816 20.9174 22.1335 21.0732C21.8739 21.8703 21.6239 22.3859 21.1335 23.0732C20.9124 23.3847 20.3835 23.7891 20.1335 24.0732C19.7105 24.5588 18.6239 24.4946 18.1335 24.0732C17.6528 23.6517 17.6816 23.5221 18.1335 23.0732C18.6624 22.5417 19.8547 21.742 20.1335 21.0732C20.297 20.6792 20.0182 20.4855 20.1335 20.0732C20.2682 19.6059 20.6335 19.1281 21.1335 19.0732C21.6143 19.0182 21.7489 18.3297 22.1335 18.0732C22.1239 18.1006 22.1624 18.0548 22.1335 18.0732C22.1335 18.0915 22.1432 18.0548 22.1335 18.0732C22.1335 17.2027 22.1335 16.9528 22.1335 16.0732C22.047 16.064 22.2201 16.0823 22.1335 16.0732C21.5951 15.9632 21.1335 15.5954 21.1335 15.0732C21.1335 14.3768 21.2489 12.7604 21.1335 12.0732C21.0855 11.7525 21.2008 12.3938 21.1335 12.0732C21.1239 12.0273 21.1816 11.0915 21.1335 11.0732C20.5278 10.7983 19.797 11.1556 19.1335 11.0732C17.9509 10.9174 16.3162 11.0457 15.1335 11.0732C14.1335 11.0915 13.1143 11.3389 12.1335 11.0732C11.0374 10.7799 10.6624 10.0261 10.1335 9.07315C9.97969 8.74329 9.28738 8.39385 9.13354 8.07315C9.03738 8.30222 9.22969 7.85325 9.13354 8.07315C8.85469 8.73287 8.64315 9.53255 8.13354 10.0732C7.70085 10.5313 6.76815 10.9815 6.13354 11.0732C5.7297 11.1373 5.53738 10.9999 5.13354 11.0732C5.00854 11.0915 5.16238 10.9632 5.13354 11.0732C4.922 11.9894 5.10469 13.1294 5.13354 14.0732C5.14315 14.3572 5.27777 14.7983 5.13354 15.0732C4.76816 15.7512 3.7393 15.6871 3.13354 15.0732C3.05662 15.3297 2.20085 15.8441 2.13354 16.0732C1.93162 16.797 2.66239 17.5325 3.13354 18.0732C3.59507 18.6046 4.48931 18.7891 5.13354 19.0732C5.09508 19.064 5.172 19.0915 5.13354 19.0732C5.67199 19.1465 6.01815 19.5692 6.13354 20.0732C6.36431 21.0627 6.47008 22.2852 7.13354 23.0732C7.57584 23.5679 8.6047 23.67 9.13354 24.0732C9.69123 24.4946 9.56623 25.56 9.13354 26.0732C8.75854 26.5221 7.69123 26.5038 7.13354 26.0732C5.55663 24.8728 4.77776 22.8874 4.13354 21.0732C4.11431 21.009 4.19123 21.0915 4.13354 21.0732C3.34508 20.8258 2.72969 20.6046 2.13354 20.0732C1.56624 19.56 0.450843 18.7695 0.133538 18.0732C-0.13569 17.4776 0.0758467 16.7145 0.133538 16.0732C0.19123 15.3676 0.797003 14.7054 1.13354 14.0732C1.32584 13.7158 0.797003 13.3205 1.13354 13.0732C1.13354 13.1281 1.18161 13.0365 1.13354 13.0732C1.03739 12.1202 1.08546 11.0261 1.13354 10.0732C1.22969 8.08483 1.99893 6.76826 3.13354 5.07315C4.21045 3.47883 5.32586 1.85199 7.13354 1.07315C8.28737 0.578363 9.88355 0.219756 11.1335 0.0731522C12.1335 -0.0459638 13.1335 -0.000149995 14.1335 0.0731522C15.8258 0.201431 17.6239 0.321805 19.1335 1.07315C21.1624 2.08106 22.1816 4.08483 23.1335 6.07315C23.6528 7.16352 23.9989 7.89116 24.1335 9.07315C24.2008 9.69622 24.0951 10.4501 24.1335 11.0732C24.1335 11.0457 24.1335 11.1006 24.1335 11.0732C24.3451 11.0823 24.9316 11.0548 25.1335 11.0732C26.5662 11.2381 27.8932 12.7171 28.1335 14.0732C28.1816 14.3297 28.1335 14.8166 28.1335 15.0732C28.1432 15.8153 28.1528 16.331 28.1335 17.0732C28.0951 18.3926 27.3739 19.4501 26.1335 20.0732C26.0374 20.119 26.1528 19.954 26.1335 20.0732C25.7201 22.0981 24.2489 24.3414 23.1335 26.0732C22.9989 26.2839 23.2682 25.8624 23.1335 26.0732C23.0085 26.2564 23.3451 26.9815 23.1335 27.0732C22.0086 27.5313 20.3258 26.9082 19.1335 27.0732C18.4316 27.1648 17.8355 27.9999 17.1335 28.0732C17.0758 28.0823 17.172 28.0273 17.1335 28.0732C16.2201 29.0536 14.4604 29.1648 13.1335 29.0732C12.1816 29.009 11.8162 28.7329 11.1335 28.0732C10.6624 27.6059 10.1335 26.7237 10.1335 26.0732C10.1335 25.3218 10.5566 24.5588 11.1335 24.0732C12.0278 23.331 12.9701 23.9815 14.1335 24.0732C14.9124 24.1373 15.5182 23.615 16.1335 24.0732C16.6239 24.4397 16.9797 25.4776 17.1335 26.0732C17.047 26.0915 17.1624 26.1923 17.1335 26.0732C17.6912 26.009 18.5759 26.1831 19.1335 26.0732C19.8739 25.9265 20.4028 25.2564 21.1335 25.0732C21.3547 25.0182 22.0182 25.2656 22.1335 25.0732C23.0374 23.6712 23.6528 21.6583 24.1335 20.0732C24.1528 20.0365 24.1143 20.1556 24.1335 20.0732Z" fill="url(#paint0_linear_263_310)"/>
<path d="M18.1339 19.0732C16.8842 19.1859 15.2875 18.3138 15.1339 17.0732C14.97 15.7403 15.6282 14.1962 17.1339 14.0732C18.4961 13.9604 20.0519 14.5865 20.1339 16.0732C20.2056 17.4163 19.5064 19.0219 18.1339 19.0732Z" fill="url(#paint1_linear_263_310)"/>
<path d="M6.13392 16.0732C6.13392 14.6798 7.73765 14.0732 9.13392 14.0732C10.5302 14.0732 11.1442 15.6388 11.1339 17.0732C11.1237 18.3847 9.55072 19.0835 8.13392 19.0732C6.72739 19.0732 6.12365 17.4667 6.13392 16.0732Z" fill="url(#paint2_linear_263_310)"/>
<path d="M39.1778 20.0731V11.6731H46.8338V20.0731H44.9018V12.8131L45.3458 13.2571H40.6658L41.1098 12.8131V20.0731H39.1778ZM51.7961 20.1691C51.1081 20.1691 50.4961 20.0251 49.9601 19.7371C49.4321 19.4491 49.0121 19.0571 48.7001 18.5611C48.3961 18.0571 48.2441 17.4851 48.2441 16.8451C48.2441 16.1971 48.3961 15.6251 48.7001 15.1291C49.0121 14.6251 49.4321 14.2331 49.9601 13.9531C50.4961 13.6651 51.1081 13.5211 51.7961 13.5211C52.4761 13.5211 53.0841 13.6651 53.6201 13.9531C54.1561 14.2331 54.5761 14.6211 54.8801 15.1171C55.1841 15.6131 55.3361 16.1891 55.3361 16.8451C55.3361 17.4851 55.1841 18.0571 54.8801 18.5611C54.5761 19.0571 54.1561 19.4491 53.6201 19.7371C53.0841 20.0251 52.4761 20.1691 51.7961 20.1691ZM51.7961 18.6331C52.1081 18.6331 52.3881 18.5611 52.6361 18.4171C52.8841 18.2731 53.0801 18.0691 53.2241 17.8051C53.3681 17.5331 53.4401 17.2131 53.4401 16.8451C53.4401 16.4691 53.3681 16.1491 53.2241 15.8851C53.0801 15.6211 52.8841 15.4171 52.6361 15.2731C52.3881 15.1291 52.1081 15.0571 51.7961 15.0571C51.4841 15.0571 51.2041 15.1291 50.9561 15.2731C50.7081 15.4171 50.5081 15.6211 50.3561 15.8851C50.2121 16.1491 50.1401 16.4691 50.1401 16.8451C50.1401 17.2131 50.2121 17.5331 50.3561 17.8051C50.5081 18.0691 50.7081 18.2731 50.9561 18.4171C51.2041 18.5611 51.4841 18.6331 51.7961 18.6331ZM60.9699 19.2331V15.1531H58.8579L58.8219 15.9811C58.8059 16.3251 58.7859 16.6531 58.7619 16.9651C58.7379 17.2771 58.6899 17.5611 58.6179 17.8171C58.5539 18.0651 58.4579 18.2771 58.3299 18.4531C58.2019 18.6211 58.0299 18.7371 57.8139 18.8011L55.9659 18.5371C56.1979 18.5371 56.3859 18.4691 56.5299 18.3331C56.6739 18.1891 56.7859 17.9931 56.8659 17.7451C56.9459 17.4891 57.0059 17.2011 57.0459 16.8811C57.0859 16.5531 57.1139 16.2091 57.1299 15.8491L57.2139 13.6171H62.8419V19.2331H60.9699ZM55.7499 21.4651V18.5371H63.7659V21.4651H62.0259V20.0731H57.4899V21.4651H55.7499ZM69.3839 19.2331V15.1531H67.2719L67.2359 15.9811C67.2199 16.3251 67.1999 16.6531 67.1759 16.9651C67.1519 17.2771 67.1039 17.5611 67.0319 17.8171C66.9679 18.0651 66.8719 18.2771 66.7439 18.4531C66.6159 18.6211 66.4439 18.7371 66.2279 18.8011L64.3799 18.5371C64.6119 18.5371 64.7999 18.4691 64.9439 18.3331C65.0879 18.1891 65.1999 17.9931 65.2799 17.7451C65.3599 17.4891 65.4199 17.2011 65.4599 16.8811C65.4999 16.5531 65.5279 16.2091 65.5439 15.8491L65.6279 13.6171H71.2559V19.2331H69.3839ZM64.1639 21.4651V18.5371H72.1799V21.4651H70.4399V20.0731H65.9039V21.4651H64.1639ZM76.514 20.1691C75.778 20.1691 75.13 20.0251 74.57 19.7371C74.018 19.4491 73.59 19.0571 73.286 18.5611C72.982 18.0571 72.83 17.4851 72.83 16.8451C72.83 16.1971 72.978 15.6251 73.274 15.1291C73.578 14.6251 73.99 14.2331 74.51 13.9531C75.03 13.6651 75.618 13.5211 76.274 13.5211C76.906 13.5211 77.474 13.6571 77.978 13.9291C78.49 14.1931 78.894 14.5771 79.19 15.0811C79.486 15.5771 79.634 16.1731 79.634 16.8691C79.634 16.9411 79.63 17.0251 79.622 17.1211C79.614 17.2091 79.606 17.2931 79.598 17.3731H74.354V16.2811H78.614L77.894 16.6051C77.894 16.2691 77.826 15.9771 77.69 15.7291C77.554 15.4811 77.366 15.2891 77.126 15.1531C76.886 15.0091 76.606 14.9371 76.286 14.9371C75.966 14.9371 75.682 15.0091 75.434 15.1531C75.194 15.2891 75.006 15.4851 74.87 15.7411C74.734 15.9891 74.666 16.2851 74.666 16.6291V16.9171C74.666 17.2691 74.742 17.5811 74.894 17.8531C75.054 18.1171 75.274 18.3211 75.554 18.4651C75.842 18.6011 76.178 18.6691 76.562 18.6691C76.906 18.6691 77.206 18.6171 77.462 18.5131C77.726 18.4091 77.966 18.2531 78.182 18.0451L79.178 19.1251C78.882 19.4611 78.51 19.7211 78.062 19.9051C77.614 20.0811 77.098 20.1691 76.514 20.1691ZM84.8729 20.1691C84.3289 20.1691 83.8529 20.0491 83.4449 19.8091C83.0369 19.5691 82.7169 19.2051 82.4849 18.7171C82.2609 18.2211 82.1489 17.5971 82.1489 16.8451C82.1489 16.0851 82.2569 15.4611 82.4729 14.9731C82.6889 14.4851 83.0009 14.1211 83.4089 13.8811C83.8169 13.6411 84.3049 13.5211 84.8729 13.5211C85.4809 13.5211 86.0249 13.6611 86.5049 13.9411C86.9929 14.2131 87.3769 14.5971 87.6569 15.0931C87.9449 15.5891 88.0889 16.1731 88.0889 16.8451C88.0889 17.5251 87.9449 18.1131 87.6569 18.6091C87.3769 19.1051 86.9929 19.4891 86.5049 19.7611C86.0249 20.0331 85.4809 20.1691 84.8729 20.1691ZM81.0569 22.4011V13.6171H82.8449V14.9371L82.8089 16.8571L82.9289 18.7651V22.4011H81.0569ZM84.5489 18.6331C84.8609 18.6331 85.1369 18.5611 85.3769 18.4171C85.6249 18.2731 85.8209 18.0691 85.9649 17.8051C86.1169 17.5331 86.1929 17.2131 86.1929 16.8451C86.1929 16.4691 86.1169 16.1491 85.9649 15.8851C85.8209 15.6211 85.6249 15.4171 85.3769 15.2731C85.1369 15.1291 84.8609 15.0571 84.5489 15.0571C84.2369 15.0571 83.9569 15.1291 83.7089 15.2731C83.4609 15.4171 83.2649 15.6211 83.1209 15.8851C82.9769 16.1491 82.9049 16.4691 82.9049 16.8451C82.9049 17.2131 82.9769 17.5331 83.1209 17.8051C83.2649 18.0691 83.4609 18.2731 83.7089 18.4171C83.9569 18.5611 84.2369 18.6331 84.5489 18.6331ZM96.9658 20.0731L95.2498 17.0131L96.7618 16.1131L99.1858 20.0731H96.9658ZM94.1458 17.6251V16.1251H96.3898V17.6251H94.1458ZM96.9538 17.0611L95.1898 16.8691L97.0498 13.6171H99.0298L96.9538 17.0611ZM90.5818 20.0731H88.3738L90.7858 16.1131L92.2978 17.0131L90.5818 20.0731ZM94.6978 20.0731H92.8498V13.6171H94.6978V20.0731ZM93.4018 17.6251H91.1698V16.1251H93.4018V17.6251ZM90.5938 17.0611L88.5178 13.6171H90.4978L92.3458 16.8691L90.5938 17.0611ZM104.731 20.0731L102.571 17.0131L104.095 16.1131L106.939 20.0731H104.731ZM100.159 20.0731V13.6171H102.031V20.0731H100.159ZM101.479 17.6251V16.1251H103.735V17.6251H101.479ZM104.275 17.0611L102.523 16.8691L104.791 13.6171H106.783L104.275 17.0611ZM111.605 20.0731V18.8131L111.485 18.5371V16.2811C111.485 15.8811 111.361 15.5691 111.113 15.3451C110.873 15.1211 110.501 15.0091 109.997 15.0091C109.653 15.0091 109.313 15.0651 108.977 15.1771C108.649 15.2811 108.369 15.4251 108.137 15.6091L107.465 14.3011C107.817 14.0531 108.241 13.8611 108.737 13.7251C109.233 13.5891 109.737 13.5211 110.249 13.5211C111.233 13.5211 111.997 13.7531 112.541 14.2171C113.085 14.6811 113.357 15.4051 113.357 16.3891V20.0731H111.605ZM109.637 20.1691C109.133 20.1691 108.701 20.0851 108.341 19.9171C107.981 19.7411 107.705 19.5051 107.513 19.2091C107.321 18.9131 107.225 18.5811 107.225 18.2131C107.225 17.8291 107.317 17.4931 107.501 17.2051C107.693 16.9171 107.993 16.6931 108.401 16.5331C108.809 16.3651 109.341 16.2811 109.997 16.2811H111.713V17.3731H110.201C109.761 17.3731 109.457 17.4451 109.289 17.5891C109.129 17.7331 109.049 17.9131 109.049 18.1291C109.049 18.3691 109.141 18.5611 109.325 18.7051C109.517 18.8411 109.777 18.9091 110.105 18.9091C110.417 18.9091 110.697 18.8371 110.945 18.6931C111.193 18.5411 111.373 18.3211 111.485 18.0331L111.773 18.8971C111.637 19.3131 111.389 19.6291 111.029 19.8451C110.669 20.0611 110.205 20.1691 109.637 20.1691Z" fill="url(#paint3_linear_263_310)"/>
<defs>
<linearGradient id="paint0_linear_263_310" x1="14.0775" y1="0" x2="14.0775" y2="29.0991" gradientUnits="userSpaceOnUse">
<stop stop-color="#E32521"/>
<stop offset="0.640625" stop-color="#EF811B"/>
</linearGradient>
<linearGradient id="paint1_linear_263_310" x1="17.6241" y1="14.0603" x2="17.6241" y2="19.083" gradientUnits="userSpaceOnUse">
<stop stop-color="#E32521"/>
<stop offset="0.640625" stop-color="#EF811B"/>
</linearGradient>
<linearGradient id="paint2_linear_263_310" x1="8.63392" y1="14.0732" x2="8.63392" y2="19.0734" gradientUnits="userSpaceOnUse">
<stop stop-color="#E32521"/>
<stop offset="0.640625" stop-color="#EF811B"/>
</linearGradient>
<linearGradient id="paint3_linear_263_310" x1="76.1338" y1="8.07312" x2="76.1338" y2="23.0731" gradientUnits="userSpaceOnUse">
<stop stop-color="#E32521"/>
<stop offset="0.666667" stop-color="#EF811B"/>
</linearGradient>
</defs>
</svg>
