<svg width="116" height="44" viewBox="0 0 116 44" fill="none" xmlns="http://www.w3.org/2000/svg">
<path d="M16.9468 6.80349C17.0205 6.10268 17.1234 5.40316 17.2554 4.70581C12.3317 5.75335 8.62793 10.2773 8.62793 15.6996C8.62793 21.0774 12.2717 25.5715 17.1355 26.6666L16.9169 7.10612L16.921 7.06116C16.9289 6.97556 16.9377 6.88952 16.9468 6.80349ZM16.3489 24.8305C16.0516 25.1772 15.5245 25.2801 15.0319 25.0773C14.7692 24.9736 14.5064 24.8698 14.2433 24.7665C13.8169 24.6031 13.5912 24.4466 13.4626 24.3303C13.4626 24.3303 13.2031 24.169 13.0395 24.0782C12.997 24.0549 12.9404 24.0579 12.8913 24.0488C12.8584 24.0402 12.8205 24.0402 12.7901 24.0224C12.4961 23.8733 12.2421 23.6537 12.0448 23.3433C12.019 23.3052 11.9977 23.2585 11.9811 23.2144C11.9552 23.1474 11.9457 23.08 11.979 23.0212C11.76 22.7371 11.5414 22.4708 11.3369 22.1837C10.5795 21.1327 10.0366 19.9296 9.69304 18.5824C9.53773 17.9823 9.41073 17.3732 9.32162 16.7523C9.26958 16.3922 9.26749 16.0295 9.29081 15.6633C9.31912 15.2534 9.34744 14.8406 9.38741 14.4277C9.43654 13.924 9.51899 13.4264 9.62933 12.9344C9.85293 11.9361 10.2152 11.0135 10.6432 10.1325C10.6665 10.0827 10.6853 10.027 10.6924 9.97119C10.7136 9.82766 10.7748 9.7105 10.8477 9.60544C10.9701 9.42948 11.1017 9.25957 11.2312 9.09269C11.3532 8.93489 11.471 8.76801 11.6071 8.6275C12.1788 8.03304 12.7476 7.43253 13.4084 6.98464C13.8673 6.67163 14.6526 6.14721 15.746 5.92499C15.8871 5.89559 16.0237 5.87484 16.1553 5.85755C16.1436 5.91288 16.1316 5.96865 16.1224 6.02443C16.1057 6.02745 16.0895 6.03005 16.0708 6.03307C15.9484 6.05382 15.4778 6.14159 14.8783 6.37851C14.561 6.50475 14.1587 6.69195 13.7145 6.97599C13.3684 7.19259 13.0395 7.44421 12.7218 7.72825C12.4328 7.98592 12.148 8.25526 11.9057 8.57735C11.5389 9.06373 11.217 9.59377 10.9534 10.1791C10.7019 10.7412 10.5112 11.33 10.4971 11.9859C10.4925 12.3019 10.537 12.6063 10.6574 12.8903C10.7394 13.0866 10.8219 13.2829 10.8993 13.4817C10.9372 13.5816 10.963 13.6867 10.9913 13.7896C10.9959 13.8069 10.9913 13.8393 10.9817 13.8479C10.9747 13.8566 10.9488 13.854 10.9347 13.8419C10.8851 13.7982 10.8406 13.7455 10.789 13.7074C10.7419 13.675 10.6878 13.64 10.6336 13.6283C10.4763 13.5933 10.3422 13.6694 10.2339 13.8129C10.1115 13.9681 10.0457 14.164 9.99408 14.3663C9.90706 14.7173 9.88332 15.0775 9.86001 15.4376C9.80588 16.2227 9.83419 16.9983 9.96119 17.7683C10.0553 18.3511 10.1985 18.9131 10.4196 19.4432C10.455 19.5223 10.4996 19.5954 10.5441 19.6719C10.5562 19.6892 10.582 19.6952 10.6008 19.7069C10.6053 19.6805 10.6149 19.6572 10.6195 19.6334C10.622 19.6217 10.6195 19.6101 10.6174 19.5984C10.6008 19.4315 10.5795 19.2646 10.5679 19.0977C10.5562 18.9105 10.5633 18.7199 10.6291 18.5444C10.6711 18.4302 10.7419 18.3805 10.8381 18.4155C10.9089 18.4449 10.9817 18.486 11.0405 18.5413C11.2828 18.7726 11.4851 19.048 11.6425 19.3731C11.7812 19.6628 11.8611 19.9819 11.9365 20.3014C12.0165 20.6321 12.1176 20.9481 12.3079 21.2032C12.6864 21.7125 13.1195 22.1193 13.6345 22.3917C13.7944 22.4769 13.9614 22.5413 14.14 22.5413C14.3586 22.5413 14.4644 22.3977 14.441 22.134C14.4361 22.0843 14.4219 22.0346 14.4152 21.9849C14.4102 21.9585 14.4102 21.9321 14.4082 21.9088L14.4219 21.891C14.4502 21.9118 14.4785 21.9291 14.5023 21.9524C14.7363 22.1859 14.9032 22.374 14.949 22.4388C15.1572 22.735 15.4658 22.9991 15.7635 23.2546C16.3048 23.7181 16.4913 23.7012 16.575 23.9688C16.6729 24.2818 16.52 24.6307 16.3489 24.8305ZM12.061 17.1289C12.051 17.3256 12.0256 17.5193 11.9515 17.7026C11.9336 17.7471 11.919 17.7718 11.9003 17.7757C11.872 17.7817 11.8549 17.7329 11.8316 17.735C11.8112 17.7372 11.7883 17.7765 11.7695 17.9218C11.6804 17.9521 11.6121 17.9166 11.5505 17.8591C11.4443 17.7601 11.3765 17.633 11.3261 17.4977C11.115 16.9292 11.0484 16.3446 11.1641 15.7446C11.1854 15.6343 11.2312 15.5245 11.287 15.4272C11.3706 15.2807 11.5035 15.269 11.6267 15.3844C11.7366 15.4869 11.8033 15.6205 11.8557 15.7601C12.0219 16.2002 12.0843 16.6581 12.061 17.1289ZM13.5192 17.2595C13.5625 16.7852 13.8485 16.2206 14.434 16.0792C14.7683 15.9983 15.0894 16.052 15.3875 16.2171C15.9896 16.55 16.3323 17.0744 16.4043 17.7796C16.4305 18.0359 16.3914 18.2867 16.279 18.5227C16.2352 18.614 16.1803 18.6676 16.1386 18.7143C16.0262 18.8405 15.9109 18.9711 15.7756 19.1245C15.6294 19.2365 15.4637 19.2867 15.2871 19.2953C14.7792 19.3208 14.3686 19.1008 14.0317 18.7264C13.6624 18.3161 13.4667 17.8288 13.5192 17.2595ZM16.4118 11.7546C16.0404 12.6089 15.422 13.183 14.5343 13.4156C14.3753 13.4567 14.2054 13.4597 14.038 13.4774C13.9614 13.4861 13.8989 13.4567 13.8564 13.3892C13.7715 13.2595 13.6607 13.2184 13.5188 13.2772C13.3601 13.3447 13.221 13.3066 13.0795 13.2154C12.5856 12.9063 12.2938 12.4467 12.1489 11.8812C12.061 11.5367 12.0468 11.1921 12.0868 10.8389C12.1801 10.0261 12.5149 9.33999 13.0878 8.78314C13.5104 8.37113 14.0097 8.10611 14.5939 8.05898C15.2605 8.00278 15.8134 8.2531 16.2473 8.7892C16.1424 8.90982 16.1311 8.98072 16.2107 9.10739C16.2873 9.22801 16.3751 9.34258 16.4572 9.45758C16.5763 9.62533 16.6358 9.81382 16.65 10.017C16.6983 10.6149 16.6475 11.2038 16.4118 11.7546Z" fill="white"/>
<path d="M22.2769 7.04598L22.2807 7.08844L22.2533 9.49656C22.2203 12.3535 22.1874 15.2105 22.1545 18.0675C22.1726 18.0654 22.1904 18.0641 22.2085 18.0641C22.5543 18.0649 22.9 18.0693 23.2458 18.068C23.3188 18.0675 23.3923 18.0519 23.4645 18.0368C23.6114 18.0056 23.7123 17.9302 23.7553 17.7668C23.8005 17.5974 23.8989 17.4527 24.034 17.3401C24.1057 17.2807 24.1378 17.198 24.1395 17.1113C24.1442 16.8765 24.1551 16.639 24.1323 16.4064C24.0956 16.0372 24.0327 15.6707 23.9825 15.3028C23.9778 15.2656 23.9841 15.2266 23.985 15.1884C23.9968 15.185 24.0086 15.1819 24.0205 15.1785C24.0542 15.2482 24.0943 15.3154 24.1205 15.3882C24.3257 15.9601 24.4768 16.5485 24.6081 17.1421C24.6195 17.1949 24.69 17.2343 24.7639 17.2253C24.8699 17.2118 24.9319 17.1473 24.9657 17.045C25.1903 16.3678 25.3655 15.6785 25.4415 14.9653C25.5187 14.2448 25.5107 13.5251 25.3803 12.8119C25.3051 12.4016 25.2008 11.997 25.1097 11.5897C25.0957 11.5269 25.0822 11.4645 25.0683 11.4017C25.0771 11.3991 25.0856 11.3965 25.0945 11.3939C25.1899 11.6729 25.292 11.9502 25.3798 12.2322C25.7471 13.4129 25.8147 14.6183 25.6547 15.8427C25.5875 16.3561 25.5268 16.87 25.3942 17.3713C25.3706 17.4601 25.3418 17.5476 25.314 17.6356C25.2844 17.7287 25.3068 17.7746 25.4018 17.7729C25.5014 17.7716 25.6036 17.7612 25.6998 17.7361C26.114 17.6291 26.5117 17.4739 26.895 17.2807C26.9946 17.2304 27.1014 17.1958 27.2049 17.1538C27.2108 17.1676 27.2167 17.1815 27.2226 17.1949C26.6387 17.6451 25.9789 17.9384 25.3089 18.1473C25.2637 18.3288 25.2329 18.4965 25.1789 18.6555C25.1325 18.7928 25.0328 18.8955 24.9201 18.9882C24.8602 19.0376 24.8099 19.1169 24.7871 19.1932C24.731 19.3821 24.693 19.5766 24.6478 19.769C24.6339 19.8279 24.6212 19.8873 24.5933 19.9466C24.4937 19.6862 24.5009 19.4085 24.4578 19.1407C24.0707 19.0857 23.817 18.8054 23.7131 18.3959C23.2369 18.3994 22.7662 18.3448 22.3086 18.1979C22.2562 18.181 22.2047 18.1594 22.1536 18.1382C22.1211 20.9808 22.0882 23.824 22.0557 26.6667C26.9406 25.5341 30.5881 21.0528 30.5881 15.6975C30.5881 10.3072 26.8933 5.80249 21.9607 4.70588C22.0861 5.39651 22.1836 6.08931 22.2524 6.78255C22.2609 6.87007 22.2693 6.95802 22.2769 7.04598ZM25.5158 10.4251C25.3862 10.4489 25.2426 10.4372 25.113 10.4103C24.6702 10.3133 24.2995 10.0711 23.9542 9.78468C23.54 9.43633 23.1922 9.03209 22.9566 8.53643C22.876 8.36832 22.8185 8.19415 22.8012 8.00827C22.7696 7.62136 22.9709 7.37656 23.3589 7.38826C23.635 7.39996 23.871 7.48271 24.0922 7.601C24.7681 7.95801 25.303 8.47144 25.6884 9.15038C25.8033 9.35401 25.8869 9.57238 25.9126 9.81155C25.9413 10.0797 25.8582 10.3692 25.5158 10.4251ZM22.3639 6.13221C22.9118 6.19417 23.1871 6.22753 23.4873 6.34884C23.6194 6.40474 23.8301 6.46496 24.1154 6.54382C24.2079 6.57025 24.3067 6.57371 24.4038 6.58238C24.5562 6.59711 24.7031 6.6465 24.8462 6.71886C25.3617 6.98315 25.8611 7.27994 26.328 7.64172C26.6713 7.90689 26.9765 8.22317 27.2192 8.60575C27.4071 8.90514 27.6359 9.16251 27.8407 9.44067C28.5706 10.4281 29.1317 11.5191 29.4918 12.7387C29.7784 13.7188 29.922 14.7235 29.93 15.753C29.9397 16.863 29.7759 17.9423 29.4605 18.9895C29.3609 19.3136 29.2511 19.6351 29.1464 19.9592C29.138 19.9887 29.1397 20.0259 29.1469 20.0597C29.168 20.1732 29.1532 20.2863 29.1051 20.3834C28.9075 20.7703 28.7074 21.1542 28.4988 21.5328C28.4254 21.6719 28.3165 21.7694 28.1721 21.8175C28.1269 21.8318 28.0859 21.8712 28.0505 21.9132C27.7237 22.3015 27.3889 22.6871 27.0301 23.0397C26.8536 23.2126 26.6666 23.3859 26.2668 23.707C24.8129 24.8755 24.0601 25.4804 23.3416 25.2668C23.0474 25.1792 22.7244 24.9444 22.6927 24.658C22.6518 24.2889 23.0963 23.8391 23.8423 23.6112C24.3438 23.4535 24.6989 23.2352 24.9193 23.0753C25.2405 22.8422 25.3364 22.691 25.3832 22.5965C25.4795 22.4015 25.5061 22.1793 25.5327 21.9626C25.5648 21.7057 25.6125 21.4561 25.7273 21.2291C25.8767 20.9397 26.0942 20.7326 26.3352 20.5502C26.4838 20.4384 26.6379 20.3327 26.822 20.311C26.9478 20.2954 27.077 20.2941 27.204 20.3041C27.4122 20.3158 27.5912 20.2512 27.7503 20.0991C27.9243 19.9319 28.0138 19.7062 28.1033 19.483C28.2037 19.2222 28.2987 18.9531 28.3806 18.6815C28.6508 17.7859 28.78 16.8665 28.6745 15.9137C28.6293 15.4861 28.5347 15.0754 28.387 14.6759C28.316 14.4818 28.2202 14.2946 28.1396 14.104C28.0412 13.8687 27.9597 13.6235 27.9259 13.3639C27.9209 13.3154 27.9407 13.26 27.9483 13.211C27.9876 13.2344 28.0268 13.2582 28.064 13.2846C28.0691 13.2872 28.0716 13.2929 28.0771 13.2985C28.3663 13.6469 28.5824 14.0481 28.7517 14.4809C28.9383 14.9467 29.0548 15.4341 29.1439 15.9311C29.1722 16.0788 29.2001 16.2235 29.233 16.3708C29.2397 16.4051 29.2592 16.4354 29.2735 16.4662L29.2934 16.4653C29.3115 16.4241 29.3373 16.3851 29.3427 16.3418C29.3655 16.1915 29.3854 16.0411 29.3951 15.8886C29.4204 15.4051 29.3829 14.9254 29.2824 14.4514C29.2148 14.1282 29.13 13.8115 28.9729 13.5247C28.9197 13.4302 28.8547 13.3449 28.78 13.2712C28.7023 13.1924 28.6766 13.0875 28.7504 13.0004C28.7956 12.9432 28.8568 12.8999 28.9155 12.8592C29.0303 12.7812 29.0316 12.7552 28.9206 12.6668C28.8809 12.6347 28.8391 12.6083 28.7948 12.5849C28.7243 12.5485 28.6546 12.5178 28.5866 12.4814C28.5554 12.4632 28.5237 12.4389 28.5018 12.4086C28.1974 11.9632 28.0268 11.4619 28.0125 10.8947C28.0074 10.7487 27.9745 10.6014 27.939 10.4597C27.8698 10.1967 27.7436 9.96276 27.6051 9.73789C27.3564 9.33538 27.0639 8.97577 26.7595 8.62785C26.6033 8.45021 26.4538 8.2574 26.2765 8.10663C25.4178 7.37613 24.4684 6.85447 23.4315 6.54425C22.9891 6.4134 22.7252 6.36184 22.5851 6.34104C22.5061 6.33108 22.4399 6.32328 22.371 6.31851C22.3428 6.31418 22.3149 6.31288 22.2845 6.30898C22.2685 6.24659 22.2524 6.1816 22.2364 6.11921C22.2773 6.12268 22.3204 6.12614 22.3639 6.13221Z" fill="white"/>
<path d="M22.7451 18.0475C22.7633 18.0785 22.7802 18.093 22.7998 18.1008C22.8076 18.1039 22.8154 18.1074 22.8232 18.1104C22.8236 18.0868 22.8241 18.0628 22.8241 18.0392C22.7976 18.0414 22.7711 18.0453 22.7451 18.0475Z" fill="white"/>
<path d="M23.9586 32.5179C23.8627 32.3372 23.7954 32.1685 23.7481 32.0305C23.7263 31.9676 23.6407 31.9628 23.6121 32.0232C23.506 32.2496 23.2836 32.4058 23.0326 32.4135C22.7432 32.423 22.4773 32.2337 22.381 31.9516C22.3699 31.9188 22.3379 31.899 22.3043 31.902C22.1129 31.9175 21.9284 31.8105 21.8496 31.6328C21.7661 31.4452 21.818 31.2196 21.9783 31.0859C21.8509 30.8517 21.7239 30.6175 21.5964 30.3828C21.6028 29.8247 21.6092 29.2661 21.616 28.708C21.6991 21.5652 21.7822 14.4224 21.8658 7.27955C21.8581 7.19501 21.85 7.11047 21.8415 7.02549C21.6216 4.84642 21.0915 2.48791 20.0862 0C19.0455 2.48834 18.4919 4.84944 18.2567 7.0311C18.2477 7.11392 18.2392 7.19716 18.2311 7.27955C18.3108 14.2196 18.3901 21.1597 18.4698 28.0998C18.4783 28.8611 18.4872 29.622 18.4958 30.3833C18.3692 30.6171 18.2426 30.8508 18.1156 31.0846C18.1408 31.1049 18.1736 31.1359 18.203 31.1799C18.2852 31.302 18.3091 31.4922 18.2465 31.6333C18.1676 31.811 17.9831 31.9179 17.7918 31.9024C17.7577 31.8994 17.7261 31.9197 17.7151 31.952C17.6187 32.2341 17.3528 32.4235 17.0635 32.414C16.8125 32.4058 16.59 32.2496 16.4839 32.0236C16.4554 31.9632 16.3697 31.9676 16.348 32.031C16.3007 32.169 16.2333 32.3376 16.1374 32.5184C15.9342 32.9022 15.6861 33.1852 15.4185 33.4233C14.7303 34.0362 13.9112 34.3541 13.3849 35.3298C13.3159 35.4574 13.223 35.6511 13.1424 35.9095C13.1182 35.9871 13.217 36.0423 13.2686 35.9802C13.4881 35.7154 13.8026 35.4001 14.2338 35.1214C14.8641 34.7143 15.465 34.5646 15.8332 34.5042C15.8613 34.4995 15.8839 34.4792 15.892 34.4516C15.9154 34.3705 15.9738 34.1958 16.0884 34.0013C16.2495 33.7278 16.521 33.416 16.9603 33.2728C17.4768 33.105 17.9281 33.2667 18.1092 33.3482C18.1421 33.3629 18.1808 33.3521 18.2004 33.3215C18.3602 33.0718 18.6726 33.0204 18.838 33.1425C18.9922 33.2559 19.0468 33.5402 18.8989 33.7705C18.8802 33.7998 18.8831 33.8382 18.9074 33.8632C19.0485 34.0086 19.3276 34.3472 19.4039 34.8609C19.4623 35.253 19.3788 35.589 19.276 35.8327C19.2053 36.0009 19.1256 36.126 19.077 36.195C19.0579 36.2222 19.0587 36.2584 19.0792 36.2847C19.1256 36.3434 19.1772 36.4163 19.2287 36.5026C19.2812 36.5914 19.3332 36.6949 19.3779 36.8135C19.4819 37.0892 19.5045 37.3329 19.5066 37.4903V39.2242C19.4904 39.4063 19.4388 39.6508 19.2922 39.8975C19.184 40.08 19.0566 40.2081 18.9564 40.2918L18.8056 40.1391L18.2912 40.6597L18.8056 41.1803L19.0071 40.9763L19.0425 41.1644C18.9483 41.3334 18.8942 41.5284 18.8942 41.7363C18.8942 42.2819 19.2645 42.7396 19.7644 42.8668V43.0035H19.8637V43.1373H20.2298V43.0035H20.3291V42.8681C20.8289 42.7413 21.1993 42.2832 21.1993 41.7376C21.1993 41.5297 21.1456 41.3343 21.051 41.1657L21.0863 40.9776L21.2879 41.1816L21.8023 40.661L21.2879 40.1404C21.2376 40.1913 21.1873 40.2422 21.1371 40.2931C21.0373 40.209 20.9099 40.0813 20.8017 39.8988C20.6546 39.6521 20.6031 39.4076 20.5869 39.2255V37.4916C20.589 37.3337 20.6116 37.0905 20.7156 36.8148C20.7586 36.7005 20.8089 36.5996 20.8596 36.5129C20.9125 36.4223 20.9662 36.3473 21.0143 36.2865C21.0348 36.2601 21.0356 36.2239 21.0165 36.1967C20.967 36.1264 20.8852 35.9983 20.8136 35.8254C20.713 35.5821 20.6325 35.2495 20.69 34.8626C20.7663 34.3489 21.0454 34.0103 21.1865 33.865C21.2108 33.84 21.2138 33.8016 21.195 33.7722C21.0476 33.5419 21.1017 33.2577 21.2559 33.1442C21.4213 33.0226 21.7337 33.0739 21.8935 33.3232C21.9131 33.3538 21.9519 33.3646 21.9847 33.35C22.1658 33.2684 22.6171 33.1067 23.1336 33.2745C23.8857 33.519 24.1457 34.2583 24.2019 34.4529C24.21 34.4805 24.2326 34.5007 24.2607 34.5055C24.6289 34.5659 25.2298 34.7155 25.8601 35.1227C26.4597 35.5101 26.7128 36.0479 26.8253 35.9815C26.9059 35.9341 26.824 35.6028 26.709 35.3311C26.0715 33.8227 24.3255 33.2115 23.9586 32.5179ZM20.0482 33.4185L19.3251 32.0676L19.8748 31.0406L20.0482 30.7171L20.2097 31.0186L20.7714 32.0681L20.0482 33.4185Z" fill="white"/>
<path d="M10.5246 6.3656L10.6661 6.24871C10.6946 6.22499 10.7219 6.20213 10.7466 6.17927L10.8088 6.12061L10.3145 6.31945C10.0882 6.41046 9.84317 6.49888 9.58534 6.58213C9.2704 6.68263 8.97081 6.76027 8.66994 6.81807L8.65332 6.82152L8.65843 6.85602C8.66824 6.91598 8.67974 6.97938 8.69295 7.04538C8.70616 7.11223 8.75773 7.34342 8.75773 7.34342L8.81143 7.32315C9.12593 7.20626 9.43277 7.06349 9.72341 6.90002C9.97528 6.75768 10.2007 6.61146 10.3942 6.46524L10.5246 6.3656Z" fill="white"/>
<path d="M3.83013 10.3489C3.83567 10.4127 3.84291 10.4753 3.85186 10.5395L3.87147 10.6689C3.88894 10.7759 3.91025 10.8794 3.93369 10.9816C3.95712 11.086 3.98355 11.1878 4.00997 11.2862C4.09094 11.5812 4.18214 11.8607 4.27035 12.1298L4.37988 12.4689C4.40502 12.5487 4.43017 12.6276 4.45275 12.7044C4.49153 12.8325 4.52733 12.9589 4.55972 13.0835C4.61043 13.2811 4.64751 13.4579 4.6735 13.6266C4.68799 13.7232 4.69993 13.8185 4.70632 13.9099C4.71356 14.004 4.71655 14.0954 4.71612 14.1903C4.71442 14.2817 4.70845 14.3702 4.69865 14.459C4.68842 14.5487 4.67223 14.635 4.6522 14.7239C4.61086 14.8985 4.54992 15.0646 4.47491 15.2113C4.43571 15.2898 4.39011 15.3639 4.34067 15.4377C4.29166 15.5102 4.23797 15.5805 4.18171 15.6439C4.15657 15.6732 4.13057 15.7021 4.10287 15.7314C4.359 15.9186 4.64197 16.1283 4.9292 16.3655C4.96031 16.3909 4.991 16.4173 5.02168 16.4431C5.04597 16.4121 5.07026 16.3802 5.09413 16.3478C5.17126 16.2434 5.24371 16.1308 5.30934 16.0135C5.37838 15.8902 5.43719 15.7694 5.48833 15.643L5.51262 15.5805L5.58166 15.3812L5.61362 15.2673C5.62086 15.2427 5.6264 15.2177 5.64004 15.1612C5.64515 15.1397 5.67413 14.9965 5.67413 14.9965L5.69075 14.8942C5.70993 14.7627 5.72144 14.6328 5.72527 14.5103C5.72911 14.3814 5.72613 14.255 5.7176 14.1329C5.70865 14.0078 5.69374 13.8862 5.67499 13.768C5.65581 13.6477 5.63152 13.5317 5.60552 13.4208C5.56845 13.2655 5.52583 13.1172 5.47938 12.9735C5.45722 12.9041 5.4342 12.8359 5.41034 12.7686L5.36559 12.6431C5.30508 12.4784 5.242 12.3205 5.17979 12.1687L5.02637 11.8016C4.91642 11.5398 4.81286 11.2939 4.72677 11.061C4.65177 10.8591 4.59424 10.6788 4.55077 10.5102C4.51114 10.3562 4.48344 10.2096 4.46767 10.0655L4.46341 10.0254C4.45616 9.94213 4.45318 9.86234 4.45403 9.78341C4.45488 9.70145 4.46213 9.62295 4.47236 9.54531C4.48301 9.46638 4.50006 9.3896 4.5252 9.29773C4.5252 9.29773 4.54821 9.22354 4.5529 9.21146C4.56313 9.17825 4.57591 9.1459 4.58955 9.11355L4.60745 9.07042C4.63941 9.00011 4.67393 8.92851 4.71655 8.85777C4.75703 8.78876 4.80221 8.71845 4.85249 8.64772C4.8998 8.58129 4.95051 8.51573 5.00208 8.45362C5.02807 8.42213 5.05449 8.39151 5.08603 8.35657L5.15677 8.27893L5.22155 8.21595L5.27226 8.17067C5.29101 8.15298 5.31062 8.13616 5.33917 8.1133C5.36133 8.09389 5.38434 8.07577 5.42312 8.04644C5.4504 8.02574 5.4781 8.00547 5.50623 7.98606L5.48833 7.87262C5.47298 7.77169 5.45935 7.67852 5.44784 7.58923C5.37028 7.62633 5.29229 7.66817 5.2109 7.71604C5.19001 7.72855 5.09583 7.78851 5.09583 7.78851L4.97395 7.87348L4.92025 7.91446C4.89852 7.93516 4.87508 7.95414 4.84951 7.97139L4.78558 8.02746C4.75064 8.05895 4.71655 8.09044 4.6816 8.12451C4.61427 8.18964 4.54906 8.25736 4.48642 8.32767C4.42377 8.39841 4.36241 8.47346 4.30189 8.55541C4.24393 8.63262 4.18896 8.71888 4.14336 8.79609L4.12461 8.83017C4.10586 8.86424 4.08668 8.89746 4.07006 8.93326L4.0023 9.08206C3.9584 9.19162 3.92516 9.29083 3.90087 9.38529C3.87274 9.49614 3.85186 9.60354 3.8395 9.70361C3.82629 9.81317 3.81905 9.92229 3.8182 10.0284C3.81777 10.0909 3.81905 10.1531 3.82161 10.2117C3.82331 10.2583 3.82629 10.3062 3.83013 10.3489Z" fill="white"/>
<path d="M4.38305 24.5797C4.38305 24.5797 4.85821 24.6807 5.0291 24.7191C5.39687 24.8006 5.69389 24.8752 5.96322 24.9524C6.05144 24.9779 6.13837 25.0042 6.22062 25.0305L6.33397 25.0671C6.66808 25.1771 6.98471 25.307 7.27534 25.4527C7.59837 25.6154 7.89838 25.8051 8.17111 26.0195L8.22353 26.0609C8.24313 26.0764 8.368 26.183 8.368 26.183L8.46772 26.274L8.54442 26.349C8.66034 26.4646 8.76901 26.5858 8.86872 26.7092C9.05921 26.9469 9.22968 27.2126 9.39034 27.521C9.46491 27.6637 9.53437 27.8143 9.60085 27.9691C9.64049 28.061 9.67841 28.1546 9.71591 28.2503C9.83183 28.24 9.95371 28.2262 10.0854 28.2081C10.2401 28.1874 10.4012 28.1619 10.5784 28.1313C10.9177 28.0718 11.2373 28.0062 11.5309 27.945L11.9323 27.8596C11.8999 27.7767 11.8663 27.6931 11.8313 27.6085C11.7542 27.4222 11.6702 27.2311 11.5773 27.0374C11.4734 26.8205 11.3736 26.6298 11.2722 26.4539C11.0285 26.0307 10.7557 25.6464 10.4617 25.313C10.3002 25.131 10.1276 24.9567 9.94732 24.7937L9.9064 24.757L9.67543 24.5616L9.5169 24.4383L9.3767 24.336C8.98592 24.0583 8.55934 23.8159 8.10847 23.6161C7.70448 23.4367 7.26597 23.2836 6.80061 23.1594L6.74692 23.1447C6.65188 23.1197 6.55643 23.096 6.46054 23.0735C6.14562 22.9989 5.81322 22.9325 5.38238 22.8592C5.21447 22.8307 4.72099 22.7513 4.72099 22.7513C4.50067 22.716 4.28802 22.6806 4.08517 22.6426C3.90278 22.6086 3.72806 22.5723 3.56825 22.5331L3.48941 22.5132C3.39395 22.4882 3.30063 22.4623 3.21454 22.4347L3.17278 22.4214C3.09778 22.3963 3.02619 22.3709 2.95758 22.3433C2.87533 22.3105 2.79862 22.2756 2.73171 22.2419C2.65373 22.2035 2.58469 22.1621 2.51992 22.1203C2.39037 22.0366 2.27914 21.9426 2.1611 21.8149C2.11252 21.7597 2.06521 21.6997 2.01919 21.6342L1.95527 21.5345C1.93055 21.4953 1.91052 21.4582 1.88623 21.4125C1.8483 21.3379 1.80995 21.2555 1.77671 21.1683C1.74475 21.0842 1.71449 20.998 1.69276 20.9177C1.64247 20.7431 1.61008 20.5671 1.5973 20.4075L1.59219 20.3061C1.58835 20.2703 1.58792 20.2362 1.58878 20.1966L1.5892 20.1478C1.58878 20.1219 1.58963 20.0965 1.59133 20.0823L1.5973 19.9913L1.61051 19.8748C1.62244 19.792 1.63864 19.7143 1.65781 19.6389C1.66847 19.5979 1.6804 19.5578 1.69404 19.5185C1.6919 19.5172 1.6902 19.5155 1.68807 19.5138C1.56662 19.4137 1.43877 19.3115 1.30283 19.2024L1.04288 18.9932L0.860056 18.8431C0.860056 18.8431 0.534477 18.5623 0.532772 18.5605C0.499958 18.617 0.467997 18.6748 0.43774 18.7339C0.368277 18.8698 0.309042 19.0078 0.262166 19.1428C0.21401 19.2813 0.1731 19.4258 0.142417 19.5673L0.113439 19.7169L0.0874434 19.8977L0.0763635 19.9921L0.0669882 20.1073C0.0669882 20.1073 0.061022 20.1836 0.0605959 20.2073L0.0559082 20.3941L0.0567605 20.4334C0.0601697 20.7129 0.0925573 20.998 0.154775 21.2857C0.183754 21.4241 0.221255 21.5596 0.261313 21.6868L0.293701 21.7856L0.332481 21.8934C0.357197 21.9598 0.384045 22.0267 0.412597 22.0923C0.441149 22.1574 0.472258 22.2251 0.506777 22.2911L0.535329 22.3467L0.612462 22.4861C0.690874 22.6185 0.776105 22.7457 0.864744 22.8605C0.958498 22.9808 1.06077 23.0964 1.16987 23.2047C1.26959 23.3039 1.3838 23.4035 1.50909 23.4988C1.62926 23.5903 1.75157 23.6726 1.87302 23.7447C1.99831 23.8189 2.12445 23.8853 2.24846 23.9435C2.37545 24.0035 2.50074 24.0557 2.62688 24.1044L2.68399 24.1264C2.78882 24.1652 2.89152 24.1993 3.00914 24.2373C3.21582 24.3028 3.4306 24.3615 3.70419 24.4279C3.93943 24.4831 4.16614 24.5327 4.38305 24.5797Z" fill="white"/>
<path d="M14.2241 33.2469C14.2799 33.2068 14.3349 33.1676 14.3886 33.1288C14.2795 32.9998 14.1759 32.8687 14.0745 32.7319L13.3053 32.8851C13.0777 32.9308 12.819 32.9821 12.5292 33.0373C12.2471 33.0912 11.9143 33.1529 11.5439 33.2116C11.659 33.4221 11.7809 33.6274 11.907 33.8241C12.1312 34.1734 12.3814 34.5125 12.6507 34.8334C13.1033 34.0492 13.6956 33.6252 14.2241 33.2469Z" fill="white"/>
<path d="M18.608 37.5291C18.6059 37.4005 18.582 37.2742 18.536 37.1534C18.4959 37.0468 18.4397 36.9476 18.3681 36.8566C18.1631 36.5948 18.1136 36.2454 18.2215 35.9422L17.9739 35.8193C17.9739 35.8193 17.7459 35.7028 17.7041 35.68L17.353 35.4897C17.353 35.4897 17.1352 35.3651 17.0986 35.3435L16.8897 35.2184C16.7956 35.1606 16.7014 35.102 16.6081 35.0412L16.5983 35.0804H16.4926C16.4921 35.0808 16.4525 35.1244 16.4525 35.1244C16.4227 35.155 16.3916 35.1826 16.3566 35.2102C16.3294 35.2318 16.3004 35.2517 16.2761 35.2668L16.2339 35.2918C16.2339 35.2918 16.1776 35.3202 16.1785 35.3198L16.144 35.3358L16.0455 35.3698C16.0093 35.3806 15.9727 35.3888 15.936 35.3949C15.8776 35.4043 15.8192 35.4156 15.7604 35.4289L15.6731 35.4496L15.5682 35.4777L15.3961 35.5316C15.2329 35.5872 15.0735 35.6558 14.9226 35.7352L14.8463 35.7762L14.7351 35.8413L14.6098 35.9215C14.5762 35.9439 14.4781 36.0147 14.4781 36.0147C14.3835 36.0854 14.2928 36.1609 14.2088 36.2381L14.1692 36.2748C14.1845 36.286 14.1999 36.2981 14.2152 36.3093C14.4747 36.5012 14.7496 36.6824 15.0313 36.8467C15.2968 37.0016 15.5763 37.1452 15.8602 37.2733L16.1197 37.3863C16.1687 37.4066 16.2177 37.4273 16.2744 37.4488L16.4725 37.5252L16.7257 37.6149L16.9264 37.6792C16.9771 37.6951 17.0274 37.7115 17.0798 37.7258L17.2831 37.7836L17.5801 37.8586L17.8695 37.922L17.9551 37.9388C17.9551 37.9388 18.1857 37.9811 18.2351 37.9889C18.3578 38.0091 18.4823 38.0264 18.608 38.0415V37.5291Z" fill="white"/>
<path d="M6.45536 11.6886L6.52525 11.6519C6.56445 11.6308 6.60323 11.6097 6.65054 11.5808C6.74301 11.5264 6.83464 11.4643 6.91688 11.4026L6.99572 11.3414L7.05922 11.2879C7.09757 11.2564 7.13422 11.2215 7.17513 11.1827C7.26633 11.0934 7.34048 11.0127 7.4061 10.9295C7.47131 10.8492 7.53438 10.76 7.59446 10.6642L7.63836 10.5909L7.68566 10.5046L7.75683 10.3584C7.79902 10.2657 7.83822 10.16 7.87402 10.0409C7.89064 9.98701 7.90342 9.9331 7.91365 9.89126C7.92558 9.83691 7.93709 9.78256 7.94604 9.72563C7.96351 9.61823 7.97544 9.51169 7.98056 9.40731C7.9861 9.3012 7.98652 9.19768 7.98311 9.09934C7.97885 8.99711 7.97076 8.8979 7.96053 8.80301C7.94987 8.7051 7.93581 8.61064 7.92175 8.52222C7.90172 8.40058 7.87913 8.28412 7.85527 8.17112L7.81691 7.99255L7.70313 7.49479C7.68481 7.41327 7.66819 7.33434 7.65285 7.25799C7.63665 7.17819 7.62259 7.10142 7.61151 7.03154L7.59489 6.92199L7.57529 6.74859C7.57017 6.69338 7.56676 6.6399 7.56549 6.58857C7.56378 6.51567 7.56378 6.44537 7.56804 6.38627C7.5706 6.3453 7.57443 6.30562 7.57912 6.26507L7.59105 6.18527C7.60213 6.12489 7.6162 6.06752 7.63367 6.00757C7.65199 5.94847 7.67415 5.89197 7.70398 5.82511C7.72998 5.77077 7.75981 5.71642 7.79561 5.65948L7.85527 5.57149L7.87785 5.54518L7.90257 5.51197L7.93879 5.46884L7.98056 5.42312L7.99803 5.40931C8.03255 5.36834 8.06493 5.34116 8.10627 5.30709L8.16593 5.2605L8.19065 5.24325C8.29463 5.17122 8.40969 5.11213 8.54265 5.06296C8.66155 5.01853 8.79749 4.98057 8.94835 4.95038C9.08216 4.92407 9.22577 4.90207 9.37535 4.88309C9.50618 4.86627 9.64255 4.85204 9.81343 4.83392L10.2536 4.78604C10.5596 4.7511 10.8481 4.70668 11.1115 4.65449C11.3936 4.59841 11.6668 4.52811 11.9318 4.44314C11.9825 4.42804 12.032 4.41035 12.0814 4.3931L12.2054 4.34954L12.4965 4.23437C12.5387 4.21755 12.5796 4.199 12.6205 4.18046L12.6704 4.15846C12.8983 4.05408 13.1246 3.93503 13.3432 3.80434C13.7306 3.57314 14.1052 3.2958 14.4564 2.9805C14.5101 2.93219 14.562 2.88388 14.6128 2.83643C14.5556 2.87784 14.4973 2.91925 14.438 2.96066C14.0511 3.22937 13.6518 3.45884 13.2521 3.64173C13.0305 3.74309 12.8012 3.83453 12.5608 3.91562L12.2911 3.99973L12.1198 4.04717L11.9736 4.08298C11.9233 4.09505 11.8726 4.10756 11.8317 4.11533C11.5824 4.16967 11.3173 4.21151 11.0446 4.23955C10.788 4.26629 10.5162 4.28311 10.2127 4.29131L9.77423 4.3008C9.63232 4.30338 9.487 4.3064 9.33529 4.31287C9.18571 4.31934 9.02974 4.32883 8.86567 4.34781C8.68584 4.36895 8.5239 4.39914 8.37219 4.44055C8.19022 4.49058 8.02147 4.55873 7.87828 4.6381L7.79007 4.68856L7.64432 4.7882C7.64432 4.7882 7.551 4.86196 7.52926 4.88007C7.48878 4.91673 7.44829 4.95426 7.42187 4.97928C7.38991 5.01206 7.3588 5.0457 7.30894 5.09962C7.29658 5.11256 7.22883 5.19581 7.22883 5.19581C7.17002 5.27172 7.11419 5.35238 7.06561 5.43433C7.01362 5.52362 6.96887 5.61376 6.93265 5.70003C6.8943 5.79363 6.86191 5.88938 6.83634 5.98298C6.81034 6.08089 6.79117 6.1788 6.7771 6.27585C6.76688 6.34444 6.76006 6.41172 6.75537 6.47815L6.75026 6.56398C6.74642 6.64809 6.746 6.73004 6.7477 6.80898L6.75409 6.96339L6.76602 7.126C6.77412 7.21788 6.78435 7.30716 6.79628 7.39645C6.80736 7.48573 6.82015 7.57286 6.83336 7.65611L6.89046 8.01541C6.89046 8.01541 6.93862 8.32553 6.94884 8.40058C6.96078 8.48987 6.97143 8.5757 6.9791 8.66024C6.98677 8.74176 6.99274 8.82113 6.99572 8.89532C6.99913 8.97425 6.99956 9.04973 6.99742 9.1278C6.99444 9.20285 6.9889 9.27402 6.98081 9.33959C6.97186 9.41464 6.95822 9.48279 6.94458 9.53886C6.93862 9.56517 6.9318 9.59019 6.92072 9.62815L6.90836 9.66697C6.90836 9.66697 6.8862 9.7308 6.8781 9.74935C6.85381 9.80887 6.82739 9.86538 6.79628 9.91972L6.78264 9.94474L6.72256 10.0401L6.68932 10.0875C6.64969 10.1406 6.60537 10.1941 6.5734 10.226C6.52951 10.2751 6.4805 10.3187 6.42979 10.3627L6.39527 10.3903C6.37354 10.408 6.35095 10.4248 6.33732 10.4339L6.25464 10.4899C6.19924 10.5244 6.14171 10.5581 6.09526 10.5805C6.07481 10.5913 6.0535 10.6017 6.01855 10.618C6.09441 10.8203 6.18561 11.036 6.28106 11.2633C6.32879 11.3841 6.44854 11.6718 6.45536 11.6886Z" fill="white"/>
<path d="M0.101424 15.5235C0.10739 15.5503 0.147022 15.6874 0.147022 15.6874L0.182393 15.7944L0.213502 15.8794C0.231826 15.9294 0.252708 15.9782 0.278277 16.0381L0.295749 16.0756C0.316631 16.1205 0.337512 16.1658 0.363934 16.2162C0.420186 16.3267 0.482404 16.4315 0.548883 16.5337C0.614511 16.6359 0.684826 16.73 0.752584 16.8167L0.807131 16.8848L0.975035 17.0789L1.06453 17.1738C1.1114 17.223 1.15871 17.27 1.20473 17.3148C1.28272 17.3903 1.36028 17.4632 1.43741 17.5322L1.66711 17.7311L2.11883 18.0994C2.26841 18.2189 2.41031 18.3328 2.54455 18.4432C2.65748 18.5359 2.76402 18.6269 2.86459 18.7158L2.93491 18.7792C3.01289 18.8491 3.08619 18.9194 3.1548 18.9871C3.2004 19.0315 3.24387 19.0773 3.2835 19.1191C3.3389 19.1769 3.39046 19.2356 3.44586 19.2994C3.4953 19.3585 3.54388 19.4176 3.58564 19.4736C3.67726 19.594 3.75951 19.7169 3.83025 19.839C3.90142 19.9623 3.96491 20.0913 4.01818 20.2198C4.07103 20.3471 4.1162 20.4808 4.15242 20.6175C4.18779 20.7512 4.21251 20.8832 4.2287 21.0208C4.23808 21.1036 4.24447 21.1873 4.24703 21.2723C4.2743 21.2775 4.30243 21.2826 4.33098 21.2882C4.53553 21.3258 4.75074 21.3611 4.93441 21.3909C4.93441 21.3909 5.42321 21.4698 5.60645 21.5009C5.76626 21.5281 5.95419 21.5608 6.16173 21.6014C6.16258 21.5311 6.16173 21.4616 6.1596 21.3926C6.15363 21.1679 6.1319 20.9432 6.09567 20.7236C6.05902 20.5019 6.00575 20.2798 5.92947 20.0365L5.85873 19.8308L5.79097 19.6587L5.73046 19.5181L5.69168 19.4353C5.59665 19.233 5.48713 19.0354 5.36568 18.8478C5.24891 18.6666 5.11638 18.4876 4.96978 18.3129C4.89947 18.2284 4.82702 18.1477 4.75798 18.0735L4.6996 18.0123C4.64463 17.9554 4.58923 17.8993 4.51976 17.8329L4.45243 17.769C4.32544 17.6491 4.19632 17.537 4.06762 17.4304C3.77144 17.185 3.48038 16.9732 3.19869 16.7683L2.92255 16.5661L2.76445 16.4479L2.51685 16.2542C2.45506 16.2046 2.39838 16.1563 2.32934 16.0963C2.26968 16.0437 2.21428 15.992 2.16059 15.9398L2.10902 15.888L2.00632 15.7772C1.95902 15.7219 1.91427 15.6685 1.88103 15.6223C1.83884 15.5654 1.80134 15.5097 1.7843 15.4787C1.76938 15.4558 1.75617 15.433 1.74083 15.4049L1.71952 15.3657C1.71952 15.3657 1.68628 15.2992 1.68373 15.291C1.67307 15.2686 1.66284 15.2458 1.6573 15.2298C1.64835 15.2095 1.64068 15.1888 1.63301 15.1664C1.62364 15.1409 1.61469 15.1151 1.60787 15.09L1.58784 15.0193L1.56355 14.9089C1.55332 14.8485 1.54352 14.7868 1.53841 14.7161L1.53542 14.6846L1.52988 14.5164C1.53031 14.4478 1.53457 14.3779 1.54096 14.3033C1.55545 14.1614 1.58145 14.0242 1.61895 13.8935C1.65688 13.7633 1.70802 13.6373 1.77279 13.5135C1.83842 13.3923 1.90916 13.288 1.99354 13.1896C2.08516 13.0857 2.18147 12.9981 2.28119 12.9274C2.3873 12.8493 2.51003 12.7781 2.66345 12.7069C2.73078 12.6768 2.80067 12.6466 2.868 12.6224C2.90508 12.6082 2.94386 12.5944 2.98349 12.5814L2.97667 12.5603C2.88249 12.2717 2.78533 11.9733 2.69711 11.6519C2.65961 11.5126 2.63063 11.3979 2.60592 11.2879C2.60507 11.2836 2.60379 11.2793 2.60293 11.2745C2.55478 11.2874 2.5062 11.3017 2.45591 11.3176C2.35534 11.3483 2.25264 11.3841 2.15292 11.4229C1.92365 11.5126 1.72378 11.6118 1.53883 11.7287C1.34195 11.8503 1.14805 12.0052 0.978444 12.1751C0.812245 12.3425 0.660961 12.5348 0.530133 12.7466C0.406549 12.9476 0.301715 13.1655 0.219894 13.3928C0.141908 13.6102 0.0830996 13.8418 0.0451721 14.0786C0.0268476 14.1955 0.0136369 14.3132 0.00639227 14.4258L0 14.6065L0.00127845 14.7898C0.00383536 14.9089 0.0149153 15.031 0.028126 15.1405L0.0434675 15.2423L0.0754288 15.4148L0.101424 15.5235Z" fill="white"/>
<path d="M13.0539 31.5323L14.3686 31.2718C14.8421 31.1795 15.2989 31.095 15.7417 31.0212C15.9011 30.9945 16.0587 30.9694 16.2126 30.9466L16.6673 30.8806C16.7278 30.8711 16.7879 30.8633 16.848 30.8556L17.1339 30.818L17.2626 30.8029L17.5937 30.1922L17.575 28.5816C17.549 28.5807 17.523 28.5799 17.497 28.579C17.3551 28.5747 17.2111 28.573 17.0657 28.573C16.545 28.573 15.9999 28.5997 15.4459 28.6528C14.788 28.7166 14.0639 28.8266 13.293 28.9801L12.826 29.0759L11.8083 29.292C11.4968 29.3576 11.161 29.4261 10.8107 29.4874C10.6317 29.5189 10.4489 29.5478 10.2639 29.5728C10.076 29.5982 9.88593 29.6194 9.70013 29.6323C9.64303 29.6366 9.58592 29.6401 9.52797 29.6435C9.42058 29.6487 9.31361 29.6513 9.20708 29.6513L9.10949 29.6504C8.91005 29.647 8.71743 29.6327 8.53674 29.6082C8.12593 29.5525 7.7458 29.4408 7.38613 29.2726C7.3644 29.2631 7.24252 29.2036 7.23101 29.1967L7.06822 29.1095C7.06822 29.1095 6.86836 28.9957 6.83 28.9724C6.8023 28.9556 6.68724 28.884 6.68724 28.884L6.47033 28.7343C6.38041 28.6657 6.29135 28.5967 6.21379 28.5268C6.04162 28.3754 5.88735 28.2102 5.75738 28.039L5.73053 28.0049L5.66277 27.907L5.61419 27.8332L5.58308 27.7819C5.56305 27.753 5.54601 27.7228 5.51319 27.6642C5.4987 27.6387 5.43904 27.5205 5.43904 27.5205L5.40836 27.4545C5.31588 27.2445 5.25494 27.0379 5.22171 26.8226C5.1906 26.6186 5.1842 26.4051 5.20125 26.1726C5.05934 26.1373 4.90507 26.1015 4.73674 26.0639C4.5829 26.0299 4.10135 25.9263 4.10135 25.9263C3.87975 25.8793 3.63983 25.8267 3.38755 25.7659C3.30488 25.7456 3.22604 25.7262 3.15061 25.7068C3.14422 25.7486 3.13782 25.79 3.13228 25.8319C3.10416 26.0424 3.08754 26.2481 3.08328 26.4448C3.07859 26.6583 3.08711 26.8701 3.10927 27.0741C3.13143 27.2816 3.16893 27.4908 3.2205 27.6965C3.27036 27.8945 3.33471 28.0942 3.40843 28.2805L3.46852 28.4268L3.53755 28.5777C3.55119 28.6092 3.56696 28.639 3.58187 28.6692L3.63898 28.7817L3.78344 29.0375L3.93899 29.2795L3.97479 29.3308C4.18573 29.6332 4.43332 29.92 4.71629 30.1887C4.767 30.2388 4.81942 30.2841 4.87183 30.3302C4.87183 30.3302 4.96601 30.4122 5.00991 30.4484L5.13307 30.548L5.26858 30.652L5.42668 30.7663L5.54089 30.8439L5.74374 30.975L6.03779 31.1528L6.2564 31.2744L6.47885 31.3887L6.63994 31.4646L6.81764 31.5409C6.9685 31.6039 7.12106 31.6591 7.27235 31.7087C7.42491 31.7588 7.57747 31.8006 7.7262 31.8373C7.87833 31.8735 8.02877 31.9046 8.17579 31.9291C8.46003 31.9766 8.74939 32.0068 9.03704 32.0189C9.1602 32.0245 9.2808 32.0266 9.39842 32.0266C9.54629 32.0266 9.68948 32.0227 9.82755 32.0167C9.95454 32.0107 10.0777 32.0029 10.1996 31.993C10.3172 31.9835 10.4314 31.9727 10.5678 31.9576C10.7855 31.933 10.9905 31.905 11.1848 31.8757C11.594 31.8135 11.9549 31.7471 12.2758 31.6859C12.5669 31.6294 12.8255 31.5776 13.0539 31.5323Z" fill="white"/>
<path d="M29.6865 6.31983L29.5936 6.28403L29.1904 6.12056L29.2518 6.17836C29.2765 6.20079 29.3029 6.22278 29.3554 6.26678L29.476 6.36642C29.4951 6.38195 29.6064 6.46519 29.6064 6.46519C29.7994 6.61098 30.0253 6.7572 30.2759 6.89911C30.5674 7.06345 30.8746 7.20578 31.1887 7.32268L31.2415 7.34252C31.2415 7.34252 31.2931 7.11089 31.3068 7.04404C31.32 6.97847 31.3315 6.91464 31.3421 6.85166L31.3464 6.82104L31.3302 6.81802C31.0285 6.76022 30.7289 6.68301 30.4139 6.58165C30.1574 6.49884 29.9115 6.41084 29.6865 6.31983Z" fill="white"/>
<path d="M34.3076 14.8873L34.3221 14.9814L34.3447 15.0957L34.3694 15.2035L34.4124 15.3627C34.4124 15.3627 34.4648 15.5205 34.4734 15.5442L34.516 15.6542C34.5616 15.7677 34.62 15.8884 34.6899 16.0131C34.7546 16.1291 34.8271 16.2413 34.9055 16.3478C34.9289 16.3797 34.9528 16.4112 34.9771 16.4418C35.0074 16.416 35.0385 16.3901 35.0691 16.3651C35.3568 16.127 35.6389 15.9178 35.8955 15.7301C35.8695 15.7025 35.8443 15.6749 35.8209 15.6473C35.7608 15.5787 35.7075 15.5089 35.6581 15.4364C35.6087 15.3631 35.5626 15.2885 35.5268 15.216C35.4489 15.0637 35.3883 14.8981 35.3462 14.7195C35.3265 14.6346 35.3108 14.5483 35.3001 14.4556C35.2907 14.3693 35.2852 14.2809 35.2835 14.1851C35.2827 14.0954 35.2861 14.0031 35.2929 13.9104C35.2993 13.8176 35.3112 13.7223 35.3265 13.624C35.3517 13.4575 35.3892 13.2806 35.4399 13.0839C35.4719 12.9597 35.5081 12.8333 35.5464 12.7039C35.5703 12.6259 35.5946 12.5469 35.6197 12.4693L35.7306 12.126C35.8179 11.8577 35.9091 11.5795 35.9892 11.287C36.0165 11.1865 36.0425 11.0847 36.0664 10.9808C36.0898 10.879 36.1107 10.7759 36.1282 10.6698C36.1354 10.6267 36.1418 10.5831 36.1478 10.5378C36.1563 10.4757 36.164 10.4127 36.1695 10.3519C36.1738 10.3049 36.1763 10.2579 36.1789 10.2139C36.1814 10.1518 36.1831 10.0888 36.1831 10.0284C36.1819 9.92014 36.1746 9.81058 36.1614 9.70232C36.149 9.60139 36.1282 9.49442 36.1 9.38357C36.0757 9.28867 36.0425 9.18904 36.0037 9.09156L35.9637 8.99925L35.93 8.93024C35.9142 8.89616 35.8963 8.86424 35.8784 8.83189L35.8652 8.80688C35.8124 8.71673 35.7574 8.6309 35.6977 8.55153C35.6381 8.47087 35.5767 8.39582 35.5158 8.32724C35.4518 8.25564 35.3862 8.18749 35.3197 8.12279C35.2856 8.08958 35.2507 8.05766 35.2166 8.02747L35.1535 7.97182L35.0299 7.89634L35.0154 7.86313L34.9707 7.83121L34.8522 7.75185C34.8313 7.73804 34.8096 7.7251 34.7755 7.70526C34.7035 7.66256 34.6289 7.62288 34.5526 7.58665C34.5411 7.67636 34.5275 7.7691 34.5122 7.87219L34.4943 7.98347C34.5266 8.00633 34.5599 8.03048 34.594 8.05636C34.6174 8.07405 34.6409 8.0926 34.666 8.11459C34.6877 8.13142 34.7082 8.1491 34.7346 8.17369L34.7857 8.22027L34.842 8.27505L34.9196 8.35959C34.9464 8.38978 34.9728 8.42084 34.9976 8.4506C35.0495 8.51357 35.0998 8.5787 35.1501 8.64815C35.1978 8.7163 35.2422 8.78531 35.2818 8.85174C35.3257 8.92549 35.3602 8.99666 35.3918 9.06654L35.4118 9.11442C35.4246 9.1459 35.4369 9.17739 35.4437 9.19982L35.4582 9.24036L35.4783 9.30938C35.4991 9.38615 35.5162 9.4625 35.5277 9.54488C35.5375 9.62123 35.5443 9.69844 35.546 9.78513C35.5469 9.86148 35.5439 9.94041 35.5366 10.0228L35.5315 10.072C35.517 10.2061 35.4898 10.3484 35.4493 10.5076C35.4062 10.675 35.3487 10.8553 35.2737 11.0584C35.188 11.2905 35.0853 11.535 34.9758 11.7947L34.8207 12.1669C34.758 12.3192 34.6954 12.4766 34.6353 12.6397L34.5893 12.7678C34.5658 12.8351 34.5428 12.9036 34.5207 12.9718C34.4751 13.115 34.4325 13.2642 34.3958 13.4165C34.3694 13.5295 34.3447 13.6451 34.3259 13.7667C34.3067 13.8854 34.2923 14.007 34.2833 14.1295C34.2748 14.2537 34.2722 14.3805 34.2756 14.5069C34.2778 14.6315 34.2897 14.7614 34.3076 14.8873Z" fill="white"/>
<path d="M39.9212 19.9637L39.8875 19.7218L39.8577 19.5695C39.8266 19.4259 39.7861 19.2818 39.7375 19.1412C39.6907 19.007 39.6314 18.869 39.5615 18.7319C39.5313 18.6732 39.5002 18.6154 39.4669 18.5593C39.4661 18.5602 39.3681 18.6469 39.3681 18.6469L39.1375 18.8436L38.696 19.202C38.5609 19.3098 38.4331 19.4125 38.3112 19.513C38.3095 19.5147 38.3074 19.516 38.3057 19.5177C38.3189 19.557 38.3312 19.5967 38.3419 19.6376C38.3611 19.7127 38.3768 19.7903 38.3913 19.8883L38.3977 19.9439L38.4105 20.1151L38.4114 20.2549L38.4037 20.3938C38.3901 20.5659 38.3577 20.7419 38.3095 20.9088C38.2861 20.9963 38.255 21.0826 38.223 21.168C38.1898 21.2538 38.1514 21.3367 38.1114 21.416C38.0896 21.4579 38.0692 21.4945 38.0329 21.5536L37.9797 21.6351C37.9336 21.7003 37.8872 21.7602 37.8301 21.8236C37.7206 21.9418 37.6093 22.0363 37.4802 22.12C37.4154 22.1618 37.346 22.2032 37.2714 22.2403C37.2007 22.2757 37.124 22.3106 37.0417 22.3438C36.974 22.371 36.9019 22.3969 36.8265 22.4219L36.7847 22.4357C36.6987 22.4629 36.6058 22.4892 36.5107 22.5138L36.4353 22.5327C36.2721 22.5728 36.0969 22.6091 35.9154 22.6432C35.7121 22.6811 35.4995 22.7165 35.2796 22.7518C35.2796 22.7518 34.7869 22.8316 34.6178 22.8597C34.1865 22.933 33.8541 22.999 33.5379 23.0741C33.4433 23.096 33.3483 23.1202 33.2515 23.1452L33.1944 23.1603C32.7337 23.2837 32.2952 23.4368 31.8908 23.6162C31.4399 23.8159 31.0129 24.0579 30.6268 24.3327L30.5301 24.403L30.3337 24.5535L30.1871 24.6751L30.052 24.7938C29.873 24.9555 29.7 25.1302 29.5389 25.3114C29.244 25.6465 28.9708 26.0304 28.7279 26.4535C28.6248 26.6321 28.5251 26.8223 28.4228 27.0362C28.3299 27.2303 28.2455 27.4214 28.1688 27.6069C28.1339 27.6919 28.1006 27.7755 28.0674 27.8584L28.468 27.9433C28.7629 28.0054 29.0825 28.0706 29.4204 28.1301C29.5985 28.1607 29.7601 28.1862 29.9147 28.2069C30.046 28.225 30.1679 28.2388 30.2834 28.2491C30.3204 28.1538 30.3588 28.0598 30.3984 27.9679C30.4649 27.8131 30.5344 27.6625 30.6085 27.5206C30.7688 27.2131 30.9392 26.9474 31.131 26.7071C31.2303 26.5838 31.3394 26.463 31.4583 26.344L31.5103 26.2926L31.6424 26.171L31.7152 26.1089C31.734 26.0916 31.7544 26.0752 31.7834 26.0528L31.8307 26.0153C32.0996 25.8035 32.4001 25.6133 32.7239 25.4507C33.0129 25.3057 33.3295 25.1759 33.6628 25.0659L33.7753 25.0297C33.8605 25.0025 33.9474 24.9762 34.0352 24.9512C34.3054 24.8736 34.602 24.7994 34.9698 24.7178C35.1411 24.6799 35.6158 24.5785 35.6158 24.5785C35.8336 24.5315 36.0603 24.4815 36.2942 24.4254C36.5704 24.3581 36.7847 24.2995 37.0059 24.2296C37.1073 24.1972 37.2105 24.1623 37.3183 24.1222L37.3745 24.1006C37.4981 24.0527 37.6238 24.001 37.75 23.941C37.8748 23.8824 38.001 23.8159 38.1263 23.7417C38.2486 23.6693 38.3709 23.5869 38.4893 23.4963C38.6159 23.4001 38.7301 23.3009 38.8303 23.2013C38.9398 23.0926 39.0421 22.9774 39.1328 22.8601C39.2232 22.7428 39.3084 22.616 39.3809 22.4935L39.4426 22.3831L39.4929 22.2869C39.5257 22.223 39.5573 22.1558 39.5854 22.0902C39.6144 22.0229 39.6417 21.956 39.6642 21.8957L39.7005 21.796L39.7354 21.6912C39.7776 21.5562 39.8151 21.4208 39.8449 21.2793C39.9063 20.9955 39.9391 20.7095 39.9425 20.43L39.9383 20.1962C39.9383 20.1781 39.9212 19.9637 39.9212 19.9637Z" fill="white"/>
<path d="M26.6951 32.8851L25.9263 32.7319C25.8735 32.8031 25.8189 32.8734 25.7627 32.9441C26.3384 33.385 26.9849 33.9595 27.3949 34.7786C27.648 34.4732 27.882 34.1527 28.093 33.8245C28.2182 33.6287 28.3401 33.4229 28.456 33.2116C28.0861 33.1529 27.7533 33.0912 27.4716 33.0373C27.181 32.9821 26.9223 32.9308 26.6951 32.8851Z" fill="white"/>
<path d="M24.0628 35.3944C23.8114 35.3535 23.5907 35.209 23.4471 35.0037C23.3354 35.077 23.2229 35.1482 23.1108 35.2167L23.0252 35.2694C23.0252 35.2694 22.8279 35.3858 22.7963 35.4035L22.4409 35.6023C22.4409 35.6023 22.2095 35.7253 22.1754 35.7421L21.7987 35.9314C21.9121 36.2386 21.863 36.5931 21.6555 36.8562C21.6236 36.8968 21.5941 36.9395 21.5682 36.9848C21.5366 37.0382 21.5098 37.0952 21.488 37.1521C21.442 37.2746 21.4181 37.4014 21.416 37.5213V38.0385C21.5336 38.0238 21.6517 38.007 21.7693 37.9876C21.8145 37.9811 21.8601 37.9729 21.9052 37.9643L22.065 37.9345L22.4145 37.8599L22.709 37.7857L22.9208 37.7253C22.9689 37.7124 23.0175 37.6964 23.0665 37.6809L23.2566 37.6205L23.5157 37.5291L23.7309 37.4458C23.7812 37.4269 23.8314 37.4057 23.8813 37.385L24.137 37.2737C24.4204 37.1456 24.6999 37.0016 24.9663 36.8467C25.2475 36.6828 25.5224 36.5021 25.7824 36.3097C25.7977 36.2985 25.813 36.2864 25.8284 36.2752C25.6758 36.1303 25.5109 36 25.3345 35.8862C24.9531 35.6386 24.5129 35.4686 24.0628 35.3944Z" fill="white"/>
<path d="M26.657 3.80516C26.8761 3.93585 27.1023 4.0549 27.3239 4.15626L27.381 4.18171C27.4215 4.19982 27.462 4.21837 27.5072 4.23649L27.5937 4.27272L27.7931 4.34993L27.9184 4.39435C27.9679 4.41161 28.0177 4.42929 28.0765 4.44698C28.3326 4.52936 28.6058 4.59967 28.8879 4.65574C29.1513 4.70836 29.4398 4.75236 29.7475 4.78773L30.2213 4.83949C30.3586 4.85372 30.4941 4.86838 30.6245 4.88478C30.7736 4.90375 30.9177 4.92575 31.0528 4.95249C31.2019 4.98269 31.3379 5.02021 31.4568 5.06464C31.5893 5.11424 31.7044 5.17333 31.8079 5.24494L31.888 5.30403L32.0103 5.41617L32.0828 5.49597L32.1211 5.54643C32.1433 5.57188 32.1633 5.59992 32.1808 5.62623L32.2042 5.6616C32.2396 5.71767 32.2699 5.77288 32.3001 5.83672C32.3253 5.89366 32.3478 5.94973 32.3666 6.01356C32.3832 6.06964 32.3968 6.12744 32.4088 6.19386C32.413 6.21758 32.4165 6.24217 32.4199 6.26934C32.4241 6.30644 32.4275 6.34526 32.4305 6.38365C32.4348 6.44748 32.4348 6.51693 32.4331 6.59413C32.4318 6.64244 32.4284 6.69377 32.4228 6.75631L32.4058 6.90814L32.3875 7.02978C32.3755 7.10353 32.3615 7.18031 32.3453 7.26011C32.3299 7.33645 32.3133 7.41495 32.2941 7.4982L32.142 8.1728C32.1186 8.28451 32.096 8.4014 32.076 8.52174C32.0615 8.61232 32.0474 8.70592 32.0372 8.8047C32.0265 8.90088 32.0189 9.00009 32.0146 9.098C32.0112 9.1985 32.0116 9.30288 32.0167 9.40985C32.0223 9.51337 32.0338 9.61991 32.0517 9.73076C32.0602 9.78511 32.0721 9.83946 32.0802 9.87957C32.0939 9.93478 32.1071 9.98999 32.1241 10.0456C32.1599 10.1651 32.1978 10.2678 32.2451 10.3709L32.2843 10.4537L32.3508 10.5792L32.3986 10.659C32.4616 10.7608 32.5243 10.8496 32.595 10.9363C32.6564 11.0135 32.7305 11.0946 32.8345 11.1964C32.8682 11.2279 32.901 11.2594 32.9398 11.2909L33.0727 11.3983C33.1618 11.4651 33.2538 11.5277 33.354 11.5863C33.3923 11.6096 33.4307 11.6303 33.4963 11.6661L33.5415 11.689C33.5483 11.6722 33.6676 11.3845 33.723 11.2534C33.8172 11.0299 33.9063 10.8181 33.9817 10.6176C33.9817 10.6176 33.9289 10.593 33.9242 10.59C33.859 10.5585 33.8014 10.5244 33.7192 10.4726L33.6744 10.442C33.6489 10.4252 33.625 10.4071 33.6024 10.3885L33.5709 10.3631C33.5202 10.32 33.4716 10.276 33.4401 10.2406C33.3936 10.1927 33.3493 10.1392 33.2922 10.0625L33.2351 9.97576L33.195 9.90717C33.1665 9.85585 33.143 9.80323 33.1247 9.75707C33.1141 9.73162 33.1047 9.70531 33.091 9.66606C33.091 9.66606 33.0608 9.5647 33.0574 9.54788C33.0416 9.48318 33.028 9.4146 33.0186 9.33998C33.0109 9.27355 33.0054 9.20281 33.002 9.12216C32.9999 9.05012 33.0003 8.97421 33.0037 8.89786C33.0062 8.82195 33.0122 8.74172 33.0203 8.65804C33.028 8.57566 33.0386 8.49026 33.0506 8.39968C33.0612 8.32506 33.0723 8.24828 33.0851 8.16504L33.1656 7.65822C33.1784 7.57325 33.1916 7.48569 33.2031 7.39425C33.2146 7.30712 33.2249 7.2174 33.2334 7.12467L33.2449 6.96594L33.2513 6.8098C33.253 6.73 33.253 6.64805 33.2491 6.56782L33.2432 6.47638C33.2389 6.41082 33.2321 6.34483 33.2215 6.27495C33.2074 6.17876 33.1882 6.08128 33.1626 5.9851C33.1366 5.88891 33.1043 5.79315 33.0668 5.70214C33.0301 5.61415 32.9849 5.52444 32.9351 5.4386C32.8839 5.35277 32.8285 5.27168 32.7702 5.19663L32.6879 5.09785C32.6879 5.09785 32.6065 5.00943 32.5895 4.99175C32.5494 4.95422 32.5094 4.91626 32.4787 4.88823C32.445 4.85933 32.4096 4.83172 32.3495 4.78384L32.2328 4.70275L32.1279 4.64151C31.9767 4.5574 31.8079 4.48925 31.6268 4.43964C31.4742 4.3978 31.3127 4.36761 31.1346 4.34648C30.9688 4.3275 30.8128 4.31844 30.665 4.31154C30.512 4.3055 30.3671 4.30248 30.215 4.29946L29.785 4.28997C29.4824 4.28178 29.2105 4.26496 28.9535 4.23821C28.6808 4.20974 28.4162 4.16791 28.1771 4.11615C28.1247 4.10579 28.0735 4.09372 28.0224 4.08121L27.8737 4.04455L27.6146 3.97079C27.5741 3.95914 27.4271 3.91126 27.4271 3.91126C27.1969 3.83319 26.9677 3.74218 26.7452 3.64039C26.3455 3.45751 25.9466 3.22847 25.5588 2.95889C25.4996 2.91791 25.4416 2.87651 25.3845 2.8351C25.4348 2.88254 25.4868 2.92999 25.5409 2.97916C25.8946 3.29619 26.2696 3.57353 26.657 3.80516Z" fill="white"/>
<path d="M39.992 14.4326C39.9843 14.3131 39.9702 14.1954 39.9528 14.0811C39.9144 13.8408 39.8556 13.6092 39.7785 13.3935C39.6962 13.1649 39.5914 12.9471 39.4687 12.7474C39.3365 12.5339 39.1853 12.3411 39.0199 12.175C38.8469 12.0016 38.6581 11.8511 38.4553 11.726C38.2724 11.6113 38.0726 11.5116 37.8476 11.4237C37.7444 11.3844 37.6422 11.3477 37.5369 11.3163C37.4888 11.3012 37.441 11.2874 37.3941 11.2744C37.3933 11.2787 37.392 11.283 37.3912 11.2874C37.3664 11.3969 37.3375 11.5121 37.2995 11.6531C37.2122 11.9727 37.1146 12.2716 37.0204 12.5585L37.0132 12.5809C37.0515 12.5938 37.0873 12.6064 37.1197 12.6189C37.196 12.6465 37.2655 12.6762 37.3405 12.7099C37.4879 12.7785 37.6106 12.8501 37.7082 12.9221C37.8152 12.9976 37.9115 13.0851 38.0074 13.1938C38.0879 13.2879 38.1587 13.3927 38.2277 13.5191C38.2891 13.6364 38.3394 13.7623 38.3786 13.8956C38.4156 14.0228 38.4416 14.16 38.457 14.3105C38.4629 14.3804 38.4672 14.4507 38.4672 14.524L38.4651 14.6245L38.4587 14.7164C38.4544 14.7811 38.4455 14.8411 38.4327 14.9153L38.4144 15.0015L38.3837 15.1098C38.3777 15.1296 38.3496 15.2086 38.3402 15.2301L38.3198 15.2776C38.3104 15.3013 38.2989 15.3246 38.2848 15.3513L38.2631 15.394C38.2631 15.394 38.2294 15.4544 38.2277 15.457C38.1962 15.5109 38.1591 15.5657 38.1212 15.6175C38.0837 15.6697 38.0385 15.724 37.9848 15.7853L37.9469 15.8271L37.8369 15.941C37.7845 15.9919 37.7287 16.0445 37.6554 16.1088C37.6004 16.1566 37.5437 16.2049 37.4849 16.252L37.3289 16.3757L36.8027 16.7661C36.5201 16.9718 36.2282 17.1841 35.9295 17.4321C35.8016 17.5369 35.6729 17.6495 35.5447 17.7702L35.4658 17.8453C35.4096 17.8988 35.3542 17.9557 35.3005 18.0109L35.2451 18.0687C35.1718 18.1481 35.0989 18.2287 35.0273 18.315C34.8828 18.4871 34.7503 18.6665 34.6335 18.8477C34.5117 19.037 34.4017 19.2346 34.3075 19.4352L34.2739 19.5059L34.2393 19.5857L34.1456 19.8173L34.0864 19.9847L34.0612 20.064C33.9935 20.2788 33.9402 20.501 33.9031 20.7248C33.8669 20.9422 33.8452 21.167 33.8392 21.3938C33.8371 21.4628 33.8366 21.5319 33.8371 21.6017C34.0442 21.5612 34.2325 21.5284 34.3923 21.5012C34.5756 21.4702 35.0648 21.3912 35.0648 21.3912C35.2476 21.3615 35.4633 21.3261 35.6678 21.2886C35.6964 21.283 35.7241 21.2778 35.7518 21.2726C35.7543 21.1877 35.7607 21.1035 35.7705 21.0207C35.7863 20.8844 35.811 20.7524 35.8468 20.6174C35.8822 20.4833 35.9273 20.35 35.981 20.2202C36.0343 20.0916 36.0974 19.9635 36.1694 19.8376C36.2406 19.7155 36.3224 19.593 36.4106 19.4774C36.4549 19.4179 36.5031 19.3593 36.558 19.2937C36.6088 19.235 36.6599 19.1768 36.7132 19.1212C36.7553 19.0767 36.7988 19.0319 36.8419 18.9887C36.9117 18.9197 36.985 18.8494 37.0652 18.7778L37.1329 18.717C37.2343 18.6273 37.3409 18.5363 37.453 18.4444C37.588 18.3331 37.7304 18.2192 37.8778 18.1015L38.2141 17.8293L38.5622 17.5308C38.6385 17.4636 38.7161 17.3902 38.7949 17.3143C38.8418 17.2695 38.8882 17.222 38.936 17.1724L39.0195 17.084L39.1026 16.9904L39.2436 16.8204C39.3148 16.7299 39.3847 16.6358 39.452 16.5315C39.5168 16.431 39.5795 16.3266 39.64 16.2088C39.6634 16.1644 39.6847 16.1178 39.706 16.0717L39.7248 16.0303C39.7465 15.9798 39.7678 15.9298 39.7981 15.8478L39.8185 15.7917L39.8522 15.6878L39.8829 15.5825L39.9229 15.4204L39.9404 15.3324L39.9698 15.1534C39.9847 15.0309 39.9958 14.9079 39.9984 14.7867L39.9996 14.7393L39.9975 14.5258L39.992 14.4326Z" fill="white"/>
<path d="M36.8663 25.8318C36.8608 25.7899 36.8548 25.7476 36.848 25.7058C36.7725 25.7252 36.6933 25.7451 36.6102 25.7653C36.3592 25.8257 36.1193 25.8783 35.8985 25.9254C35.8985 25.9254 35.4038 26.0315 35.2618 26.063C35.0939 26.1 34.9401 26.1358 34.7978 26.1712C34.8148 26.405 34.8084 26.6185 34.7773 26.8221C34.7445 27.0365 34.6831 27.2431 34.583 27.4704L34.5259 27.5868C34.5144 27.6123 34.5003 27.6377 34.473 27.686C34.456 27.7171 34.4385 27.7482 34.427 27.7641L34.3904 27.8211C34.3742 27.8512 34.3554 27.8801 34.3235 27.9237L34.3017 27.9548C34.3017 27.9548 34.2574 28.0182 34.2438 28.0346C34.1129 28.2075 33.9591 28.3723 33.7903 28.5207C33.7081 28.5949 33.619 28.6639 33.504 28.7501L33.3216 28.8761C33.3216 28.8761 33.2014 28.952 33.1567 28.9783C33.1311 28.9938 33.0126 29.062 33.0126 29.062L32.7808 29.1884C32.7552 29.2026 32.7296 29.2151 32.6785 29.2401C32.6564 29.2513 32.6342 29.2621 32.6244 29.2656C32.2532 29.4394 31.8735 29.5507 31.4623 29.6068C31.2816 29.6309 31.0894 29.6451 30.8887 29.6486L30.7919 29.6495C30.6854 29.6495 30.5784 29.6469 30.4706 29.6413C30.4135 29.6387 30.3564 29.6352 30.3027 29.6309C30.1131 29.6175 29.9234 29.5964 29.7351 29.571C29.5506 29.5459 29.3677 29.517 29.1896 29.4855C28.8385 29.4243 28.5022 29.3557 28.1894 29.2902L27.3405 29.1094L26.7047 28.9783C25.9351 28.8248 25.2111 28.7148 24.5539 28.6509C23.9991 28.5979 23.4536 28.5711 22.9328 28.5711C22.7875 28.5711 22.6439 28.5733 22.5012 28.5772C22.4752 28.578 22.4496 28.5785 22.4236 28.5798L22.4053 30.1903L22.7364 30.8011L22.8719 30.8175C22.8719 30.8175 23.2716 30.8697 23.3228 30.8779L23.7839 30.9452C23.9403 30.9685 24.0979 30.9935 24.2565 31.0202C24.7001 31.094 25.1569 31.1785 25.6291 31.2704L26.9463 31.5313C27.1743 31.5771 27.4326 31.6284 27.7232 31.6845C28.0441 31.7457 28.4055 31.8121 28.8146 31.8743C29.0085 31.9036 29.2135 31.9316 29.4142 31.9545L29.4568 31.9588C29.5676 31.9713 29.6814 31.9825 29.8011 31.9916C29.9213 32.0015 30.044 32.0097 30.1702 32.0153C30.3091 32.0213 30.4527 32.0252 30.6002 32.0252C30.7174 32.0252 30.838 32.0226 30.9624 32.0175C31.2488 32.0054 31.5386 31.9752 31.8215 31.9282C31.9702 31.9027 32.1207 31.8721 32.2698 31.8363C32.4211 31.7988 32.5737 31.7565 32.7254 31.7073C32.8779 31.6573 33.0305 31.6021 33.1882 31.5365L33.2611 31.5055L33.5116 31.3912L33.7089 31.2907L33.9536 31.1552L34.257 30.9719L34.3823 30.8917L34.563 30.7705L34.7211 30.6566L34.8936 30.5238L34.9827 30.4513L35.1289 30.3262C35.18 30.2809 35.232 30.2356 35.2874 30.1813C35.5648 29.9182 35.8124 29.6309 36.0221 29.3303L36.0566 29.282L36.2143 29.0352L36.3605 28.7764L36.4184 28.6617C36.4329 28.6337 36.447 28.6056 36.4627 28.5698L36.5233 28.4391L36.5859 28.2886C36.6626 28.0945 36.727 27.8952 36.7768 27.6955C36.8288 27.4885 36.8663 27.2793 36.8885 27.0727C36.9106 26.8682 36.9196 26.6565 36.9149 26.4442C36.9106 26.2458 36.894 26.0397 36.8663 25.8318Z" fill="white"/>
<path d="M60.4275 25.081V27.719C60.4275 27.9033 60.2777 28.0529 60.0931 28.0529H50.3344C50.1498 28.0511 50 27.9015 50 27.7172V14.5473C50 14.363 50.1498 14.2134 50.3344 14.2134H60.0931C60.2777 14.2134 60.4275 14.363 60.4275 14.5473V17.074C60.4275 17.2583 60.2777 17.4079 60.0931 17.4079H54.5076C54.323 17.4079 54.1732 17.5575 54.1732 17.7417V19.0808C54.1732 19.265 54.323 19.4146 54.5076 19.4146H58.8964C59.0809 19.4146 59.2307 19.5642 59.2307 19.7485V22.153C59.2307 22.3372 59.0809 22.4868 58.8964 22.4868H54.5076C54.323 22.4868 54.1732 22.6364 54.1732 22.8207V24.4133C54.1732 24.5976 54.323 24.7472 54.5076 24.7472H60.0931C60.2777 24.7472 60.4275 24.8968 60.4275 25.081Z" fill="white"/>
<path d="M67.4069 14.5472V27.719C67.4069 27.9032 67.2571 28.0528 67.0725 28.0528H63.4877C63.3031 28.0528 63.1533 27.9032 63.1533 27.719V14.5472C63.1533 14.363 63.3031 14.2134 63.4877 14.2134H67.0744C67.2571 14.2134 67.4069 14.363 67.4069 14.5472Z" fill="white"/>
<path d="M69.8049 23.9791L73.1028 23.3862C73.2582 23.3589 73.4116 23.4428 73.4701 23.5906C73.852 24.5374 74.6742 25.0099 75.9404 25.0099C77.0093 25.0099 77.5446 24.7253 77.5446 24.1579C77.5446 23.8606 77.4204 23.6289 77.1737 23.4629C76.9271 23.2968 76.4849 23.1509 75.849 23.0232C73.4189 22.558 71.8586 21.9505 71.1679 21.2007C70.4772 20.4509 70.1319 19.5679 70.1319 18.5536C70.1319 17.2491 70.6271 16.1637 71.6192 15.2989C72.6132 14.4324 74.0383 14 75.9002 14C78.5715 14 80.3858 15.0143 81.3414 17.043C81.4291 17.2273 81.3305 17.4462 81.135 17.5064L78.2499 18.3784C78.0964 18.4258 77.932 18.3547 77.8571 18.2106C77.4624 17.4517 76.759 17.0722 75.7467 17.0722C74.8185 17.0722 74.3563 17.3604 74.3563 17.9333C74.3563 18.1905 74.4604 18.3894 74.6705 18.5317C74.8807 18.674 75.2863 18.809 75.8892 18.9367C77.5483 19.2869 78.7268 19.5971 79.4229 19.8653C80.1209 20.1353 80.7019 20.595 81.1697 21.2481C81.6356 21.9012 81.8695 22.6693 81.8695 23.5559C81.8695 24.9552 81.3012 26.0899 80.1629 26.9601C79.0264 27.8285 77.5337 28.2645 75.6846 28.2645C72.4579 28.2645 70.4115 26.982 69.5436 24.417C69.4815 24.2236 69.6039 24.0156 69.8049 23.9791Z" fill="white"/>
<path d="M96.121 14.6459L92.0282 27.8176C91.9843 27.9581 91.8546 28.053 91.7084 28.053H87.8623C87.718 28.053 87.5882 27.9599 87.5444 27.8231L83.2634 14.6513C83.194 14.4361 83.3547 14.2153 83.5813 14.2153H87.3544C87.5024 14.2153 87.6339 14.3138 87.6759 14.4561L89.7991 21.759C89.8247 21.8374 89.8502 21.914 89.8758 21.9925C89.9763 22.3063 90.4221 22.2972 90.5135 21.9815L92.6878 14.458C92.7298 14.3157 92.8595 14.2172 93.0094 14.2172H95.8031C96.0278 14.2135 96.1886 14.4306 96.121 14.6459Z" fill="white"/>
<path d="M102.827 14.5472V27.719C102.827 27.9032 102.677 28.0528 102.492 28.0528H98.9057C98.7211 28.0528 98.5713 27.9032 98.5713 27.719V14.5472C98.5713 14.363 98.7211 14.2134 98.9057 14.2134H102.492C102.677 14.2134 102.827 14.363 102.827 14.5472Z" fill="white"/>
<path d="M116 24.9898V27.719C116 27.9033 115.85 28.0529 115.666 28.0529H106.618C106.433 28.0529 106.283 27.9033 106.283 27.719V14.5473C106.283 14.363 106.433 14.2134 106.618 14.2134H110.204C110.389 14.2134 110.539 14.363 110.539 14.5473V24.3221C110.539 24.5064 110.688 24.656 110.873 24.656H115.667C115.85 24.656 116 24.8056 116 24.9898Z" fill="white"/>
</svg>
