<svg width="25" height="25" viewBox="0 0 25 25" fill="none" xmlns="http://www.w3.org/2000/svg">
<g opacity="0.1">
<path d="M20.1062 24.5338H5.60003C2.9309 24.5338 0.764648 22.3676 0.764648 19.6985V5.19231C0.764648 2.52318 2.9309 0.356934 5.60003 0.356934H20.1062C22.7753 0.356934 24.9416 2.52318 24.9416 5.19231V19.6985C24.9416 22.3676 22.7801 24.5338 20.1062 24.5338Z" fill="white"/>
<path d="M4.83548 4.15332C7.61582 6.92883 10.3817 9.69467 13.1378 12.4508C10.3913 15.1925 7.62549 17.9535 4.84032 20.7338C4.56953 20.434 4.39546 20.0569 4.39546 19.6217C4.39063 17.91 4.39062 16.1983 4.39062 14.4865C4.39062 11.4499 4.39062 8.41813 4.39062 5.38151C4.39546 4.90764 4.54052 4.49663 4.83548 4.15332Z" fill="#1C1D2B"/>
<path d="M5.64746 21.2648C8.37945 18.5376 11.1018 15.8201 13.8144 13.1123C14.7622 14.0649 15.7341 15.0368 16.7156 16.0232C16.2611 16.2698 15.7921 16.5212 15.3231 16.7727C13.9353 17.5173 12.5475 18.2572 11.1598 18.997C9.81556 19.7174 8.47132 20.4379 7.12709 21.1584C6.64355 21.4195 6.12616 21.4533 5.64746 21.2648Z" fill="#1C1D2B"/>
<path d="M5.64746 3.60634C6.16485 3.4371 6.66289 3.48062 7.14159 3.73689C9.06124 4.76199 10.976 5.79193 12.8957 6.81703C14.1287 7.47948 15.3617 8.13709 16.5948 8.79954C16.6383 8.82371 16.677 8.84789 16.706 8.8624C15.7341 9.83431 14.767 10.8014 13.8096 11.754C11.1066 9.06065 8.38429 6.33833 5.64746 3.60634Z" fill="#1C1D2B"/>
<path d="M14.4482 12.4124C15.1445 11.7209 15.836 11.0343 16.5275 10.3477C16.8369 10.0382 17.1512 9.7336 17.4558 9.4193C17.5332 9.34193 17.5961 9.33226 17.6928 9.38545C18.5873 9.86899 19.4867 10.338 20.3764 10.8361C21.0147 11.189 21.3242 11.7645 21.3145 12.4801C21.3048 13.2102 20.9567 13.7566 20.3087 14.1048C19.448 14.569 18.5777 15.0332 17.717 15.4974C17.6348 15.5409 17.5671 15.5844 17.48 15.4925C16.4791 14.4819 15.4782 13.4762 14.4724 12.4704C14.4676 12.4607 14.4676 12.4511 14.4482 12.4124Z" fill="#1C1D2B"/>
</g>
</svg>
