<svg width="25" height="25" viewBox="0 0 25 25" fill="none" xmlns="http://www.w3.org/2000/svg">
<g opacity="0.1">
<path d="M19.8698 24.5319H5.3637C2.69457 24.5319 0.52832 22.3656 0.52832 19.6965V5.19036C0.52832 2.52123 2.69457 0.35498 5.3637 0.35498H19.8698C22.539 0.35498 24.7052 2.52123 24.7052 5.19036V19.6965C24.7052 22.3656 22.539 24.5319 19.8698 24.5319Z" fill="white"/>
<path d="M13.2023 14.1843C12.5061 14.1795 11.8146 14.1795 11.1183 14.1795C10.9926 14.1795 10.862 14.1795 10.7073 14.1795C10.7508 14.0973 10.7702 14.0538 10.7943 14.0102C11.6889 12.4581 12.5883 10.9059 13.4876 9.35376C13.9905 8.47856 14.5079 7.61302 14.9866 6.72815C15.2961 6.15758 15.064 5.44677 14.5224 5.12764C13.9518 4.794 13.2604 4.93906 12.8735 5.48062C12.7865 5.60151 12.714 5.72723 12.6173 5.87712C12.5206 5.72239 12.4529 5.59667 12.3707 5.48546C12.1241 5.14215 11.7856 4.94873 11.3601 4.94873C10.3882 4.94873 9.81758 5.95933 10.2963 6.82969C10.5526 7.29873 10.8378 7.75809 11.0941 8.22712C11.1328 8.29965 11.1425 8.43987 11.099 8.50757C10.0497 10.345 8.9859 12.1728 7.93178 14.0054C7.85925 14.1263 7.78189 14.1746 7.64166 14.1746C6.92119 14.1698 6.20072 14.1698 5.48508 14.1746C4.71142 14.1795 4.16502 14.692 4.16019 15.4125C4.15535 16.1185 4.72109 16.6503 5.48992 16.6503C8.29444 16.6503 11.099 16.6503 13.9035 16.6503C14.1984 16.6503 14.4886 16.6503 14.8222 16.6503C14.3483 15.8283 13.8986 15.0402 13.4344 14.2617C13.3958 14.2182 13.2797 14.1843 13.2023 14.1843Z" fill="#1C1D2B"/>
<path d="M20.9669 14.9383C20.7589 14.4499 20.3673 14.1985 19.8402 14.1888C19.0956 14.1743 18.3509 14.1791 17.6063 14.1888C17.4419 14.1888 17.3597 14.1308 17.2823 13.9954C16.5425 12.7043 15.7978 11.4181 15.0532 10.1319C14.913 9.89013 14.7727 9.6532 14.6228 9.39209C14.5648 9.4888 14.5165 9.56133 14.4778 9.62902C14.0909 10.3011 13.7041 10.9781 13.3076 11.6454C13.2157 11.8001 13.2061 11.9113 13.3028 12.0709C14.323 13.8261 15.3385 15.591 16.3539 17.3511C16.7262 17.9942 17.0986 18.6373 17.4709 19.2804C17.7465 19.7543 18.1623 19.9912 18.7087 19.9284C19.6275 19.822 20.0771 18.8743 19.6178 18.0377C19.3712 17.5929 19.1101 17.1529 18.8296 16.6693C19.1874 16.6693 19.4921 16.6693 19.7967 16.6693C20.169 16.6693 20.4978 16.5388 20.7444 16.2583C21.0926 15.8618 21.1699 15.4121 20.9669 14.9383Z" fill="#1C1D2B"/>
<path d="M6.36487 17.6402C5.90067 17.6112 5.68308 17.7949 5.52351 18.1914C5.29141 18.7717 5.47999 19.4293 6.01188 19.7532C6.55345 20.082 7.26425 19.9708 7.62207 19.4438C7.99923 18.8877 8.3232 18.2881 8.70036 17.6595C7.88318 17.6547 7.11919 17.6934 6.36487 17.6402Z" fill="#1C1D2B"/>
</g>
</svg>
