<svg width="25" height="25" viewBox="0 0 25 25" fill="none" xmlns="http://www.w3.org/2000/svg">
<g opacity="0.1">
<path d="M19.6335 24.5338H5.12737C2.45824 24.5338 0.291992 22.3676 0.291992 19.6985V5.19231C0.291992 2.52318 2.45824 0.356934 5.12737 0.356934H19.6335C22.3026 0.356934 24.4689 2.52318 24.4689 5.19231V19.6985C24.4689 22.3676 22.3026 24.5338 19.6335 24.5338Z" fill="white"/>
<path d="M20.5859 12.5178C20.4602 12.3147 20.349 12.1068 20.2136 11.9086C19.7301 11.1929 19.2465 10.4773 18.763 9.76166C18.6131 9.5344 18.3665 9.36999 18.4148 9.02668C18.6034 7.70662 18.1634 6.61383 17.1431 5.76763C16.2099 4.99881 15.1219 4.79089 13.9808 5.08585C12.9944 5.34212 12.2352 5.94654 11.7565 6.87494C11.6501 7.07802 11.5293 7.3343 11.3407 7.42617C10.5767 7.80816 9.78368 8.14181 8.99551 8.48028C8.88913 8.52864 8.7344 8.53347 8.61835 8.49962C7.74315 8.23368 6.88245 8.23851 5.73647 8.76557C4.83225 9.22493 4.05859 10.1533 3.93287 11.5217C3.79748 12.9337 4.32454 14.0506 5.50921 14.8533C5.62042 14.9258 5.73647 15.0467 5.77031 15.1676C5.86702 15.5303 5.91054 15.9123 6.00241 16.2749C6.22967 17.1453 6.44726 18.0205 6.72772 18.8764C6.81959 19.1568 7.04202 19.4518 7.28862 19.621C8.30889 20.327 9.62411 19.7951 9.83686 18.6056C10.1028 17.1018 10.3107 15.5883 10.5525 14.0845C10.5718 13.9539 10.6154 13.7895 10.7024 13.7073C10.8958 13.5333 11.1327 13.3979 11.3503 13.248C11.9983 12.7983 12.7284 12.5468 13.4682 12.3002C14.179 12.0681 14.1742 12.0585 14.7883 12.4743C14.8415 12.5082 14.8898 12.542 14.943 12.5759C15.7602 13.0932 16.5774 13.6203 17.3994 14.128C17.8491 14.4036 18.2891 14.7131 18.7775 14.892C19.4883 15.1531 20.0589 14.8775 20.4892 14.3408C20.9341 13.7992 20.9437 13.0932 20.5859 12.5178ZM9.10673 11.7538C8.8843 11.8747 8.64737 11.9763 8.41043 12.073C8.2412 12.1407 8.20735 12.2374 8.28955 12.4018C8.4056 12.629 8.51198 12.866 8.60869 13.0981C8.72474 13.3785 8.61835 13.6396 8.3379 13.7799C8.07679 13.9104 7.80601 13.8282 7.66578 13.5574C7.54006 13.3157 7.42402 13.0642 7.32247 12.8128C7.25478 12.6484 7.17257 12.6194 7.01784 12.6919C6.78574 12.8031 6.55365 12.9143 6.31671 13.011C6.03143 13.1271 5.78482 13.0352 5.64943 12.7741C5.5092 12.5082 5.57206 12.2664 5.85251 12.0971C6.08945 11.9569 6.33606 11.8409 6.58266 11.7297C6.74223 11.6571 6.79058 11.5604 6.70838 11.396C6.602 11.1736 6.5053 10.9463 6.40859 10.7191C6.29254 10.4434 6.39891 10.1775 6.66969 10.0663C6.95015 9.95024 7.20642 10.0469 7.32731 10.3129C7.3805 10.4241 7.42885 10.5402 7.48204 10.6514C7.73832 11.2026 7.73831 11.2026 8.29922 10.9608C8.41043 10.9125 8.52648 10.8593 8.6377 10.8158C8.93749 10.6997 9.23244 10.8109 9.35332 11.0817C9.46937 11.3138 9.36784 11.6088 9.10673 11.7538ZM13.8599 9.87287C13.5359 10.0179 13.0524 9.81968 12.8977 9.48121C12.7381 9.12822 12.8928 8.69787 13.241 8.53831C13.623 8.3594 14.0582 8.50929 14.2274 8.88162C14.3918 9.22977 14.2081 9.71814 13.8599 9.87287ZM14.6191 7.81784C14.2371 7.99191 13.8406 7.83718 13.6762 7.46002C13.5166 7.09253 13.6762 6.64767 14.0533 6.51228C14.3531 6.4059 14.769 6.45426 14.9527 6.88944C15.1171 7.27627 14.9866 7.6486 14.6191 7.81784ZM15.8859 10.6079C15.4749 10.7819 15.0639 10.632 14.8898 10.2452C14.7158 9.8632 14.8898 9.41835 15.2767 9.24911C15.6296 9.09438 16.0697 9.26845 16.2341 9.6311C16.4082 10.0276 16.2631 10.4483 15.8859 10.6079ZM16.6161 8.60117C16.2438 8.76073 15.8086 8.60117 15.6587 8.24335C15.4943 7.85652 15.6442 7.46485 16.0213 7.29561C16.4178 7.11671 16.824 7.2666 16.9932 7.6486C17.1528 7.99674 16.9739 8.44643 16.6161 8.60117Z" fill="#1C1D2B"/>
</g>
</svg>
