<svg width="129" height="25" viewBox="0 0 129 25" fill="none" xmlns="http://www.w3.org/2000/svg">
<path fill-rule="evenodd" clip-rule="evenodd" d="M20.1367 1.21619C22.3076 1.59288 24.384 2.25444 26.3259 3.16473C29.7214 8.24484 31.4085 13.9745 30.7856 20.583C28.1877 22.5291 25.6676 23.7097 23.19 24.4824C22.5765 23.6397 22.0338 22.7415 21.5643 21.7999C22.4586 21.4594 23.3174 21.0393 24.1291 20.5492C23.9168 20.3898 23.7068 20.2232 23.5015 20.0518C18.6242 22.3649 13.2608 22.3649 8.32456 20.0518C8.12165 20.2232 7.91164 20.3898 7.69693 20.5492C8.50625 21.0369 9.36277 21.457 10.2571 21.7975C9.7875 22.7415 9.24245 23.6373 8.6313 24.48C6.1561 23.7074 3.6384 22.5266 1.04048 20.583C0.509572 14.8823 1.57139 9.09958 5.48833 3.16955C7.43028 2.25687 9.50909 1.59288 11.6823 1.21619C11.9513 1.6991 12.2698 2.34862 12.4845 2.86532C14.7498 2.51763 17.0362 2.51763 19.3439 2.86532C19.5586 2.34862 19.8701 1.6991 20.1367 1.21619ZM10.9297 10.9274C9.4219 10.9274 8.23264 12.3157 8.23264 14.0034C8.23264 15.6912 9.44785 17.0771 10.9297 17.0771C12.4375 17.0771 13.629 15.6912 13.6267 14.0034C13.6526 12.3133 12.4375 10.9274 10.9297 10.9274ZM20.8966 10.9274C19.3888 10.9274 18.1996 12.3157 18.1996 14.0034C18.1996 15.6912 19.4148 17.0771 20.8966 17.0771C22.4044 17.0771 23.5937 15.6912 23.5937 14.0034C23.6196 12.3133 22.4044 10.9274 20.8966 10.9274Z" fill="#94979E"/>
<path d="M81.6838 8.36883C83.4355 8.36883 84.8898 8.74531 86.0461 9.49823V12.7789C85.6383 12.4921 85.1624 12.259 84.6193 12.0797C84.0763 11.9005 83.4957 11.8108 82.875 11.8108C81.7889 11.8108 80.9405 12.0131 80.3272 12.4203C79.7139 12.8275 79.4064 13.3577 79.4064 14.0158C79.4064 14.6612 79.7039 15.1888 80.2997 15.6037C80.8956 16.016 81.7588 16.2235 82.8924 16.2235C83.4756 16.2235 84.0514 16.1364 84.6193 15.9648C85.1851 15.7906 85.6732 15.5781 86.081 15.3271V18.5002C84.7973 19.289 83.3081 19.6834 81.6135 19.6834C80.1872 19.6782 78.9706 19.4273 77.967 18.9253C76.9637 18.4233 76.2052 17.7421 75.6996 16.8816C75.1941 16.0211 74.9389 15.0531 74.9389 13.9774C74.9389 12.9018 75.2015 11.9389 75.7271 11.0912C76.2527 10.2435 77.0235 9.57763 78.0398 9.0936C79.0557 8.60958 80.2696 8.36883 81.6838 8.36883ZM68.526 8.36638C69.507 8.36638 70.4056 8.47393 71.2243 8.68907C72.0426 8.90421 72.7183 9.17821 73.2565 9.5137V12.3283C72.7056 11.9928 72.0749 11.729 71.3543 11.5292C70.6359 11.332 69.8979 11.2347 69.1367 11.2347C68.0379 11.2347 67.4901 11.4268 67.4901 11.8084C67.4901 11.9877 67.5751 12.1208 67.7453 12.2104C67.9154 12.3001 68.2281 12.3923 68.6813 12.4896L70.4331 12.8123C71.5772 13.0146 72.4304 13.3706 72.9909 13.8777C73.5518 14.3848 73.8319 15.1351 73.8319 16.1288C73.8319 17.2172 73.3691 18.0803 72.4404 18.7205C71.5118 19.3608 70.1954 19.6809 68.4885 19.6809C67.4849 19.6784 66.5091 19.5529 65.563 19.3019C64.6169 19.0509 63.7633 18.6872 63.0052 18.2083V15.2325C63.5783 15.6857 64.3465 16.0597 65.31 16.3542C66.2736 16.6461 67.2048 16.7921 68.1055 16.7921C68.526 16.7921 68.844 16.7358 69.0591 16.6231C69.2745 16.5104 69.3823 16.3747 69.3823 16.2184C69.3823 16.0392 69.3247 15.8906 69.2069 15.7702C69.0892 15.6499 68.8615 15.55 68.5239 15.4655L66.4214 14.9814C65.2175 14.6946 64.3639 14.2977 63.8562 13.788C63.348 13.2809 63.095 12.6151 63.095 11.7904C63.095 11.0964 63.3153 10.4946 63.7611 9.9798C64.2038 9.46506 64.8346 9.06808 65.6529 8.78892C66.4716 8.50723 67.4273 8.36638 68.526 8.36638ZM125.462 6.41232V19.3198H121.17V16.9714C120.807 17.8549 120.256 18.5285 119.516 18.9894C118.774 19.4479 117.858 19.6784 116.772 19.6784C115.801 19.6784 114.956 19.4376 114.232 18.9536C113.509 18.4696 112.951 17.8063 112.558 16.9637C112.167 16.1211 111.969 15.1684 111.969 14.1031C111.957 13.0044 112.165 12.0184 112.593 11.1451C113.018 10.2718 113.621 9.59056 114.397 9.10138C115.173 8.61224 116.059 8.36638 117.053 8.36638C119.062 8.36638 120.422 9.24445 121.133 10.9982L121.169 11.091L121.17 6.41232H125.462ZM93.9996 8.36381C95.3889 8.36381 96.5875 8.60197 97.5912 9.08089C98.5949 9.5598 99.3608 10.2154 99.8865 11.0529C100.412 11.8903 100.675 12.8507 100.675 13.9392C100.675 15.0147 100.412 15.988 99.8865 16.8612C99.3608 17.7345 98.5923 18.4209 97.5812 18.9228C96.5701 19.4248 95.3762 19.6758 93.9974 19.6758C92.6182 19.6758 91.4244 19.4274 90.4159 18.9254C89.4048 18.4235 88.634 17.7371 88.1032 16.8638C87.5728 15.9905 87.305 15.0173 87.305 13.9417C87.305 12.8661 87.5702 11.9057 88.1032 11.0631C88.6362 10.2205 89.4022 9.5598 90.4084 9.08089C91.4117 8.60197 92.6108 8.36381 93.9996 8.36381ZM61.0885 11.3038V19.3761H56.8091V11.3038C58.1203 11.8826 59.7473 11.9082 61.0885 11.3038ZM109.607 8.5994C110.225 8.5994 110.756 8.74282 111.201 9.02963V12.9019C110.756 12.6022 110.18 12.4537 109.467 12.4537C108.533 12.4537 107.812 12.7431 107.312 13.3219C106.809 13.9007 106.558 14.8021 106.558 16.0212V19.3198H102.266V8.83245H106.471V12.1669C106.704 10.9478 107.082 10.0489 107.602 9.46755C108.12 8.88878 108.791 8.5994 109.607 8.5994ZM47.7455 6.77084C49.3925 6.77084 50.784 7.03462 51.9255 7.55963C53.0639 8.08461 53.9176 8.81707 54.4833 9.7544C55.0486 10.6917 55.3339 11.7648 55.3339 12.9736C55.3339 14.1568 55.0386 15.2298 54.448 16.1902C53.8574 17.1531 52.9588 17.9138 51.7501 18.4746C50.5414 19.0355 49.0444 19.3172 47.2552 19.3172H40.9131V6.77084H47.7455ZM93.9974 11.6675C93.2489 11.6675 92.6631 11.8801 92.2352 12.3052C91.8099 12.7304 91.5971 13.2989 91.5971 14.016C91.5971 14.7331 91.8099 15.3093 92.2352 15.7446C92.6609 16.18 93.2489 16.4003 93.9974 16.4003C94.7328 16.3977 95.3139 16.18 95.7392 15.7446C96.1649 15.3093 96.3799 14.7331 96.3799 14.016C96.3799 13.2989 96.1671 12.7278 95.7392 12.3052C95.3139 11.8801 94.7328 11.6675 93.9974 11.6675ZM118.805 11.7213C118.081 11.7213 117.503 11.9339 117.07 12.359C116.637 12.7841 116.422 13.3347 116.422 14.016C116.422 14.6972 116.637 15.253 117.07 15.6832C117.503 16.1134 118.074 16.3286 118.787 16.3286C119.51 16.326 120.091 16.1083 120.529 15.673C120.967 15.2376 121.185 14.6716 121.185 13.9801C121.185 13.3117 120.972 12.7662 120.547 12.3488C120.121 11.9313 119.538 11.7213 118.805 11.7213ZM47.4327 9.96184H45.2954V16.1288H47.1849C48.2937 16.1288 49.1474 15.8445 49.7428 15.2785C50.3386 14.7099 50.6365 13.9365 50.6365 12.9557C50.6365 12.0465 50.3709 11.3217 49.8405 10.7788C49.3101 10.2358 48.5066 9.96184 47.4327 9.96184ZM58.9508 6.01526C60.1324 6.01526 61.0907 6.89582 61.0907 7.98208C61.0907 9.06834 60.1324 9.94895 58.9508 9.94895C57.7687 9.94895 56.8108 9.06834 56.8108 7.98208C56.8108 6.89582 57.7687 6.01526 58.9508 6.01526Z" fill="#94979E"/>
</svg>
