<svg width="125" height="24" viewBox="0 0 125 24" fill="none" xmlns="http://www.w3.org/2000/svg">
<path fill-rule="evenodd" clip-rule="evenodd" d="M19.2236 0C21.3945 0.376697 23.4709 1.03825 25.4129 1.94854C28.8083 7.02865 30.4954 12.7583 29.8725 19.3668C27.2746 21.3129 24.7545 22.4936 22.2769 23.2662C21.6635 22.4236 21.1207 21.5254 20.6512 20.5837C21.5455 20.2432 22.4043 19.8231 23.2161 19.333C23.0037 19.1736 22.7937 19.007 22.5884 18.8356C17.7111 21.1487 12.3477 21.1487 7.41147 18.8356C7.20857 19.007 6.99855 19.1736 6.78384 19.333C7.59316 19.8207 8.44969 20.2408 9.34397 20.5813C8.87442 21.5254 8.32936 22.4211 7.71822 23.2638C5.24301 22.4912 2.72531 21.3104 0.127396 19.3668C-0.403514 13.6661 0.658304 7.8834 4.57524 1.95336C6.51719 1.04068 8.59601 0.376697 10.7692 0C11.0382 0.482912 11.3567 1.13244 11.5714 1.64913C13.8367 1.30144 16.1231 1.30144 18.4308 1.64913C18.6455 1.13244 18.957 0.482912 19.2236 0ZM10.0166 9.71118C8.50882 9.71118 7.31955 11.0995 7.31955 12.7873C7.31955 14.475 8.53477 15.8609 10.0166 15.8609C11.5244 15.8609 12.716 14.475 12.7136 12.7873C12.7396 11.0971 11.5244 9.71118 10.0166 9.71118ZM19.9835 9.71118C18.4757 9.71118 17.2865 11.0995 17.2865 12.7873C17.2865 14.475 18.5017 15.8609 19.9835 15.8609C21.4913 15.8609 22.6806 14.475 22.6806 12.7873C22.7065 11.0971 21.4913 9.71118 19.9835 9.71118Z" fill="white"/>
<path d="M80.7707 7.15263C82.5224 7.15263 83.9767 7.52911 85.133 8.28202V11.5627C84.7252 11.2759 84.2493 11.0428 83.7062 10.8635C83.1632 10.6843 82.5826 10.5946 81.9619 10.5946C80.8758 10.5946 80.0274 10.7969 79.4141 11.2041C78.8008 11.6113 78.4933 12.1415 78.4933 12.7996C78.4933 13.445 78.7908 13.9726 79.3866 14.3875C79.9825 14.7998 80.8457 15.0073 81.9794 15.0073C82.5625 15.0073 83.1383 14.9202 83.7062 14.7486C84.272 14.5744 84.7601 14.3619 85.1679 14.1109V17.284C83.8842 18.0728 82.395 18.4671 80.7004 18.4671C79.2741 18.462 78.0576 18.2111 77.0539 17.7091C76.0506 17.2071 75.2921 16.5259 74.7866 15.6654C74.281 14.8049 74.0258 13.8369 74.0258 12.7612C74.0258 11.6856 74.2884 10.7227 74.814 9.87499C75.3397 9.02729 76.1104 8.36143 77.1267 7.8774C78.1426 7.39338 79.3565 7.15263 80.7707 7.15263ZM67.613 7.15018C68.594 7.15018 69.4925 7.25773 70.3112 7.47287C71.1295 7.688 71.8052 7.96201 72.3435 8.29749V11.1121C71.7925 10.7766 71.1618 10.5128 70.4412 10.313C69.7228 10.1158 68.9848 10.0185 68.2236 10.0185C67.1249 10.0185 66.577 10.2106 66.577 10.5922C66.577 10.7715 66.6621 10.9046 66.8322 10.9942C67.0023 11.0839 67.315 11.1761 67.7682 11.2734L69.52 11.5961C70.6641 11.7984 71.5173 12.1544 72.0778 12.6615C72.6388 13.1686 72.9188 13.9189 72.9188 14.9126C72.9188 16.001 72.456 16.8641 71.5273 17.5043C70.5987 18.1446 69.2823 18.4647 67.5755 18.4647C66.5718 18.4622 65.596 18.3367 64.6499 18.0857C63.7038 17.8347 62.8502 17.471 62.0921 16.9921V14.0163C62.6652 14.4695 63.4334 14.8435 64.3969 15.138C65.3605 15.4299 66.2917 15.5759 67.1925 15.5759C67.613 15.5759 67.9309 15.5196 68.146 15.4069C68.3615 15.2942 68.4692 15.1585 68.4692 15.0022C68.4692 14.823 68.4116 14.6744 68.2939 14.554C68.1761 14.4337 67.9484 14.3338 67.6108 14.2493L65.5083 13.7652C64.3044 13.4784 63.4508 13.0815 62.9431 12.5718C62.4349 12.0647 62.1819 11.3989 62.1819 10.5742C62.1819 9.88019 62.4022 9.27839 62.848 8.7636C63.2907 8.24886 63.9215 7.85188 64.7398 7.57272C65.5585 7.29103 66.5142 7.15018 67.613 7.15018ZM124.549 5.19612V18.1036H120.256V15.7552C119.894 16.6387 119.343 17.3123 118.602 17.7732C117.861 18.2317 116.945 18.4622 115.859 18.4622C114.888 18.4622 114.042 18.2214 113.319 17.7374C112.596 17.2534 112.038 16.5901 111.645 15.7475C111.254 14.9049 111.056 13.9522 111.056 12.8869C111.044 11.7882 111.252 10.8022 111.68 9.92887C112.105 9.05557 112.708 8.37436 113.484 7.88518C114.26 7.39604 115.146 7.15018 116.14 7.15018C118.149 7.15018 119.508 8.02825 120.22 9.78197L120.256 9.87481L120.256 5.19612H124.549ZM93.0865 7.1476C94.4758 7.1476 95.6745 7.38577 96.6781 7.86469C97.6818 8.3436 98.4478 8.99924 98.9734 9.83667C99.499 10.6741 99.7616 11.6345 99.7616 12.7229C99.7616 13.7985 99.499 14.7718 98.9734 15.645C98.4478 16.5183 97.6792 17.2047 96.6681 17.7066C95.657 18.2086 94.4631 18.4596 93.0843 18.4596C91.7051 18.4596 90.5113 18.2112 89.5028 17.7092C88.4917 17.2073 87.7209 16.5209 87.1901 15.6476C86.6597 14.7743 86.3919 13.8011 86.3919 12.7255C86.3919 11.6499 86.6571 10.6895 87.1901 9.84694C87.7231 9.00435 88.4891 8.3436 89.4954 7.86469C90.4986 7.38577 91.6977 7.1476 93.0865 7.1476ZM60.1755 10.0876V18.1599H55.896V10.0876C57.2072 10.6664 58.8342 10.692 60.1755 10.0876ZM108.694 7.38319C109.312 7.38319 109.843 7.52662 110.288 7.81342V11.6857C109.843 11.386 109.267 11.2375 108.554 11.2375C107.62 11.2375 106.899 11.5269 106.399 12.1057C105.896 12.6845 105.645 13.5859 105.645 14.805V18.1036H101.353V7.61625H105.558V10.9507C105.791 9.73161 106.169 8.83274 106.689 8.25135C107.207 7.67258 107.878 7.38319 108.694 7.38319ZM46.8324 5.55464C48.4794 5.55464 49.8709 5.81841 51.0124 6.34343C52.1509 6.8684 53.0045 7.60087 53.5702 8.5382C54.1355 9.47553 54.4208 10.5486 54.4208 11.7574C54.4208 12.9406 54.1255 14.0136 53.5349 14.974C52.9443 15.9369 52.0457 16.6976 50.837 17.2584C49.6284 17.8193 48.1313 18.101 46.3421 18.101H40V5.55464H46.8324ZM93.0843 10.4513C92.3358 10.4513 91.75 10.6639 91.3221 11.089C90.8968 11.5142 90.684 12.0827 90.684 12.7998C90.684 13.5169 90.8968 14.0931 91.3221 14.5284C91.7479 14.9638 92.3358 15.1841 93.0843 15.1841C93.8198 15.1815 94.4008 14.9638 94.8261 14.5284C95.2518 14.0931 95.4668 13.5169 95.4668 12.7998C95.4668 12.0827 95.254 11.5116 94.8261 11.089C94.4008 10.6639 93.8198 10.4513 93.0843 10.4513ZM117.891 10.5051C117.168 10.5051 116.59 10.7177 116.157 11.1428C115.724 11.5679 115.509 12.1185 115.509 12.7998C115.509 13.481 115.724 14.0368 116.157 14.467C116.59 14.8972 117.161 15.1124 117.874 15.1124C118.597 15.1098 119.178 14.8921 119.616 14.4568C120.054 14.0214 120.272 13.4554 120.272 12.7639C120.272 12.0955 120.059 11.55 119.634 11.1326C119.208 10.7151 118.625 10.5051 117.891 10.5051ZM46.5196 8.74564H44.3823V14.9126H46.2719C47.3807 14.9126 48.2343 14.6283 48.8297 14.0623C49.4255 13.4937 49.7234 12.7203 49.7234 11.7395C49.7234 10.8303 49.4578 10.1055 48.9274 9.56258C48.397 9.01964 47.5935 8.74564 46.5196 8.74564ZM58.0377 4.79906C59.2193 4.79906 60.1776 5.67962 60.1776 6.76588C60.1776 7.85214 59.2193 8.73275 58.0377 8.73275C56.8556 8.73275 55.8977 7.85214 55.8977 6.76588C55.8977 5.67962 56.8556 4.79906 58.0377 4.79906Z" fill="white"/>
</svg>
