<svg width="135" height="31" viewBox="0 0 135 31" fill="none" xmlns="http://www.w3.org/2000/svg">
<path d="M26.3857 0.633102H4.47093C2.23832 0.633102 0.428345 2.44299 0.428345 4.67566V26.5904C0.428345 28.8231 2.23825 30.633 4.47093 30.633H15.2792L15.2976 19.9126H12.5124C12.1505 19.9126 11.8567 19.62 11.8553 19.258L11.842 15.8024C11.8406 15.4385 12.1352 15.1427 12.4992 15.1427H15.2793V11.8037C15.2793 7.92887 17.6458 5.81897 21.1025 5.81897H23.9389C24.3018 5.81897 24.5961 6.11318 24.5961 6.47616V9.38994C24.5961 9.75277 24.302 10.0469 23.9393 10.0471L22.1986 10.0479C20.3188 10.0479 19.9547 10.9412 19.9547 12.2521V15.1428H24.0854C24.479 15.1428 24.7844 15.4865 24.738 15.8773L24.3284 19.3329C24.2892 19.6636 24.0088 19.9128 23.6758 19.9128H19.9732L19.9547 30.6331H26.3858C28.6184 30.6331 30.4283 28.8232 30.4283 26.5906V4.67566C30.4283 2.44299 28.6184 0.633102 26.3857 0.633102Z" fill="white"/>
<path d="M47.7673 9.41478C46.6686 9.41478 46.339 9.89818 46.339 10.9748V12.7547H49.2834L48.9978 15.6551H46.339V24.4222H42.8014V15.6551H40.4283V12.7766H42.8014V11.0408C42.8014 8.0964 43.9879 6.5583 47.2619 6.5583C47.9431 6.5583 48.6462 6.60225 49.3274 6.69014V9.41478" fill="white"/>
<path d="M49.5255 18.2259C49.5255 14.9739 51.0636 12.5129 54.3155 12.5129C56.0734 12.5129 57.15 13.4138 57.6774 14.5564V12.7766H61.0612V24.4442H57.6554V22.6863C57.172 23.807 56.0514 24.6859 54.2936 24.6859C51.0636 24.6859 49.5035 22.2469 49.5035 18.9729M53.0631 19.0169C53.0631 20.7527 53.7003 21.9173 55.3483 21.9173C56.7985 21.9173 57.5236 20.8626 57.5236 19.1927V18.0061C57.5236 16.3362 56.7765 15.2815 55.3483 15.2815C53.7003 15.2815 53.0631 16.4241 53.0631 18.1819V19.0169Z" fill="white"/>
<path d="M68.3998 12.5129C69.7622 12.5129 71.0805 12.7986 71.7837 13.3039L70.9926 15.8088C70.2675 15.4573 69.4545 15.2815 68.6415 15.2815C66.7299 15.2815 65.8949 16.3801 65.8949 18.2698V18.951C65.8949 20.8406 66.7299 21.9393 68.6415 21.9393C69.4545 21.9393 70.2675 21.7415 70.9926 21.3899L71.7837 23.8949C71.0805 24.3783 69.7841 24.6859 68.3998 24.6859C64.247 24.6859 62.3793 22.4666 62.3793 18.885V18.3357C62.3793 14.7541 64.247 12.5129 68.3998 12.5129Z" fill="white"/>
<path d="M72.2451 19.0389V18.0061C72.2451 14.6882 74.1348 12.5129 77.98 12.5129C81.6056 12.5129 83.2096 14.7102 83.2096 17.9622V19.8299H75.7827C75.8487 21.4339 76.5738 22.137 78.5294 22.137C79.8038 22.137 81.0782 21.8953 82.2867 21.4339L82.9239 23.8509C82.0011 24.3343 80.0894 24.7079 78.3975 24.7079C73.9151 24.6859 72.2451 22.4666 72.2451 19.0389ZM75.7827 17.5007H80.0455V17.2151C80.0455 15.9407 79.5401 14.9299 77.98 14.9299C76.398 14.9299 75.7827 15.9407 75.7827 17.5007Z" fill="white"/>
<path d="M96.3054 18.9729C96.3054 22.2249 94.7453 24.6859 91.4934 24.6859C89.7355 24.6859 88.505 23.8069 88.0216 22.6863V24.4442H84.6818V6.90981L88.2194 6.60219V14.4026C88.7248 13.3698 89.8674 12.5349 91.5153 12.5349C94.7453 12.5349 96.3274 14.9739 96.3274 18.2478M92.7678 18.1599C92.7678 16.512 92.1306 15.2815 90.4387 15.2815C88.9884 15.2815 88.2194 16.3142 88.2194 17.9841V19.2146C88.2194 20.8846 89.0104 21.9173 90.4387 21.9173C92.1306 21.9173 92.7678 20.6868 92.7678 19.0388V18.1599Z" fill="white"/>
<path d="M97.4702 18.885V18.2918C97.4702 14.9299 99.3819 12.5129 103.271 12.5129C107.16 12.5129 109.072 14.9299 109.072 18.2918V18.885C109.072 22.2469 107.16 24.6639 103.271 24.6639C99.3819 24.6639 97.4702 22.2689 97.4702 18.885ZM105.556 18.0501C105.556 16.512 104.919 15.2815 103.271 15.2815C101.623 15.2815 100.986 16.512 100.986 18.0501V19.1487C100.986 20.6868 101.623 21.9173 103.271 21.9173C104.919 21.9173 105.556 20.6868 105.556 19.1487V18.0501Z" fill="white"/>
<path d="M110.28 18.885V18.2918C110.28 14.9299 112.192 12.5129 116.081 12.5129C119.97 12.5129 121.882 14.9299 121.882 18.2918V18.885C121.882 22.2469 119.97 24.6639 116.081 24.6639C112.192 24.6639 110.28 22.2689 110.28 18.885ZM118.366 18.0501C118.366 16.512 117.729 15.2815 116.081 15.2815C114.433 15.2815 113.796 16.512 113.796 18.0501V19.1487C113.796 20.6868 114.433 21.9173 116.081 21.9173C117.729 21.9173 118.366 20.6868 118.366 19.1487V18.0501Z" fill="white"/>
<path d="M126.738 18.3357L130.232 12.7546H133.967L130.319 18.5335L134.121 24.4442H130.363L126.738 18.7312V24.4442H123.222V6.90982L126.738 6.58023" fill="white"/>
</svg>
