<svg width="138" height="32" viewBox="0 0 138 32" fill="none" xmlns="http://www.w3.org/2000/svg">
<path d="M26.7698 1.20142H4.85509C2.62247 1.20142 0.8125 3.0113 0.8125 5.24398V27.1587C0.8125 29.3914 2.6224 31.2013 4.85509 31.2013H15.6633L15.6818 20.4809H12.8966C12.5347 20.4809 12.2409 20.1883 12.2395 19.8263L12.2261 16.3707C12.2247 16.0068 12.5194 15.711 12.8833 15.711H15.6634V12.372C15.6634 8.49718 18.03 6.38728 21.4866 6.38728H24.3231C24.686 6.38728 24.9803 6.68149 24.9803 7.04447V9.95825C24.9803 10.3211 24.6862 10.6152 24.3234 10.6154L22.5827 10.6162C20.7029 10.6162 20.3389 11.5095 20.3389 12.8204V15.7111H24.4696C24.8631 15.7111 25.1685 16.0548 25.1221 16.4457L24.7125 19.9013C24.6734 20.2319 24.3929 20.4811 24.06 20.4811H20.3573L20.3389 31.2014H26.77C29.0026 31.2014 30.8125 29.3915 30.8125 27.1589V5.24398C30.8124 3.0113 29.0025 1.20142 26.7698 1.20142Z" fill="#94979E"/>
<path d="M48.1514 9.98306C47.0528 9.98306 46.7232 10.4665 46.7232 11.5431V13.3229H49.6676L49.3819 16.2234H46.7232V24.9905H43.1856V16.2234H40.8125V13.3449H43.1856V11.6091C43.1856 8.66469 44.3721 7.12659 47.6461 7.12659C48.3272 7.12659 49.0304 7.17053 49.7115 7.25842V9.98306" fill="#8E9199"/>
<path d="M49.9097 18.7941C49.9097 15.5421 51.4478 13.0812 54.6998 13.0812C56.4576 13.0812 57.5343 13.9821 58.0616 15.1247V13.3449H61.4454V25.0124H58.0396V23.2546C57.5562 24.3752 56.4356 25.2541 54.6778 25.2541C51.4478 25.2541 49.8877 22.8152 49.8877 19.5412M53.4473 19.5851C53.4473 21.321 54.0845 22.4856 55.7325 22.4856C57.1827 22.4856 57.9078 21.4309 57.9078 19.7609V18.5744C57.9078 16.9045 57.1607 15.8498 55.7325 15.8498C54.0845 15.8498 53.4473 16.9923 53.4473 18.7502V19.5851Z" fill="#8E9199"/>
<path d="M68.7837 13.0812C70.1461 13.0812 71.4644 13.3668 72.1676 13.8722L71.3765 16.3771C70.6514 16.0255 69.8384 15.8498 69.0254 15.8498C67.1138 15.8498 66.2788 16.9484 66.2788 18.8381V19.5192C66.2788 21.4089 67.1138 22.5075 69.0254 22.5075C69.8384 22.5075 70.6514 22.3098 71.3765 21.9582L72.1676 24.4631C71.4644 24.9465 70.168 25.2541 68.7837 25.2541C64.6309 25.2541 62.7632 23.0349 62.7632 19.4533V18.904C62.7632 15.3224 64.6309 13.0812 68.7837 13.0812Z" fill="#8E9199"/>
<path d="M72.6294 19.6071V18.5744C72.6294 15.2565 74.5191 13.0812 78.3643 13.0812C81.9898 13.0812 83.5939 15.2785 83.5939 18.5304V20.3981H76.167C76.2329 22.0022 76.958 22.7053 78.9136 22.7053C80.1881 22.7053 81.4625 22.4636 82.671 22.0022L83.3082 24.4192C82.3853 24.9026 80.4737 25.2761 78.7818 25.2761C74.2993 25.2541 72.6294 23.0349 72.6294 19.6071ZM76.167 18.069H80.4298V17.7834C80.4298 16.5089 79.9244 15.4982 78.3643 15.4982C76.7823 15.4982 76.167 16.5089 76.167 18.069Z" fill="#8E9199"/>
<path d="M96.6896 19.5412C96.6896 22.7932 95.1295 25.2541 91.8775 25.2541C90.1197 25.2541 88.8892 24.3752 88.4058 23.2546V25.0124H85.0659V7.47809L88.6036 7.17047V14.9708C89.1089 13.9381 90.2515 13.1031 91.8995 13.1031C95.1295 13.1031 96.7115 15.5421 96.7115 18.8161M93.1519 18.7282C93.1519 17.0802 92.5147 15.8498 90.8228 15.8498C89.3726 15.8498 88.6036 16.8825 88.6036 18.5524V19.7829C88.6036 21.4528 89.3946 22.4856 90.8228 22.4856C92.5147 22.4856 93.1519 21.2551 93.1519 19.6071V18.7282Z" fill="#8E9199"/>
<path d="M97.8545 19.4533V18.86C97.8545 15.4982 99.7661 13.0812 103.655 13.0812C107.545 13.0812 109.456 15.4982 109.456 18.86V19.4533C109.456 22.8152 107.545 25.2322 103.655 25.2322C99.7661 25.2322 97.8545 22.8371 97.8545 19.4533ZM105.941 18.6183C105.941 17.0802 105.303 15.8498 103.655 15.8498C102.007 15.8498 101.37 17.0802 101.37 18.6183V19.717C101.37 21.2551 102.007 22.4856 103.655 22.4856C105.303 22.4856 105.941 21.2551 105.941 19.717V18.6183Z" fill="#8E9199"/>
<path d="M110.665 19.4533V18.86C110.665 15.4982 112.576 13.0812 116.465 13.0812C120.355 13.0812 122.266 15.4982 122.266 18.86V19.4533C122.266 22.8152 120.355 25.2322 116.465 25.2322C112.576 25.2322 110.665 22.8371 110.665 19.4533ZM118.751 18.6183C118.751 17.0802 118.113 15.8498 116.465 15.8498C114.817 15.8498 114.18 17.0802 114.18 18.6183V19.717C114.18 21.2551 114.817 22.4856 116.465 22.4856C118.113 22.4856 118.751 21.2551 118.751 19.717V18.6183Z" fill="#8E9199"/>
<path d="M127.122 18.904L130.616 13.3229H134.351L130.704 19.1017L134.505 25.0124H130.748L127.122 19.2995V25.0124H123.606V7.47809L127.122 7.1485" fill="#8E9199"/>
</svg>
