<svg width="105" height="31" viewBox="0 0 105 31" fill="none" xmlns="http://www.w3.org/2000/svg">
<path fill-rule="evenodd" clip-rule="evenodd" d="M30.4375 3.2679V27.9536C30.4375 29.0897 29.4781 30.0108 28.2946 30.0108H2.58036C1.39689 30.0108 0.4375 29.0897 0.4375 27.9536V3.2679C0.4375 2.13177 1.39689 1.21075 2.58036 1.21075H28.2946C29.4781 1.21075 30.4375 2.13177 30.4375 3.2679ZM6.67165 4.81075C8.12644 4.81075 9.30579 5.9901 9.30579 7.4449C9.30579 8.8997 8.12644 10.079 6.67165 10.079C5.21685 10.079 4.0375 8.8997 4.0375 7.4449C4.0375 5.9901 5.21685 4.81075 6.67165 4.81075ZM4.56433 11.6595H8.77896V26.4108H4.56433V11.6595ZM25.6375 18.5926C25.6375 13.9565 24.0992 11.2381 19.6106 11.2381C17.7075 11.2383 15.9295 12.1865 14.8691 13.7669V11.6595H10.8863V26.4108H15.1009V19.5198C14.989 18.5088 15.3022 17.4967 15.9655 16.7255C16.6288 15.9543 17.5827 15.4933 18.5991 15.4527C21.0436 15.4527 21.4229 17.855 21.4229 19.5198V26.4108H25.6375V18.5926Z" fill="#94979E"/>
<path d="M74.4147 17.4503L79.1654 23.2925H75.4141L71.1861 17.9269V23.2925H68.1113V7.9182H71.1861V16.9583L75.0912 12.5305H79.0117L74.4147 17.4503ZM62.1153 12.223C60.7487 12.2435 59.479 12.9329 58.7176 14.0679V12.5305H55.8118V23.2925H58.8867V18.2651C58.8051 17.5275 59.0335 16.7891 59.5174 16.2265C60.0014 15.6638 60.6973 15.3275 61.4388 15.2979C63.2222 15.2979 63.499 17.0506 63.499 18.2651V23.2925H66.5738V17.5887C66.5738 14.2063 65.4515 12.223 62.1768 12.223H62.1153ZM89.6353 18.1575C89.6471 18.3828 89.6471 18.6086 89.6353 18.834H81.5638V18.9416C81.8344 20.2659 83.0268 21.1977 84.3773 21.1401C85.4253 21.1857 86.4466 20.8027 87.2062 20.0793L89.251 21.6167C87.9404 22.9541 86.1253 23.6746 84.2543 23.6C82.704 23.698 81.1873 23.1194 80.0963 22.0136C79.0052 20.9078 78.447 19.3835 78.5658 17.8346C78.534 16.3071 79.1386 14.835 80.2349 13.7707C81.3312 12.7065 82.8206 12.1459 84.3466 12.223C87.2369 12.223 89.6353 14.2678 89.6353 18.1575ZM86.7757 16.8353C86.7529 16.2199 86.4782 15.6408 86.016 15.2338C85.5537 14.8268 84.9446 14.6276 84.3312 14.6829C82.9792 14.5367 81.7549 15.489 81.5638 16.8353H86.7757ZM43.5124 7.9182H40.4375V23.2925H49.6621V20.2177H43.5124V7.9182ZM98.8599 7.9182H101.935V23.2925H99.029V22.2163C98.2808 23.1382 97.1403 23.6514 95.9542 23.6C94.5098 23.5629 93.1448 22.9314 92.1815 21.8546C91.2181 20.7777 90.7419 19.3511 90.8653 17.9115C90.7185 16.4693 91.1844 15.0318 92.1493 13.95C93.1142 12.8681 94.4893 12.2414 95.9388 12.223C97.0174 12.1758 98.0698 12.5635 98.8599 13.2992V7.9182ZM99.0905 17.9115C99.1884 17.1932 98.9704 16.4677 98.4928 15.9223C98.0152 15.3769 97.3248 15.0651 96.5999 15.0673C95.1291 15.1741 94.0146 16.4389 94.0939 17.9115C94.0146 19.3841 95.1291 20.649 96.5999 20.7558C97.3248 20.7579 98.0152 20.4461 98.4928 19.9007C98.9704 19.3553 99.1884 18.6298 99.0905 17.9115ZM52.737 7.61072C51.7112 7.62532 50.8716 8.43129 50.8152 9.45564C50.8152 10.517 51.6756 11.3774 52.737 11.3774C53.7983 11.3774 54.6587 10.517 54.6587 9.45564C54.6023 8.43129 53.7628 7.62532 52.737 7.61072ZM51.1995 23.2925H54.2744V12.5305H51.1995V23.2925Z" fill="#8E9199"/>
</svg>
