<svg width="103" height="30" viewBox="0 0 103 30" fill="none" xmlns="http://www.w3.org/2000/svg">
<path fill-rule="evenodd" clip-rule="evenodd" d="M30.5259 2.29024V26.976C30.5259 28.1121 29.5665 29.0331 28.383 29.0331H2.66874C1.48527 29.0331 0.525879 28.1121 0.525879 26.976V2.29024C0.525879 1.15411 1.48527 0.233093 2.66874 0.233093H28.383C29.5665 0.233093 30.5259 1.15411 30.5259 2.29024ZM6.76002 3.83309C8.21482 3.83309 9.39417 5.01244 9.39417 6.46724C9.39417 7.92204 8.21482 9.10139 6.76002 9.10139C5.30523 9.10139 4.12588 7.92204 4.12588 6.46724C4.12588 5.01244 5.30523 3.83309 6.76002 3.83309ZM4.6527 10.6819H8.86734V25.4331H4.6527V10.6819ZM25.7259 17.6149C25.7259 12.9788 24.1875 10.2604 19.6989 10.2604C17.7958 10.2606 16.0179 11.2089 14.9575 12.7892V10.6819H10.9747V25.4331H15.1893V18.5422C15.0774 17.5311 15.3905 16.519 16.0539 15.7478C16.7172 14.9766 17.671 14.5156 18.6874 14.475C21.1319 14.475 21.5112 16.8774 21.5112 18.5422V25.4331H25.7259V17.6149Z" fill="white"/>
<path d="M74.5031 16.4727L79.2538 22.3149H75.5025L71.2745 16.9493V22.3149H68.1997V6.94057H71.2745V15.9807L75.1796 11.5529H79.1001L74.5031 16.4727ZM62.2037 11.2454C60.837 11.2658 59.5674 11.9553 58.8059 13.0903V11.5529H55.9002V22.3149H58.9751V17.2875C58.8934 16.5499 59.1219 15.8115 59.6058 15.2488C60.0898 14.6862 60.7857 14.3499 61.5272 14.3202C63.3106 14.3202 63.5874 16.0729 63.5874 17.2875V22.3149H66.6622V16.611C66.6622 13.2287 65.5399 11.2454 62.2652 11.2454H62.2037ZM89.7237 17.1799C89.7355 17.4052 89.7355 17.631 89.7237 17.8563H81.6522V17.964C81.9228 19.2883 83.1152 20.2201 84.4657 20.1625C85.5136 20.208 86.535 19.825 87.2946 19.1017L89.3393 20.6391C88.0288 21.9765 86.2137 22.6969 84.3427 22.6224C82.7924 22.7204 81.2757 22.1417 80.1847 21.036C79.0936 19.9302 78.5354 18.4059 78.6542 16.857C78.6224 15.3294 79.227 13.8574 80.3233 12.7931C81.4196 11.7289 82.909 11.1682 84.4349 11.2454C87.3253 11.2454 89.7237 13.2902 89.7237 17.1799ZM86.8641 15.8577C86.8413 15.2422 86.5666 14.6632 86.1043 14.2562C85.6421 13.8492 85.033 13.65 84.4196 13.7053C83.0676 13.5591 81.8433 14.5113 81.6522 15.8577H86.8641ZM43.6007 6.94057H40.5259V22.3149H49.7505V19.24H43.6007V6.94057ZM98.9483 6.94057H102.023V22.3149H99.1174V21.2387C98.3692 22.1605 97.2287 22.6737 96.0426 22.6224C94.5982 22.5853 93.2332 21.9538 92.2698 20.8769C91.3065 19.8001 90.8303 18.3734 90.9537 16.9339C90.8068 15.4917 91.2728 14.0542 92.2377 12.9723C93.2026 11.8905 94.5776 11.2638 96.0272 11.2454C97.1058 11.1982 98.1582 11.5859 98.9483 12.3216V6.94057ZM99.1789 16.9339C99.2768 16.2156 99.0588 15.4901 98.5812 14.9447C98.1036 14.3993 97.4132 14.0874 96.6883 14.0896C95.2174 14.1964 94.103 15.4613 94.1823 16.9339C94.103 18.4065 95.2174 19.6713 96.6883 19.7781C97.4132 19.7803 98.1036 19.4685 98.5812 18.9231C99.0588 18.3777 99.2768 17.6522 99.1789 16.9339ZM52.8253 6.63309C51.7995 6.64769 50.96 7.45366 50.9035 8.47801C50.9035 9.53938 51.764 10.3998 52.8253 10.3998C53.8867 10.3998 54.7471 9.53938 54.7471 8.47801C54.6907 7.45366 53.8511 6.64769 52.8253 6.63309ZM51.2879 22.3149H54.3628V11.5529H51.2879V22.3149Z" fill="white"/>
</svg>
