<svg width="125" height="30" viewBox="0 0 125 30" fill="none" xmlns="http://www.w3.org/2000/svg">
<path d="M15 30C23.2844 30 30 23.2844 30 15C30 6.71558 23.2844 0 15 0C6.71558 0 0 6.71558 0 15C0 23.2844 6.71558 30 15 30ZM6.86544 14.6769L21.3269 9.09928C21.9966 8.85576 22.5866 9.26319 22.3665 10.2794L19.9032 21.8795C19.7206 22.7037 19.2335 22.9004 18.5498 22.5164L14.7986 19.7534L12.9909 21.4955C12.7896 21.6968 12.621 21.8654 12.237 21.8654L12.5039 18.0487L19.4536 11.7687C19.758 11.5017 19.3881 11.3519 18.9853 11.6188L10.3965 17.0231L6.69216 15.8664C5.89135 15.6088 5.87262 15.0609 6.86544 14.6769Z" fill="#94979E"/>
<path d="M43.9568 19.8623V9.63347H40V7.25636H50.7752V9.63347H46.8184V19.8623H43.9568Z" fill="#94979E"/>
<path d="M55.871 20.0064C54.7876 20.0064 53.8337 19.7903 53.0094 19.3581C52.1968 18.9258 51.5668 18.3376 51.1193 17.5932C50.6718 16.8369 50.448 15.9785 50.448 15.018C50.448 14.0455 50.6659 13.1871 51.1016 12.4428C51.5491 11.6864 52.1556 11.0982 52.921 10.678C53.6865 10.2458 54.552 10.0297 55.5177 10.0297C56.448 10.0297 57.2841 10.2338 58.026 10.6419C58.7797 11.0381 59.3744 11.6144 59.8101 12.3708C60.2458 13.1151 60.4637 14.0095 60.4637 15.054C60.4637 15.1621 60.4578 15.2881 60.446 15.4322C60.4343 15.5643 60.4225 15.6903 60.4107 15.8104H52.6914V14.1716H58.9622L57.9024 14.6578C57.9024 14.1536 57.8023 13.7154 57.6021 13.3432C57.4019 12.971 57.1251 12.6829 56.7719 12.4788C56.4186 12.2627 56.0064 12.1547 55.5354 12.1547C55.0643 12.1547 54.6462 12.2627 54.2812 12.4788C53.9279 12.6829 53.6512 12.977 53.451 13.3612C53.2508 13.7334 53.1507 14.1776 53.1507 14.6939V15.1261C53.1507 15.6543 53.2625 16.1225 53.4863 16.5307C53.7218 16.9269 54.0457 17.2331 54.4578 17.4492C54.8818 17.6532 55.3764 17.7553 55.9416 17.7553C56.448 17.7553 56.8896 17.6773 57.2665 17.5212C57.6551 17.3651 58.0084 17.131 58.3263 16.8189L59.7925 18.4396C59.3567 18.9439 58.8091 19.334 58.1497 19.6102C57.4902 19.8743 56.7306 20.0064 55.871 20.0064Z" fill="#94979E"/>
<path d="M62.2983 19.8623V6.5H65.0539V19.8623H62.2983Z" fill="#94979E"/>
<path d="M72.3278 20.0064C71.2444 20.0064 70.2905 19.7903 69.4661 19.3581C68.6536 18.9258 68.0236 18.3376 67.5761 17.5932C67.1286 16.8369 66.9048 15.9785 66.9048 15.018C66.9048 14.0455 67.1227 13.1871 67.5584 12.4428C68.0059 11.6864 68.6124 11.0982 69.3778 10.678C70.1433 10.2458 71.0088 10.0297 71.9745 10.0297C72.9048 10.0297 73.7409 10.2338 74.4828 10.6419C75.2365 11.0381 75.8312 11.6144 76.2669 12.3708C76.7026 13.1151 76.9205 14.0095 76.9205 15.054C76.9205 15.1621 76.9146 15.2881 76.9028 15.4322C76.891 15.5643 76.8793 15.6903 76.8675 15.8104H69.1482V14.1716H75.419L74.3592 14.6578C74.3592 14.1536 74.2591 13.7154 74.0589 13.3432C73.8587 12.971 73.5819 12.6829 73.2286 12.4788C72.8754 12.2627 72.4632 12.1547 71.9921 12.1547C71.5211 12.1547 71.103 12.2627 70.738 12.4788C70.3847 12.6829 70.108 12.977 69.9078 13.3612C69.7076 13.7334 69.6075 14.1776 69.6075 14.6939V15.1261C69.6075 15.6543 69.7193 16.1225 69.9431 16.5307C70.1786 16.9269 70.5025 17.2331 70.9146 17.4492C71.3386 17.6532 71.8332 17.7553 72.3984 17.7553C72.9048 17.7553 73.3464 17.6773 73.7232 17.5212C74.1119 17.3651 74.4651 17.131 74.7831 16.8189L76.2492 18.4396C75.8135 18.9439 75.2659 19.334 74.6065 19.6102C73.947 19.8743 73.1874 20.0064 72.3278 20.0064Z" fill="#94979E"/>
<path d="M83.2242 23.5C82.3292 23.5 81.4636 23.3859 80.6275 23.1578C79.8032 22.9417 79.1143 22.6116 78.5608 22.1674L79.656 20.1504C80.0564 20.4866 80.5627 20.7507 81.1751 20.9428C81.7992 21.1469 82.4116 21.2489 83.0122 21.2489C83.9896 21.2489 84.6962 21.0268 85.1319 20.5826C85.5794 20.1384 85.8032 19.4781 85.8032 18.6017V17.143L85.9798 14.7119L85.9445 12.2627V10.1737H88.5588V18.2415C88.5588 20.0424 88.0995 21.369 87.181 22.2214C86.2624 23.0738 84.9435 23.5 83.2242 23.5ZM82.8002 19.3941C81.917 19.3941 81.1162 19.202 80.3979 18.8178C79.6913 18.4216 79.1202 17.8754 78.6844 17.179C78.2605 16.4707 78.0485 15.6483 78.0485 14.7119C78.0485 13.7634 78.2605 12.941 78.6844 12.2447C79.1202 11.5364 79.6913 10.9901 80.3979 10.6059C81.1162 10.2218 81.917 10.0297 82.8002 10.0297C83.601 10.0297 84.3076 10.1977 84.9199 10.5339C85.5323 10.8581 86.0092 11.3683 86.3507 12.0646C86.6923 12.7489 86.863 13.6314 86.863 14.7119C86.863 15.7804 86.6923 16.6628 86.3507 17.3591C86.0092 18.0434 85.5323 18.5537 84.9199 18.8898C84.3076 19.226 83.601 19.3941 82.8002 19.3941ZM83.3478 17.089C83.8306 17.089 84.2605 16.9929 84.6373 16.8008C85.0141 16.5968 85.3086 16.3146 85.5205 15.9544C85.7325 15.5943 85.8385 15.1801 85.8385 14.7119C85.8385 14.2316 85.7325 13.8174 85.5205 13.4693C85.3086 13.1091 85.0141 12.833 84.6373 12.6409C84.2605 12.4368 83.8306 12.3347 83.3478 12.3347C82.865 12.3347 82.4352 12.4368 82.0583 12.6409C81.6815 12.833 81.3812 13.1091 81.1574 13.4693C80.9455 13.8174 80.8395 14.2316 80.8395 14.7119C80.8395 15.1801 80.9455 15.5943 81.1574 15.9544C81.3812 16.3146 81.6815 16.5968 82.0583 16.8008C82.4352 16.9929 82.865 17.089 83.3478 17.089Z" fill="#94979E"/>
<path d="M91.1236 19.8623V10.1737H93.7555V12.911L93.3846 12.1186C93.6672 11.4343 94.1206 10.9181 94.7447 10.5699C95.3689 10.2097 96.1285 10.0297 97.0234 10.0297V12.6229C96.9057 12.6109 96.7997 12.6049 96.7055 12.6049C96.6113 12.5929 96.5112 12.5869 96.4052 12.5869C95.6515 12.5869 95.0392 12.809 94.5681 13.2532C94.1088 13.6854 93.8792 14.3637 93.8792 15.2881V19.8623H91.1236Z" fill="#94979E"/>
<path d="M103.87 19.8623V17.9714L103.694 17.5572V14.1716C103.694 13.5713 103.511 13.1031 103.146 12.7669C102.793 12.4308 102.245 12.2627 101.503 12.2627C100.997 12.2627 100.496 12.3468 100.002 12.5148C99.5188 12.6709 99.1067 12.887 98.7652 13.1631L97.776 11.2002C98.2941 10.828 98.9183 10.5399 99.6484 10.3358C100.379 10.1317 101.12 10.0297 101.874 10.0297C103.323 10.0297 104.447 10.3778 105.248 11.0742C106.049 11.7705 106.449 12.857 106.449 14.3337V19.8623H103.87ZM100.973 20.0064C100.231 20.0064 99.5954 19.8803 99.0655 19.6282C98.5355 19.3641 98.1293 19.0099 97.8466 18.5657C97.564 18.1215 97.4227 17.6232 97.4227 17.071C97.4227 16.4947 97.5581 15.9905 97.829 15.5583C98.1116 15.1261 98.5532 14.7899 99.1538 14.5498C99.7544 14.2977 100.537 14.1716 101.503 14.1716H104.029V15.8104H101.803C101.156 15.8104 100.708 15.9184 100.461 16.1345C100.225 16.3506 100.108 16.6208 100.108 16.9449C100.108 17.3051 100.243 17.5932 100.514 17.8093C100.797 18.0134 101.179 18.1155 101.662 18.1155C102.121 18.1155 102.534 18.0074 102.899 17.7913C103.264 17.5632 103.529 17.233 103.694 16.8008L104.117 18.0975C103.917 18.7218 103.552 19.196 103.022 19.5201C102.492 19.8443 101.809 20.0064 100.973 20.0064Z" fill="#94979E"/>
<path d="M121.114 10.0297C121.868 10.0297 122.533 10.1857 123.11 10.4979C123.699 10.798 124.158 11.2662 124.488 11.9025C124.829 12.5268 125 13.3312 125 14.3157V19.8623H122.244V14.7479C122.244 13.9675 122.085 13.3912 121.767 13.0191C121.449 12.6469 121.002 12.4608 120.425 12.4608C120.025 12.4608 119.665 12.5568 119.347 12.7489C119.029 12.929 118.782 13.2052 118.606 13.5773C118.429 13.9495 118.341 14.4237 118.341 15V19.8623H115.585V14.7479C115.585 13.9675 115.426 13.3912 115.108 13.0191C114.802 12.6469 114.36 12.4608 113.783 12.4608C113.383 12.4608 113.024 12.5568 112.706 12.7489C112.388 12.929 112.14 13.2052 111.964 13.5773C111.787 13.9495 111.699 14.4237 111.699 15V19.8623H108.943V10.1737H111.575V12.821L111.081 12.0466C111.41 11.3863 111.875 10.8881 112.476 10.5519C113.088 10.2037 113.783 10.0297 114.56 10.0297C115.432 10.0297 116.191 10.2578 116.839 10.714C117.499 11.1582 117.934 11.8425 118.146 12.7669L117.175 12.4968C117.493 11.7405 117.999 11.1402 118.694 10.696C119.4 10.2518 120.207 10.0297 121.114 10.0297Z" fill="#94979E"/>
</svg>
