<svg width="126" height="31" viewBox="0 0 126 31" fill="none" xmlns="http://www.w3.org/2000/svg">
<path d="M15.7745 30.6331C24.059 30.6331 30.7745 23.9175 30.7745 15.6331C30.7745 7.34868 24.059 0.633102 15.7745 0.633102C7.49011 0.633102 0.774536 7.34868 0.774536 15.6331C0.774536 23.9175 7.49011 30.6331 15.7745 30.6331ZM7.63998 15.31L22.1014 9.73238C22.7711 9.48886 23.3612 9.89629 23.1411 10.9125L20.6778 22.5126C20.4951 23.3368 20.0081 23.5335 19.3243 23.1495L15.5732 20.3865L13.7655 22.1286C13.5641 22.33 13.3955 22.4985 13.0115 22.4985L13.2784 18.6818L20.2282 12.4018C20.5326 12.1348 20.1626 11.985 19.7599 12.2519L11.171 17.6562L7.4667 16.4995C6.66589 16.2419 6.64716 15.694 7.63998 15.31Z" fill="white"/>
<path d="M44.7313 20.4954V10.2666H40.7745V7.88946H51.5498V10.2666H47.593V20.4954H44.7313Z" fill="white"/>
<path d="M56.6455 20.6395C55.5621 20.6395 54.6082 20.4234 53.7839 19.9912C52.9713 19.5589 52.3413 18.9707 51.8938 18.2263C51.4463 17.47 51.2226 16.6116 51.2226 15.6511C51.2226 14.6787 51.4404 13.8202 51.8761 13.0759C52.3236 12.3195 52.9301 11.7313 53.6956 11.3111C54.461 10.8789 55.3266 10.6628 56.2922 10.6628C57.2225 10.6628 58.0587 10.8669 58.8006 11.2751C59.5542 11.6712 60.1489 12.2475 60.5847 13.0039C61.0204 13.7482 61.2382 14.6426 61.2382 15.6871C61.2382 15.7952 61.2323 15.9212 61.2206 16.0653C61.2088 16.1974 61.197 16.3234 61.1852 16.4435H53.4659V14.8047H59.7368L58.6769 15.2909C58.6769 14.7867 58.5768 14.3485 58.3766 13.9763C58.1764 13.6041 57.8997 13.316 57.5464 13.1119C57.1931 12.8958 56.7809 12.7878 56.3099 12.7878C55.8388 12.7878 55.4208 12.8958 55.0557 13.1119C54.7024 13.316 54.4257 13.6101 54.2255 13.9943C54.0253 14.3665 53.9252 14.8107 53.9252 15.327V15.7592C53.9252 16.2874 54.0371 16.7556 54.2608 17.1638C54.4964 17.56 54.8202 17.8662 55.2324 18.0823C55.6563 18.2864 56.1509 18.3884 56.7162 18.3884C57.2225 18.3884 57.6642 18.3104 58.041 18.1543C58.4296 17.9982 58.7829 17.7641 59.1008 17.452L60.567 19.0727C60.1313 19.577 59.5837 19.9671 58.9242 20.2433C58.2647 20.5074 57.5052 20.6395 56.6455 20.6395Z" fill="white"/>
<path d="M63.0728 20.4954V7.1331H65.8285V20.4954H63.0728Z" fill="white"/>
<path d="M73.1023 20.6395C72.0189 20.6395 71.065 20.4234 70.2407 19.9912C69.4281 19.5589 68.7981 18.9707 68.3506 18.2263C67.9031 17.47 67.6794 16.6116 67.6794 15.6511C67.6794 14.6787 67.8972 13.8202 68.3329 13.0759C68.7804 12.3195 69.3869 11.7313 70.1524 11.3111C70.9178 10.8789 71.7834 10.6628 72.749 10.6628C73.6793 10.6628 74.5154 10.8669 75.2574 11.2751C76.011 11.6712 76.6057 12.2475 77.0414 13.0039C77.4772 13.7482 77.695 14.6426 77.695 15.6871C77.695 15.7952 77.6891 15.9212 77.6774 16.0653C77.6656 16.1974 77.6538 16.3234 77.642 16.4435H69.9227V14.8047H76.1936L75.1337 15.2909C75.1337 14.7867 75.0336 14.3485 74.8334 13.9763C74.6332 13.6041 74.3565 13.316 74.0032 13.1119C73.6499 12.8958 73.2377 12.7878 72.7667 12.7878C72.2956 12.7878 71.8776 12.8958 71.5125 13.1119C71.1592 13.316 70.8825 13.6101 70.6823 13.9943C70.4821 14.3665 70.382 14.8107 70.382 15.327V15.7592C70.382 16.2874 70.4939 16.7556 70.7176 17.1638C70.9531 17.56 71.277 17.8662 71.6892 18.0823C72.1131 18.2864 72.6077 18.3884 73.173 18.3884C73.6793 18.3884 74.1209 18.3104 74.4978 18.1543C74.8864 17.9982 75.2397 17.7641 75.5576 17.452L77.0238 19.0727C76.5881 19.577 76.0405 19.9671 75.381 20.2433C74.7215 20.5074 73.962 20.6395 73.1023 20.6395Z" fill="white"/>
<path d="M83.9987 24.1331C83.1037 24.1331 82.2382 24.019 81.402 23.7909C80.5777 23.5748 79.8888 23.2447 79.3353 22.8005L80.4305 20.7835C80.8309 21.1197 81.3373 21.3838 81.9496 21.5759C82.5738 21.78 83.1861 21.882 83.7867 21.882C84.7642 21.882 85.4707 21.6599 85.9064 21.2157C86.3539 20.7715 86.5777 20.1112 86.5777 19.2348V17.7761L86.7543 15.345L86.719 12.8958V10.8068H89.3333V18.8746C89.3333 20.6755 88.8741 22.0021 87.9555 22.8545C87.037 23.7069 85.718 24.1331 83.9987 24.1331ZM83.5748 20.0272C82.6915 20.0272 81.8908 19.8351 81.1724 19.4509C80.4658 19.0547 79.8947 18.5085 79.459 17.8121C79.035 17.1038 78.8231 16.2814 78.8231 15.345C78.8231 14.3965 79.035 13.5741 79.459 12.8778C79.8947 12.1695 80.4658 11.6232 81.1724 11.239C81.8908 10.8549 82.6915 10.6628 83.5748 10.6628C84.3755 10.6628 85.0821 10.8308 85.6945 11.167C86.3068 11.4912 86.7838 12.0014 87.1253 12.6977C87.4668 13.382 87.6375 14.2645 87.6375 15.345C87.6375 16.4135 87.4668 17.2959 87.1253 17.9922C86.7838 18.6765 86.3068 19.1868 85.6945 19.5229C85.0821 19.8591 84.3755 20.0272 83.5748 20.0272ZM84.1223 17.7221C84.6052 17.7221 85.035 17.626 85.4118 17.4339C85.7887 17.2299 86.0831 16.9477 86.2951 16.5876C86.507 16.2274 86.613 15.8132 86.613 15.345C86.613 14.8647 86.507 14.4505 86.2951 14.1024C86.0831 13.7422 85.7887 13.4661 85.4118 13.274C85.035 13.0699 84.6052 12.9678 84.1223 12.9678C83.6395 12.9678 83.2097 13.0699 82.8329 13.274C82.456 13.4661 82.1557 13.7422 81.932 14.1024C81.72 14.4505 81.614 14.8647 81.614 15.345C81.614 15.8132 81.72 16.2274 81.932 16.5876C82.1557 16.9477 82.456 17.2299 82.8329 17.4339C83.2097 17.626 83.6395 17.7221 84.1223 17.7221Z" fill="white"/>
<path d="M91.8981 20.4954V10.8068H94.5301V13.5441L94.1591 12.7517C94.4418 12.0674 94.8951 11.5512 95.5193 11.203C96.1434 10.8428 96.903 10.6628 97.798 10.6628V13.256C97.6802 13.244 97.5742 13.238 97.48 13.238C97.3858 13.226 97.2857 13.22 97.1797 13.22C96.426 13.22 95.8137 13.4421 95.3426 13.8863C94.8834 14.3185 94.6537 14.9968 94.6537 15.9212V20.4954H91.8981Z" fill="white"/>
<path d="M104.645 20.4954V18.6045L104.468 18.1903V14.8047C104.468 14.2044 104.286 13.7362 103.92 13.4001C103.567 13.0639 103.02 12.8958 102.278 12.8958C101.771 12.8958 101.271 12.9799 100.776 13.1479C100.293 13.304 99.8812 13.5201 99.5397 13.7962L98.5505 11.8333C99.0687 11.4611 99.6928 11.173 100.423 10.9689C101.153 10.7648 101.895 10.6628 102.649 10.6628C104.097 10.6628 105.222 11.0109 106.023 11.7073C106.823 12.4036 107.224 13.4901 107.224 14.9668V20.4954H104.645ZM101.748 20.6395C101.006 20.6395 100.37 20.5134 99.84 20.2613C99.3101 19.9972 98.9038 19.643 98.6212 19.1988C98.3385 18.7546 98.1972 18.2563 98.1972 17.7041C98.1972 17.1278 98.3326 16.6236 98.6035 16.1914C98.8861 15.7592 99.3277 15.423 99.9283 15.1829C100.529 14.9308 101.312 14.8047 102.278 14.8047H104.804V16.4435H102.578C101.93 16.4435 101.483 16.5515 101.235 16.7676C101 16.9837 100.882 17.2539 100.882 17.578C100.882 17.9382 101.018 18.2263 101.288 18.4424C101.571 18.6465 101.954 18.7486 102.437 18.7486C102.896 18.7486 103.308 18.6405 103.673 18.4244C104.038 18.1963 104.303 17.8662 104.468 17.4339L104.892 18.7306C104.692 19.3549 104.327 19.8291 103.797 20.1532C103.267 20.4774 102.584 20.6395 101.748 20.6395Z" fill="white"/>
<path d="M121.888 10.6628C122.642 10.6628 123.307 10.8188 123.884 11.131C124.473 11.4311 124.933 11.8993 125.262 12.5356C125.604 13.1599 125.775 13.9643 125.775 14.9488V20.4954H123.019V15.381C123.019 14.6006 122.86 14.0243 122.542 13.6522C122.224 13.28 121.777 13.0939 121.199 13.0939C120.799 13.0939 120.44 13.19 120.122 13.382C119.804 13.5621 119.557 13.8383 119.38 14.2104C119.203 14.5826 119.115 15.0568 119.115 15.6331V20.4954H116.359V15.381C116.359 14.6006 116.2 14.0243 115.883 13.6522C115.576 13.28 115.135 13.0939 114.558 13.0939C114.157 13.0939 113.798 13.19 113.48 13.382C113.162 13.5621 112.915 13.8383 112.738 14.2104C112.562 14.5826 112.473 15.0568 112.473 15.6331V20.4954H109.718V10.8068H112.35V13.4541L111.855 12.6797C112.185 12.0194 112.65 11.5212 113.251 11.185C113.863 10.8368 114.558 10.6628 115.335 10.6628C116.206 10.6628 116.966 10.8909 117.614 11.3471C118.273 11.7913 118.709 12.4756 118.921 13.4001L117.949 13.1299C118.267 12.3736 118.774 11.7733 119.468 11.3291C120.175 10.8849 120.982 10.6628 121.888 10.6628Z" fill="white"/>
</svg>
