<svg width="131" height="26" viewBox="0 0 131 26" fill="none" xmlns="http://www.w3.org/2000/svg">
<path d="M30.1406 4.09191C29.0368 4.58143 27.8506 4.91227 26.6056 5.06107C27.8764 4.2993 28.8522 3.09311 29.3118 1.65594C28.1226 2.36119 26.8054 2.87343 25.4034 3.14952C24.2806 1.95331 22.6811 1.20581 20.9108 1.20581C17.5116 1.20581 14.7558 3.96154 14.7558 7.36053C14.7558 7.84292 14.8103 8.31269 14.9152 8.76315C9.7999 8.50648 5.26473 6.05613 2.22907 2.33244C1.69928 3.24147 1.39575 4.29875 1.39575 5.4267C1.39575 7.562 2.48244 9.44591 4.13393 10.5496C3.12493 10.5177 2.17596 10.2408 1.34605 9.77983C1.34561 9.8055 1.34561 9.83129 1.34561 9.85719C1.34561 12.8393 3.46719 15.327 6.28284 15.8923C5.76632 16.033 5.2226 16.1081 4.6612 16.1081C4.26462 16.1081 3.87902 16.0696 3.50329 15.9978C4.28646 18.4431 6.55948 20.2225 9.25277 20.2722C7.14633 21.9229 4.49243 22.9069 1.60886 22.9069C1.11209 22.9069 0.622135 22.8778 0.140625 22.821C2.86443 24.5673 6.09969 25.5861 9.5755 25.5861C20.8965 25.5861 27.0872 16.2076 27.0872 8.07424C27.0872 7.80737 27.0813 7.54192 27.0694 7.27801C28.2719 6.41024 29.3154 5.32619 30.1406 4.09191Z" fill="#94979E"/>
<path d="M51.2667 17.6594C49.575 17.5258 47.8685 17.6742 46.162 17.5258C45.3458 17.4368 44.6781 16.7096 44.5297 15.9232C44.4258 15.107 44.4703 14.276 44.4406 13.445C46.7111 13.4153 48.9815 13.5489 51.237 13.3708C52.3351 13.1927 53.181 11.9166 52.8545 10.8333C52.7506 9.97261 51.979 9.30485 51.148 9.17129C48.9369 9.06742 46.7111 9.15645 44.5 9.14161C44.4852 8.2661 44.4852 7.37574 44.411 6.50023C44.2477 5.38728 42.9716 4.61564 41.9031 4.92726C40.7308 5.10533 39.9889 6.38151 40.1669 7.5093C40.1669 10.2249 40.1076 12.9553 40.1966 15.6709C40.1818 18.3271 42.096 20.835 44.6336 21.6066C46.3104 22.126 48.0911 21.8885 49.8125 21.9182C50.7473 21.9182 51.9345 21.9479 52.4687 20.9982C53.4629 19.9001 52.7358 17.8819 51.2667 17.6594ZM75.4399 8.59256C76.4638 9.66099 78.571 9.14161 78.8974 7.65769C79.4316 6.1886 77.9477 4.49692 76.4341 4.89758C74.7721 5.10533 74.0895 7.59833 75.4399 8.59256ZM85.679 17.3477C84.8925 16.9916 84.8628 15.9677 84.7144 15.2554C85.9906 15.2406 87.2668 15.2702 88.5429 15.196C89.6114 15.3444 90.665 14.4392 90.6946 13.3856C90.9024 12.3024 90.0566 11.2636 89.0475 11.0262C87.5487 10.8481 86.05 10.9223 84.5512 10.9075C84.5215 9.31969 84.6402 7.71705 84.4176 6.14408C83.9279 4.82339 81.9692 4.42273 81.0046 5.46148C80.0697 6.17376 80.3072 7.52413 80.2181 8.54804C80.233 11.9611 80.0994 15.567 81.4053 18.7871C82.5034 21.4285 85.6641 22.2002 88.2462 21.8885C89.3294 21.9776 90.4721 21.2801 90.6798 20.1672C90.8727 19.3956 90.5166 18.6387 90.0269 18.0452C88.7359 17.229 87.059 17.8968 85.679 17.3477ZM96.7491 17.2587C96.0665 16.8432 96.1258 15.9083 96.0219 15.2257C97.4762 15.2257 98.9304 15.2851 100.385 15.1664C101.349 15.0476 101.869 14.1128 101.987 13.2521C102.091 12.2133 101.305 11.234 100.325 11.0262C98.8266 10.8481 97.3278 10.9223 95.829 10.9075C95.8142 9.40872 95.8884 7.89512 95.7252 6.38151C95.6361 5.80278 95.1464 5.38728 94.6716 5.09049C93.8702 4.63048 92.8315 4.9421 92.1341 5.46148C91.6444 6.12924 91.4366 6.97508 91.4663 7.80608C91.2882 9.94294 91.496 12.0798 91.6295 14.2166C91.8818 16.1754 92.0895 18.2974 93.336 19.9298C95.0574 21.9479 97.9956 22.2002 100.444 21.7847C101.794 21.4137 102.477 19.6627 101.616 18.4755C100.429 16.9471 98.2775 18.06 96.7491 17.2587ZM72.1901 10.0765C71.2404 9.60163 70.0384 10.2546 69.6526 11.1746C69.1629 12.7179 69.519 14.3799 69.3706 15.9677C69.608 17.14 68.3022 18.0452 67.2338 17.8226C66.5066 17.7781 65.9724 17.1845 65.7498 16.5316C65.364 14.5728 66.284 12.2727 65.0672 10.5068C64.5479 10.1655 63.9098 9.7797 63.2568 9.95777C62.3813 10.1358 61.6542 10.9223 61.5503 11.8127C61.491 13.3411 61.5948 14.8696 61.4761 16.3832C61.3574 17.1103 60.749 17.7632 59.9922 17.8226C58.8496 18.0749 57.7811 17.0658 57.6921 15.9677C57.6031 14.365 57.7811 12.7624 57.5734 11.1746C57.1579 10.3584 56.1488 9.66099 55.1991 10.0023C54.1604 10.1358 53.6113 11.3081 53.6855 12.2579C53.641 14.0386 53.5371 15.8638 53.9378 17.6148C54.6946 20.4046 57.7069 22.3189 60.5561 21.8144C61.6987 21.6956 62.6484 21.0279 63.613 20.4491C64.7704 21.2801 66.1357 21.9776 67.6196 21.8885C70.6023 21.9331 73.303 19.351 73.5256 16.398C73.6146 14.7954 73.6295 13.1927 73.4663 11.6049C73.3921 10.8926 72.8282 10.3436 72.1901 10.0765ZM113.725 11.5604C111.648 9.88358 108.68 9.69067 106.202 10.492C104.762 10.9817 103.605 12.154 103.056 13.5786C102.076 15.9825 102.833 19.0691 105.029 20.553C106.869 22.0815 109.451 22.1705 111.692 21.5918C112.968 21.3395 114.304 20.6569 114.838 19.3955C115.209 18.6684 114.66 17.6148 113.814 17.5406C112.642 17.3329 111.692 18.1936 110.579 18.4013C109.303 18.6239 107.611 18.52 106.973 17.1993C109.229 17.1103 111.499 17.2439 113.755 17.1103C114.452 17.0806 115.283 16.7987 115.506 16.0716C115.818 14.3799 115.046 12.6288 113.725 11.5604ZM107.018 14.3205C107.819 12.6882 110.564 12.6585 111.395 14.276C109.941 14.3354 108.472 14.3502 107.018 14.3205ZM125.196 10.032C123.935 9.97261 122.658 9.98745 121.397 10.121C118.815 10.3584 116.559 12.6585 116.352 15.2406C116.218 16.9471 116.218 18.6536 116.367 20.3601C116.441 21.0279 117.064 21.473 117.613 21.7847C118.8 22.304 120.225 21.2208 120.284 19.9891C120.344 18.5052 120.24 17.0213 120.358 15.5522C120.477 14.7657 121.145 14.1424 121.931 14.0831C123.148 14.0089 124.365 14.0534 125.582 13.9495C126.264 13.8902 126.695 13.2669 127.006 12.7179C127.526 11.5307 126.457 10.0765 125.196 10.032ZM76.5825 10.6997C75.7515 10.8036 74.9057 11.3972 74.8018 12.2875C74.6682 14.7509 74.7127 17.2142 74.7721 19.6775C74.594 20.9685 75.9444 22.1557 77.2057 21.8292C78.1851 21.6956 78.9568 20.7904 79.0161 19.8259C79.0903 17.3774 79.1349 14.9141 78.9568 12.4656C78.8232 11.3823 77.6806 10.492 76.5825 10.6997Z" fill="#8E9199"/>
</svg>
