<svg width="128" height="25" viewBox="0 0 128 25" fill="none" xmlns="http://www.w3.org/2000/svg">
<path d="M30.7745 3.32903C29.6707 3.81855 28.4845 4.1494 27.2394 4.29819C28.5103 3.53642 29.4861 2.33024 29.9457 0.893058C28.7565 1.59831 27.4393 2.11055 26.0373 2.38664C24.9145 1.19044 23.3149 0.442932 21.5447 0.442932C18.1455 0.442932 15.3897 3.19867 15.3897 6.59766C15.3897 7.08004 15.4442 7.54981 15.5491 8.00027C10.4338 7.7436 5.89861 5.29326 2.86295 1.56956C2.33316 2.4786 2.02964 3.53588 2.02964 4.66383C2.02964 6.79913 3.11632 8.68303 4.76781 9.78673C3.75881 9.75479 2.80984 9.47794 1.97993 9.01695C1.97949 9.04262 1.97949 9.06841 1.97949 9.09431C1.97949 12.0764 4.10107 14.5641 6.91672 15.1294C6.40021 15.2701 5.85648 15.3453 5.29508 15.3453C4.8985 15.3453 4.5129 15.3068 4.13717 15.2349C4.92034 17.6802 7.19336 19.4596 9.88665 19.5093C7.78021 21.16 5.12631 22.144 2.24274 22.144C1.74597 22.144 1.25602 22.1149 0.774506 22.0581C3.49831 23.8044 6.73357 24.8233 10.2094 24.8233C21.5303 24.8233 27.7211 15.4447 27.7211 7.31136C27.7211 7.04449 27.7151 6.77904 27.7033 6.51514C28.9057 5.64736 29.9493 4.56331 30.7745 3.32903Z" fill="white"/>
<path d="M51.9006 16.8965C50.2089 16.763 48.5024 16.9113 46.7959 16.763C45.9797 16.6739 45.312 15.9468 45.1636 15.1603C45.0597 14.3442 45.1042 13.5132 45.0745 12.6822C47.3449 12.6525 49.6153 12.786 51.8709 12.608C52.969 12.4299 53.8149 11.1537 53.4884 10.0704C53.3845 9.20977 52.6129 8.542 51.7819 8.40845C49.5708 8.30457 47.3449 8.39361 45.1339 8.37877C45.119 7.50325 45.119 6.61289 45.0448 5.73738C44.8816 4.62443 43.6054 3.85279 42.537 4.16441C41.3647 4.34249 40.6227 5.61866 40.8008 6.74645C40.8008 9.46203 40.7415 12.1925 40.8305 14.908C40.8157 17.5643 42.7299 20.0721 45.2674 20.8438C46.9443 21.3631 48.725 21.1257 50.4463 21.1554C51.3812 21.1554 52.5684 21.1851 53.1026 20.2353C54.0968 19.1372 53.3697 17.1191 51.9006 16.8965ZM76.0738 7.82971C77.0977 8.89814 79.2048 8.37877 79.5313 6.89484C80.0655 5.42575 78.5816 3.73408 77.068 4.13474C75.406 4.34249 74.7234 6.83548 76.0738 7.82971ZM86.3129 16.5849C85.5264 16.2287 85.4967 15.2048 85.3483 14.4925C86.6245 14.4777 87.9007 14.5074 89.1768 14.4332C90.2453 14.5816 91.2988 13.6764 91.3285 12.6228C91.5363 11.5395 90.6904 10.5008 89.6814 10.2634C88.1826 10.0853 86.6838 10.1595 85.1851 10.1446C85.1554 8.55684 85.2741 6.9542 85.0515 5.38123C84.5618 4.06054 82.603 3.65988 81.6385 4.69863C80.7036 5.41091 80.941 6.76129 80.852 7.7852C80.8668 11.1982 80.7333 14.8042 82.0391 18.0243C83.1372 20.6657 86.298 21.4373 88.88 21.1257C89.9633 21.2147 91.1059 20.5173 91.3137 19.4043C91.5066 18.6327 91.1505 17.8759 90.6608 17.2823C89.3697 16.4662 87.6929 17.1339 86.3129 16.5849ZM97.3829 16.4958C96.7003 16.0803 96.7597 15.1455 96.6558 14.4629C98.1101 14.4629 99.5643 14.5222 101.019 14.4035C101.983 14.2848 102.502 13.3499 102.621 12.4892C102.725 11.4505 101.939 10.4711 100.959 10.2634C99.4604 10.0853 97.9617 10.1595 96.4629 10.1446C96.4481 8.64587 96.5223 7.13227 96.359 5.61866C96.27 5.03993 95.7803 4.62443 95.3054 4.32765C94.5041 3.86763 93.4654 4.17925 92.7679 4.69863C92.2782 5.3664 92.0705 6.21223 92.1002 7.04323C91.9221 9.18009 92.1298 11.3169 92.2634 13.4538C92.5157 15.4126 92.7234 17.5346 93.9699 19.1669C95.6913 21.1851 98.6294 21.4373 101.078 21.0218C102.428 20.6508 103.111 18.8998 102.25 17.7127C101.063 16.1842 98.9114 17.2972 97.3829 16.4958ZM72.824 9.31364C71.8742 8.83878 70.6723 9.49171 70.2864 10.4117C69.7967 11.955 70.1529 13.617 70.0045 15.2048C70.2419 16.3771 68.9361 17.2823 67.8676 17.0597C67.1405 17.0152 66.6063 16.4217 66.3837 15.7687C65.9979 13.8099 66.9179 11.5099 65.7011 9.74398C65.1817 9.40268 64.5436 9.01686 63.8907 9.19493C63.0152 9.373 62.2881 10.1595 62.1842 11.0498C62.1248 12.5783 62.2287 14.1067 62.11 15.6203C61.9913 16.3475 61.3829 17.0004 60.6261 17.0597C59.4835 17.312 58.415 16.3029 58.326 15.2048C58.237 13.6022 58.415 11.9995 58.2073 10.4117C57.7918 9.59559 56.7827 8.89814 55.833 9.23944C54.7942 9.373 54.2452 10.5453 54.3194 11.495C54.2749 13.2757 54.171 15.101 54.5717 16.852C55.3285 19.6418 58.3408 21.556 61.19 21.0515C62.3326 20.9328 63.2823 20.265 64.2469 19.6863C65.4043 20.5173 66.7695 21.2147 68.2535 21.1257C71.2362 21.1702 73.9369 18.5882 74.1595 15.6352C74.2485 14.0325 74.2634 12.4299 74.1001 10.8421C74.0259 10.1298 73.462 9.58075 72.824 9.31364ZM114.359 10.7976C112.282 9.12073 109.314 8.92782 106.836 9.72914C105.396 10.2188 104.239 11.3911 103.69 12.8157C102.71 15.2197 103.467 18.3062 105.663 19.7902C107.503 21.3186 110.085 21.4076 112.326 20.8289C113.602 20.5766 114.938 19.894 115.472 18.6327C115.843 17.9056 115.294 16.852 114.448 16.7778C113.276 16.57 112.326 17.4307 111.213 17.6385C109.937 17.8611 108.245 17.7572 107.607 16.4365C109.863 16.3475 112.133 16.481 114.389 16.3475C115.086 16.3178 115.917 16.0358 116.14 15.3087C116.451 13.617 115.68 11.866 114.359 10.7976ZM107.652 13.5577C108.453 11.9254 111.198 11.8957 112.029 13.5132C110.575 13.5725 109.106 13.5874 107.652 13.5577ZM125.83 9.26912C124.568 9.20977 123.292 9.22461 122.031 9.35816C119.449 9.59559 117.193 11.8957 116.986 14.4777C116.852 16.1842 116.852 17.8907 117 19.5973C117.075 20.265 117.698 20.7102 118.247 21.0218C119.434 21.5412 120.859 20.4579 120.918 19.2263C120.977 17.7423 120.874 16.2584 120.992 14.7893C121.111 14.0028 121.779 13.3796 122.565 13.3202C123.782 13.246 124.999 13.2906 126.216 13.1867C126.898 13.1273 127.329 12.5041 127.64 11.955C128.16 10.7679 127.091 9.31364 125.83 9.26912ZM77.2164 9.93689C76.3854 10.0408 75.5395 10.6343 75.4357 11.5247C75.3021 13.988 75.3466 16.4513 75.406 18.9146C75.2279 20.2057 76.5783 21.3928 77.8396 21.0663C78.819 20.9328 79.5907 20.0276 79.65 19.063C79.7242 16.6146 79.7687 14.1512 79.5907 11.7028C79.4571 10.6195 78.3145 9.72914 77.2164 9.93689Z" fill="white"/>
</svg>
