<svg width="135" height="31" viewBox="0 0 135 31" fill="none" xmlns="http://www.w3.org/2000/svg">
<path fill-rule="evenodd" clip-rule="evenodd" d="M2.61201 2.74193C0.503174 4.85077 0.503174 8.24488 0.503174 15.0331V16.2331C0.503174 23.0213 0.503174 26.4154 2.61201 28.5243C4.72084 30.6331 8.11495 30.6331 14.9032 30.6331H16.1032C22.8914 30.6331 26.2855 30.6331 28.3944 28.5243C30.5032 26.4154 30.5032 23.0213 30.5032 16.2331V15.0331C30.5032 8.24488 30.5032 4.85077 28.3944 2.74193C26.2855 0.633102 22.8914 0.633102 16.1032 0.633102H14.9032C8.11495 0.633102 4.72084 0.633102 2.61201 2.74193ZM5.56586 9.75823C5.72834 17.5582 9.62831 22.2457 16.4658 22.2457H16.8534V17.7832C19.3659 18.0332 21.2658 19.8707 22.0282 22.2457H25.5784C24.6034 18.6957 22.0407 16.7332 20.4407 15.9832C22.0407 15.0582 24.2907 12.8082 24.8282 9.75823H21.6031C20.9032 12.2332 18.8284 14.4832 16.8534 14.6957V9.75823H13.6283V18.4082C11.6283 17.9082 9.10334 15.4832 8.99084 9.75823H5.56586Z" fill="white"/>
<path d="M49.0961 17.865C49.0961 19.4831 47.5896 20.6549 45.4691 20.6549H40.5032V10.6112H45.3018C47.3664 10.6112 48.8171 11.7272 48.8171 13.2895C48.8171 14.3497 48.2591 15.0193 47.4222 15.4099C48.3149 15.7446 49.0961 16.6374 49.0961 17.865ZM42.6792 12.4525V14.6287H45.246C46.0272 14.6287 46.5293 14.1823 46.5293 13.5685C46.5293 12.9547 45.9713 12.4525 45.246 12.4525H42.6792ZM45.4691 18.8136C46.3062 18.8136 46.9201 18.3114 46.9201 17.586C46.9201 16.8606 46.362 16.3584 45.4691 16.3584H42.6792V18.8136H45.4691Z" fill="white"/>
<path d="M57.2984 20.5991L53.839 16.6374H53.2809V20.5991H51.0488V10.6112H53.2809V14.4613H53.839L57.1867 10.6112H59.8093L55.6243 15.4099L60.1998 20.5991H57.2984Z" fill="white"/>
<path d="M60.2 15.6331C60.2 12.62 62.4318 10.4438 65.5564 10.4438C68.6812 10.4438 70.9131 12.62 70.9131 15.6331C70.9131 18.6462 68.6812 20.8223 65.5564 20.8223C62.4318 20.8223 60.2 18.6462 60.2 15.6331ZM68.5697 15.6331C68.5697 13.736 67.342 12.4526 65.5564 12.4526C63.7708 12.4526 62.5433 13.736 62.5433 15.6331C62.5433 17.5302 63.7708 18.8136 65.5564 18.8136C67.342 18.8136 68.5697 17.5302 68.5697 15.6331Z" fill="white"/>
<path d="M79.4505 10.6112H81.6824V20.5991H79.4505V16.5816H74.9865V20.5991H72.7546V10.6112H74.9865V14.5729H79.4505V10.6112Z" fill="white"/>
<path d="M86.4809 20.5991V12.6199H83.0212V10.6112H92.1166V12.6199H88.6569V20.5991H86.4809Z" fill="white"/>
<path d="M101.714 15.0193V20.5991H100.096L99.6493 19.0368C99.1471 19.8738 98.0869 20.8223 96.4687 20.8223C94.46 20.8223 93.0093 19.4832 93.0093 17.6418C93.0093 15.8005 94.46 14.5171 97.4174 14.5171H99.5935C99.482 13.2338 98.8123 12.341 97.5848 12.341C96.5804 12.341 95.9109 12.899 95.576 13.5127L93.5673 13.178C94.0695 11.4482 95.7992 10.4438 97.6964 10.4438C100.152 10.4438 101.714 12.1178 101.714 15.0193ZM99.5376 16.2469H97.4731C95.7992 16.2469 95.2412 16.8049 95.2412 17.5302C95.2412 18.3672 95.9109 18.9252 97.0267 18.9252C98.4776 18.9252 99.5376 17.865 99.5376 16.2469Z" fill="white"/>
<path d="M110.307 20.5991L106.848 16.6374H106.29V20.5991H104.058V10.6112H106.29V14.4613H106.848L110.195 10.6112H112.818L108.633 15.4099L113.209 20.5991H110.307Z" fill="white"/>
<path d="M117.226 20.5991V12.6199H113.766V10.6112H122.862V12.6199H119.402V20.5991H117.226Z" fill="white"/>
<path d="M134.021 16.2469H125.986C126.209 17.8092 127.325 18.8136 128.999 18.8136C130.171 18.8136 131.064 18.3114 131.566 17.586L133.631 17.9208C132.905 19.818 130.952 20.8223 128.832 20.8223C125.819 20.8223 123.643 18.6462 123.643 15.6331C123.643 12.62 125.819 10.4438 128.832 10.4438C131.845 10.4438 134.021 12.62 134.021 15.5215C134.077 15.8005 134.021 16.0237 134.021 16.2469ZM126.153 14.5171H131.678C131.287 13.2896 130.283 12.3968 128.888 12.3968C127.549 12.341 126.488 13.2338 126.153 14.5171Z" fill="white"/>
</svg>
