<svg width="137" height="32" viewBox="0 0 137 32" fill="none" xmlns="http://www.w3.org/2000/svg">
<g opacity="0.55">
<path fill-rule="evenodd" clip-rule="evenodd" d="M2.17329 3.31025C0.0644531 5.41909 0.0644531 8.8132 0.0644531 15.6014V16.8014C0.0644531 23.5896 0.0644531 26.9837 2.17329 29.0926C4.28212 31.2014 7.67623 31.2014 14.4645 31.2014H15.6645C22.4527 31.2014 25.8468 31.2014 27.9556 29.0926C30.0645 26.9837 30.0645 23.5896 30.0645 16.8014V15.6014C30.0645 8.8132 30.0645 5.41909 27.9556 3.31025C25.8468 1.20142 22.4527 1.20142 15.6645 1.20142H14.4645C7.67623 1.20142 4.28212 1.20142 2.17329 3.31025ZM5.12714 10.3265C5.28962 18.1265 9.18959 22.814 16.0271 22.814H16.4147V18.3515C18.9272 18.6015 20.827 20.439 21.5895 22.814H25.1396C24.1646 19.264 21.602 17.3015 20.002 16.5515C21.602 15.6265 23.852 13.3766 24.3895 10.3265H21.1644C20.4644 12.8015 18.3897 15.0515 16.4147 15.264V10.3265H13.1896V18.9765C11.1896 18.4765 8.66462 16.0515 8.55212 10.3265H5.12714Z" fill="white"/>
<path d="M48.6574 18.4333C48.6574 20.0514 47.1508 21.2232 45.0304 21.2232H40.0645V11.1795H44.8631C46.9277 11.1795 48.3784 12.2955 48.3784 13.8578C48.3784 14.918 47.8203 15.5876 46.9835 15.9782C47.8762 16.313 48.6574 17.2057 48.6574 18.4333ZM42.2405 13.0209V15.197H44.8073C45.5884 15.197 46.0906 14.7506 46.0906 14.1368C46.0906 13.523 45.5326 13.0209 44.8073 13.0209H42.2405ZM45.0304 19.3819C45.8675 19.3819 46.4813 18.8797 46.4813 18.1543C46.4813 17.4289 45.9233 16.9267 45.0304 16.9267H42.2405V19.3819H45.0304Z" fill="white"/>
<path d="M56.8597 21.1674L53.4002 17.2057H52.8422V21.1674H50.6101V11.1795H52.8422V15.0296H53.4002L56.748 11.1795H59.3706L55.1856 15.9782L59.7611 21.1674H56.8597Z" fill="white"/>
<path d="M59.7612 16.2014C59.7612 13.1883 61.9931 11.0121 65.1177 11.0121C68.2425 11.0121 70.4744 13.1883 70.4744 16.2014C70.4744 19.2145 68.2425 21.3906 65.1177 21.3906C61.9931 21.3906 59.7612 19.2145 59.7612 16.2014ZM68.131 16.2014C68.131 14.3043 66.9032 13.0209 65.1177 13.0209C63.3321 13.0209 62.1046 14.3043 62.1046 16.2014C62.1046 18.0985 63.3321 19.3819 65.1177 19.3819C66.9032 19.3819 68.131 18.0985 68.131 16.2014Z" fill="white"/>
<path d="M79.0118 11.1795H81.2437V21.1674H79.0118V17.1499H74.5478V21.1674H72.3159V11.1795H74.5478V15.1412H79.0118V11.1795Z" fill="white"/>
<path d="M86.0422 21.1674V13.1882H82.5825V11.1795H91.6778V13.1882H88.2182V21.1674H86.0422Z" fill="white"/>
<path d="M101.275 15.5876V21.1675H99.6569L99.2106 19.6051C98.7084 20.4421 97.6482 21.3906 96.03 21.3906C94.0213 21.3906 92.5706 20.0515 92.5706 18.2102C92.5706 16.3688 94.0213 15.0854 96.9787 15.0854H99.1548C99.0433 13.8021 98.3736 12.9093 97.146 12.9093C96.1417 12.9093 95.4722 13.4673 95.1373 14.0811L93.1286 13.7463C93.6308 12.0165 95.3605 11.0121 97.2577 11.0121C99.7128 11.0121 101.275 12.6861 101.275 15.5876ZM99.0989 16.8152H97.0343C95.3605 16.8152 94.8024 17.3732 94.8024 18.0985C94.8024 18.9355 95.4722 19.4935 96.588 19.4935C98.0389 19.4935 99.0989 18.4333 99.0989 16.8152Z" fill="white"/>
<path d="M109.868 21.1674L106.409 17.2057H105.851V21.1674H103.619V11.1795H105.851V15.0296H106.409L109.757 11.1795H112.379L108.194 15.9782L112.77 21.1674H109.868Z" fill="white"/>
<path d="M116.787 21.1674V13.1882H113.328V11.1795H122.423V13.1882H118.963V21.1674H116.787Z" fill="white"/>
<path d="M133.582 16.8152H125.547C125.771 18.3775 126.887 19.3819 128.561 19.3819C129.732 19.3819 130.625 18.8797 131.127 18.1543L133.192 18.4891C132.466 20.3863 130.514 21.3906 128.393 21.3906C125.38 21.3906 123.204 19.2145 123.204 16.2014C123.204 13.1883 125.38 11.0121 128.393 11.0121C131.406 11.0121 133.582 13.1883 133.582 16.0898C133.638 16.3688 133.582 16.592 133.582 16.8152ZM125.715 15.0854H131.239C130.848 13.8579 129.844 12.9651 128.449 12.9651C127.11 12.9093 126.05 13.8021 125.715 15.0854Z" fill="white"/>
</g>
</svg>
