<svg width="116" height="43" viewBox="0 0 116 43" fill="none" xmlns="http://www.w3.org/2000/svg">
<path d="M17.6781 7.10142C17.755 6.39936 17.8623 5.6986 18 5C12.8637 6.04941 9 10.5814 9 16.0134C9 21.4008 12.8011 25.9029 17.8749 27L17.6469 7.4046L17.6512 7.35956C17.6595 7.2738 17.6686 7.18761 17.6781 7.10142ZM17.0544 25.1606C16.7443 25.508 16.1944 25.611 15.6805 25.4079C15.4064 25.304 15.1323 25.2 14.8578 25.0965C14.413 24.9328 14.1776 24.776 14.0434 24.6595C14.0434 24.6595 13.7728 24.498 13.6021 24.407C13.5578 24.3836 13.4987 24.3866 13.4474 24.3776C13.4131 24.3689 13.3736 24.3689 13.3419 24.3511C13.0352 24.2017 12.7703 23.9817 12.5644 23.6707C12.5375 23.6326 12.5153 23.5858 12.4979 23.5417C12.471 23.4745 12.461 23.407 12.4958 23.3481C12.2673 23.0635 12.0392 22.7967 11.826 22.5091C11.0359 21.4563 10.4694 20.2509 10.1111 18.9014C9.94908 18.3002 9.8166 17.69 9.72365 17.068C9.66935 16.7073 9.66718 16.3439 9.69151 15.977C9.72104 15.5665 9.75058 15.1528 9.79228 14.7392C9.84353 14.2347 9.92954 13.7362 10.0446 13.2433C10.2779 12.2432 10.6558 11.319 11.1023 10.4363C11.1266 10.3865 11.1462 10.3307 11.1536 10.2748C11.1757 10.131 11.2396 10.0136 11.3156 9.90838C11.4433 9.7321 11.5806 9.56189 11.7156 9.39472C11.8429 9.23663 11.9658 9.06945 12.1079 8.92869C12.7042 8.33318 13.2976 7.73159 13.9869 7.2829C14.4656 6.96933 15.2848 6.44397 16.4254 6.22136C16.5727 6.19191 16.7152 6.17112 16.8524 6.15379C16.8403 6.20923 16.8277 6.2651 16.8181 6.32097C16.8007 6.324 16.7838 6.3266 16.7642 6.32963C16.6365 6.35042 16.1457 6.43834 15.5202 6.67568C15.1892 6.80215 14.7696 6.98968 14.3062 7.27423C13.9452 7.49122 13.6021 7.74329 13.2707 8.02784C12.9692 8.28597 12.6721 8.55579 12.4193 8.87845C12.0366 9.3657 11.7009 9.89668 11.4259 10.4831C11.1636 11.0461 10.9646 11.636 10.9499 12.2931C10.9451 12.6097 10.9916 12.9146 11.1171 13.1991C11.2027 13.3957 11.2887 13.5924 11.3694 13.7916C11.409 13.8916 11.4359 13.9969 11.4654 14.1C11.4702 14.1173 11.4654 14.1498 11.4555 14.1584C11.4481 14.1671 11.4211 14.1645 11.4064 14.1524C11.3547 14.1086 11.3082 14.0558 11.2543 14.0177C11.2053 13.9852 11.1488 13.9501 11.0923 13.9384C10.9281 13.9033 10.7883 13.9796 10.6753 14.1234C10.5476 14.2788 10.479 14.475 10.4251 14.6777C10.3344 15.0294 10.3096 15.3902 10.2853 15.751C10.2288 16.5375 10.2583 17.3145 10.3908 18.0858C10.489 18.6697 10.6384 19.2327 10.8691 19.7637C10.906 19.8429 10.9525 19.9161 10.9989 19.9928C11.0115 20.0101 11.0385 20.0162 11.058 20.0279C11.0628 20.0015 11.0728 19.9781 11.0776 19.9542C11.0802 19.9426 11.0776 19.9309 11.0754 19.9192C11.058 19.752 11.0359 19.5848 11.0237 19.4176C11.0115 19.2301 11.0189 19.0391 11.0875 18.8633C11.1314 18.7489 11.2053 18.6991 11.3056 18.7342C11.3794 18.7636 11.4555 18.8048 11.5167 18.8602C11.7695 19.0919 11.9806 19.3678 12.1448 19.6935C12.2894 19.9837 12.3728 20.3033 12.4514 20.6234C12.5348 20.9547 12.6404 21.2713 12.8389 21.5269C13.2337 22.037 13.6855 22.4446 14.2228 22.7175C14.3896 22.8028 14.5638 22.8673 14.7501 22.8673C14.9781 22.8673 15.0885 22.7235 15.0641 22.4593C15.0589 22.4095 15.0442 22.3597 15.0372 22.3099C15.032 22.2835 15.032 22.2571 15.0298 22.2337L15.0442 22.2159C15.0737 22.2367 15.1032 22.254 15.128 22.2774C15.3721 22.5113 15.5463 22.6997 15.5941 22.7647C15.8112 23.0613 16.1331 23.326 16.4437 23.5819C17.0083 24.0462 17.2029 24.0293 17.2903 24.2974C17.3923 24.611 17.2329 24.9605 17.0544 25.1606ZM12.5813 17.4453C12.5709 17.6423 12.5444 17.8364 12.4671 18.02C12.4484 18.0646 12.4332 18.0893 12.4137 18.0932C12.3841 18.0993 12.3663 18.0503 12.342 18.0525C12.3207 18.0546 12.2968 18.0941 12.2773 18.2396C12.1843 18.2699 12.1131 18.2344 12.0488 18.1768C11.938 18.0776 11.8672 17.9503 11.8147 17.8147C11.5944 17.2452 11.525 16.6596 11.6457 16.0585C11.6679 15.948 11.7156 15.838 11.7738 15.7406C11.8611 15.5937 11.9997 15.5821 12.1283 15.6977C12.243 15.8003 12.3125 15.9342 12.3672 16.0741C12.5405 16.515 12.6056 16.9736 12.5813 17.4453ZM14.1025 17.5761C14.1476 17.101 14.446 16.5353 15.0568 16.3937C15.4055 16.3127 15.7404 16.3664 16.0514 16.5319C16.6795 16.8653 17.037 17.3907 17.1122 18.0971C17.1395 18.3539 17.0987 18.6051 16.9814 18.8416C16.9358 18.933 16.8785 18.9867 16.835 19.0335C16.7178 19.1599 16.5974 19.2907 16.4563 19.4445C16.3038 19.5567 16.1309 19.6069 15.9468 19.6156C15.4168 19.6411 14.9886 19.4207 14.6372 19.0456C14.2519 18.6346 14.0477 18.1465 14.1025 17.5761ZM17.12 12.0613C16.7325 12.9172 16.0875 13.4923 15.1614 13.7253C14.9955 13.7665 14.8183 13.7695 14.6437 13.7873C14.5638 13.7959 14.4986 13.7665 14.4543 13.6989C14.3657 13.569 14.2501 13.5278 14.102 13.5867C13.9365 13.6543 13.7915 13.6162 13.6438 13.5248C13.1286 13.2151 12.8241 12.7547 12.673 12.1882C12.5813 11.8431 12.5666 11.4979 12.6083 11.144C12.7055 10.3298 13.0548 9.64245 13.6525 9.08461C14.0933 8.67186 14.6141 8.40637 15.2236 8.35916C15.919 8.30286 16.4958 8.55363 16.9484 9.09068C16.8389 9.21151 16.8272 9.28254 16.9102 9.40944C16.9901 9.53028 17.0818 9.64505 17.1673 9.76026C17.2916 9.9283 17.3537 10.1171 17.3684 10.3207C17.4188 10.9197 17.3658 11.5096 17.12 12.0613Z" fill="white"/>
<path d="M22.3299 7.34428L22.3338 7.38681L22.3052 9.79923C22.2708 12.6613 22.2365 15.5234 22.2021 18.3855C22.2211 18.3833 22.2396 18.382 22.2585 18.382C22.6192 18.3829 22.9799 18.3872 23.3406 18.3859C23.4168 18.3855 23.4934 18.3699 23.5687 18.3547C23.722 18.3234 23.8272 18.2479 23.8721 18.0843C23.9193 17.9146 24.0219 17.7696 24.1628 17.6567C24.2377 17.5973 24.2711 17.5144 24.2729 17.4276C24.2777 17.1923 24.2892 16.9545 24.2654 16.7214C24.2271 16.3516 24.1615 15.9844 24.1091 15.6159C24.1042 15.5785 24.1108 15.5395 24.1117 15.5013C24.124 15.4978 24.1364 15.4948 24.1487 15.4913C24.1839 15.5612 24.2258 15.6285 24.2531 15.7014C24.4671 16.2743 24.6248 16.8637 24.7617 17.4584C24.7736 17.5113 24.8472 17.5508 24.9242 17.5417C25.0348 17.5283 25.0995 17.4636 25.1348 17.3612C25.3691 16.6828 25.5518 15.9922 25.6311 15.2777C25.7117 14.5559 25.7033 13.835 25.5672 13.1205C25.4888 12.7095 25.3801 12.3041 25.2849 11.8961C25.2704 11.8332 25.2563 11.7707 25.2418 11.7077C25.251 11.7051 25.2598 11.7025 25.2691 11.6999C25.3686 11.9794 25.4752 12.2572 25.5668 12.5398C25.9499 13.7226 26.0204 14.9301 25.8535 16.1567C25.7835 16.671 25.7201 17.1858 25.5818 17.688C25.5571 17.777 25.5272 17.8647 25.4981 17.9528C25.4673 18.0461 25.4906 18.0921 25.5897 18.0904C25.6936 18.0891 25.8002 18.0786 25.9006 18.0535C26.3326 17.9463 26.7475 17.7909 27.1474 17.5973C27.2513 17.5469 27.3627 17.5122 27.4706 17.4701C27.4768 17.484 27.483 17.4979 27.4891 17.5113C26.8801 17.9623 26.1917 18.2562 25.4928 18.4654C25.4457 18.6472 25.4135 18.8152 25.3572 18.9745C25.3087 19.1121 25.2048 19.215 25.0872 19.3079C25.0247 19.3573 24.9723 19.4368 24.9485 19.5132C24.8899 19.7024 24.8503 19.8973 24.8031 20.09C24.7886 20.149 24.7754 20.2085 24.7463 20.268C24.6424 20.0071 24.6499 19.7289 24.605 19.4606C24.2011 19.4055 23.9364 19.1247 23.8281 18.7145C23.3313 18.718 22.8403 18.6633 22.3629 18.5162C22.3083 18.4992 22.2546 18.4775 22.2013 18.4563C22.1674 21.304 22.133 24.1522 22.0991 27C27.195 25.8654 31 21.3761 31 16.0113C31 10.6113 27.1456 6.09857 22 5C22.1308 5.69187 22.2325 6.38591 22.3043 7.08038C22.3131 7.16805 22.3219 7.25617 22.3299 7.34428ZM25.7086 10.7294C25.5734 10.7533 25.4237 10.7415 25.2885 10.7146C24.8265 10.6174 24.4398 10.3748 24.0796 10.0879C23.6475 9.7389 23.2846 9.33394 23.0389 8.83739C22.9548 8.66898 22.8949 8.4945 22.8768 8.30829C22.8438 7.92069 23.0539 7.67545 23.4586 7.68717C23.7466 7.69889 23.9928 7.78179 24.2236 7.90029C24.9287 8.25794 25.4866 8.77228 25.8887 9.45243C26.0085 9.65643 26.0957 9.87519 26.1226 10.1148C26.1525 10.3835 26.0658 10.6734 25.7086 10.7294ZM22.4206 6.42888C22.9922 6.49094 23.2794 6.52437 23.5925 6.6459C23.7303 6.70189 23.9501 6.76222 24.2478 6.84122C24.3442 6.8677 24.4473 6.87117 24.5486 6.87985C24.7076 6.89461 24.8608 6.94409 25.0101 7.01657C25.5479 7.28134 26.0688 7.57866 26.5559 7.94109C26.914 8.20672 27.2324 8.52358 27.4856 8.90684C27.6816 9.20676 27.9203 9.46459 28.1339 9.74324C28.8953 10.7324 29.4806 11.8254 29.8563 13.0472C30.1553 14.029 30.305 15.0356 30.3134 16.0668C30.3235 17.1789 30.1527 18.2601 29.8237 19.3092C29.7198 19.6338 29.6053 19.9559 29.496 20.2806C29.4872 20.3101 29.489 20.3474 29.4965 20.3812C29.5185 20.495 29.5031 20.6083 29.4529 20.7055C29.2468 21.0931 29.038 21.4776 28.8205 21.857C28.7438 21.9963 28.6302 22.094 28.4796 22.1422C28.4325 22.1565 28.3898 22.196 28.3528 22.2381C28.0119 22.627 27.6627 23.0133 27.2883 23.3666C27.1042 23.5398 26.9091 23.7134 26.4921 24.035C24.9753 25.2057 24.1901 25.8116 23.4405 25.5976C23.1336 25.5099 22.7967 25.2747 22.7637 24.9878C22.7209 24.618 23.1847 24.1674 23.9629 23.9391C24.4861 23.7811 24.8564 23.5624 25.0863 23.4022C25.4215 23.1687 25.5214 23.0172 25.5703 22.9226C25.6707 22.7273 25.6985 22.5046 25.7262 22.2876C25.7597 22.0302 25.8095 21.7802 25.9292 21.5527C26.0851 21.2628 26.3119 21.0553 26.5634 20.8726C26.7184 20.7606 26.8792 20.6547 27.0712 20.633C27.2024 20.6174 27.3372 20.6161 27.4698 20.6261C27.6869 20.6378 27.8736 20.5731 28.0396 20.4207C28.2211 20.2532 28.3144 20.0271 28.4078 19.8035C28.5126 19.5422 28.6117 19.2727 28.6972 19.0006C28.979 18.1034 29.1138 17.1823 29.0037 16.2279C28.9565 15.7995 28.8579 15.388 28.7038 14.9878C28.6298 14.7934 28.5298 14.6058 28.4457 14.4149C28.3431 14.1792 28.2581 13.9335 28.2228 13.6735C28.2176 13.6249 28.2383 13.5693 28.2462 13.5203C28.2871 13.5437 28.3281 13.5676 28.3669 13.5941C28.3721 13.5967 28.3748 13.6023 28.3805 13.608C28.6822 13.957 28.9077 14.3589 29.0843 14.7925C29.2789 15.2591 29.4005 15.7474 29.4934 16.2452C29.5229 16.3932 29.552 16.5382 29.5863 16.6858C29.5934 16.7201 29.6136 16.7505 29.6286 16.7813L29.6493 16.7804C29.6682 16.7392 29.6951 16.7001 29.7008 16.6567C29.7246 16.5061 29.7453 16.3555 29.7554 16.2027C29.7819 15.7183 29.7427 15.2378 29.6378 14.763C29.5674 14.4392 29.4789 14.1219 29.315 13.8345C29.2595 13.7399 29.1917 13.6544 29.1138 13.5806C29.0327 13.5016 29.0059 13.3966 29.0829 13.3094C29.1301 13.2521 29.1939 13.2087 29.2551 13.1679C29.3749 13.0897 29.3762 13.0637 29.2604 12.9751C29.219 12.943 29.1754 12.9165 29.1292 12.8931C29.0556 12.8566 28.983 12.8258 28.9121 12.7894C28.8795 12.7711 28.8464 12.7468 28.8235 12.7165C28.506 12.2703 28.3281 11.7681 28.3131 11.1999C28.3078 11.0536 28.2735 10.906 28.2365 10.7641C28.1643 10.5007 28.0326 10.2663 27.8881 10.041C27.6287 9.63777 27.3235 9.27751 27.006 8.92897C26.8431 8.75102 26.6872 8.55787 26.5022 8.40682C25.6064 7.67502 24.616 7.15243 23.5343 6.84165C23.0728 6.71057 22.7976 6.65892 22.6513 6.63809C22.569 6.6281 22.4999 6.62029 22.4281 6.61552C22.3986 6.61117 22.3695 6.60987 22.3378 6.60597C22.3211 6.54346 22.3043 6.47836 22.2876 6.41585C22.3303 6.41933 22.3752 6.4228 22.4206 6.42888Z" fill="white"/>
<path d="M23 18.0083C23.0182 18.0393 23.0351 18.0537 23.0546 18.0616C23.0625 18.0647 23.0703 18.0682 23.0781 18.0712C23.0785 18.0476 23.0789 18.0236 23.0789 18C23.0525 18.0022 23.026 18.0061 23 18.0083Z" fill="white"/>
<path d="M23.9586 32.4145C23.8627 32.2343 23.7954 32.0662 23.7481 31.9286C23.7263 31.8658 23.6407 31.8611 23.6121 31.9213C23.506 32.147 23.2836 32.3027 23.0326 32.3104C22.7432 32.3199 22.4773 32.1311 22.381 31.8499C22.3699 31.8173 22.3379 31.7975 22.3043 31.8005C22.1129 31.816 21.9284 31.7093 21.8496 31.5322C21.7661 31.3452 21.818 31.1203 21.9783 30.987C21.8509 30.7535 21.7239 30.5201 21.5964 30.2862C21.6028 29.7298 21.6092 29.173 21.616 28.6166C21.6991 21.4966 21.7822 14.3765 21.8658 7.25638C21.8581 7.17211 21.85 7.08784 21.8415 7.00314C21.6216 4.831 21.0915 2.47999 20.0862 0C19.0455 2.48042 18.4919 4.83401 18.2567 7.00873C18.2477 7.09128 18.2392 7.17426 18.2311 7.25638C18.3108 14.1744 18.3901 21.0924 18.4698 28.0104C18.4783 28.7693 18.4872 29.5277 18.4958 30.2866C18.3692 30.5196 18.2426 30.7527 18.1156 30.9857C18.1408 31.0059 18.1736 31.0369 18.203 31.0807C18.2852 31.2024 18.3091 31.392 18.2465 31.5326C18.1676 31.7098 17.9831 31.8164 17.7918 31.8009C17.7577 31.7979 17.7261 31.8181 17.7151 31.8504C17.6187 32.1315 17.3528 32.3203 17.0635 32.3108C16.8125 32.3027 16.59 32.147 16.4839 31.9217C16.4554 31.8615 16.3697 31.8658 16.348 31.929C16.3007 32.0666 16.2333 32.2347 16.1374 32.4149C15.9342 32.7976 15.6861 33.0796 15.4185 33.3169C14.7303 33.9279 13.9112 34.2448 13.3849 35.2174C13.3159 35.3446 13.223 35.5377 13.1424 35.7952C13.1182 35.8726 13.217 35.9276 13.2686 35.8657C13.4881 35.6017 13.8026 35.2874 14.2338 35.0097C14.8641 34.6038 15.465 34.4546 15.8332 34.3944C15.8613 34.3897 15.8839 34.3695 15.892 34.342C15.9154 34.2611 15.9738 34.087 16.0884 33.8931C16.2495 33.6205 16.521 33.3096 16.9603 33.1669C17.4768 32.9996 17.9281 33.1609 18.1092 33.2421C18.1421 33.2567 18.1808 33.246 18.2004 33.2155C18.3602 32.9665 18.6726 32.9154 18.838 33.037C18.9922 33.1501 19.0468 33.4335 18.8989 33.6631C18.8802 33.6923 18.8831 33.7306 18.9074 33.7555C19.0485 33.9004 19.3276 34.2379 19.4039 34.75C19.4623 35.1408 19.3787 35.4758 19.276 35.7187C19.2053 35.8864 19.1256 36.0111 19.077 36.0798C19.0579 36.1069 19.0587 36.143 19.0792 36.1693C19.1256 36.2277 19.1772 36.3004 19.2287 36.3864C19.2812 36.475 19.3332 36.5782 19.3779 36.6964C19.4819 36.9711 19.5045 37.2141 19.5066 37.371V39.0994C19.4904 39.2809 19.4388 39.5247 19.2922 39.7706C19.184 39.9525 19.0566 40.0802 18.9564 40.1636L18.8056 40.0114L18.2912 40.5303L18.8056 41.0493L19.0071 40.8459L19.0425 41.0334C18.9483 41.2019 18.8942 41.3963 18.8942 41.6035C18.8942 42.1474 19.2645 42.6036 19.7644 42.7304V42.8667H19.8637V43H20.2298V42.8667H20.3291V42.7317C20.8289 42.6053 21.1993 42.1487 21.1993 41.6048C21.1993 41.3976 21.1456 41.2028 21.051 41.0347L21.0863 40.8472L21.2879 41.0506L21.8023 40.5316L21.2879 40.0127C21.2376 40.0634 21.1873 40.1141 21.1371 40.1649C21.0373 40.081 20.9099 39.9538 20.8017 39.7719C20.6546 39.526 20.6031 39.2822 20.5869 39.1007V37.3723C20.589 37.2149 20.6116 36.9724 20.7156 36.6977C20.7586 36.5838 20.8089 36.4831 20.8596 36.3967C20.9125 36.3064 20.9662 36.2316 21.0143 36.171C21.0348 36.1448 21.0356 36.1087 21.0165 36.0816C20.967 36.0115 20.8852 35.8838 20.8136 35.7114C20.713 35.4689 20.6325 35.1374 20.69 34.7517C20.7663 34.2396 21.0454 33.9021 21.1865 33.7572C21.2108 33.7323 21.2138 33.694 21.195 33.6648C21.0476 33.4352 21.1017 33.1518 21.2559 33.0388C21.4213 32.9175 21.7337 32.9687 21.8935 33.2172C21.9131 33.2477 21.9519 33.2585 21.9847 33.2438C22.1658 33.1626 22.6171 33.0014 23.1336 33.1686C23.8857 33.4124 24.1457 34.1493 24.2019 34.3432C24.21 34.3708 24.2326 34.391 24.2607 34.3957C24.6289 34.4559 25.2298 34.6051 25.8601 35.011C26.4597 35.3971 26.7128 35.9332 26.8253 35.867C26.9059 35.8197 26.824 35.4895 26.709 35.2186C26.0715 33.7151 24.3255 33.1058 23.9586 32.4145ZM20.0482 33.3122L19.3251 31.9656L19.8748 30.9419L20.0482 30.6194L20.2097 30.9199L20.7714 31.966L20.0482 33.3122Z" fill="white"/>
<path d="M10.5246 6.34529L10.6661 6.22877C10.6946 6.20512 10.7219 6.18234 10.7466 6.15955L10.8088 6.10107L10.3145 6.29928C10.0882 6.39001 9.84317 6.47815 9.58534 6.56113C9.2704 6.66131 8.97081 6.7387 8.66994 6.79632L8.65332 6.79975L8.65843 6.83415C8.66824 6.89391 8.67974 6.95712 8.69295 7.0229C8.70616 7.08955 8.75773 7.32 8.75773 7.32L8.81143 7.29979C9.12593 7.18328 9.43277 7.04096 9.72341 6.87801C9.97528 6.73612 10.2007 6.59037 10.3942 6.44461L10.5246 6.34529Z" fill="white"/>
<path d="M3.83037 10.3163C3.83591 10.3799 3.84316 10.4423 3.85211 10.5063L3.87171 10.6353C3.88918 10.742 3.91049 10.8451 3.93393 10.947C3.95737 11.0511 3.98379 11.1526 4.01021 11.2506C4.09118 11.5447 4.18238 11.8233 4.2706 12.0916L4.38012 12.4295C4.40527 12.5091 4.43041 12.5878 4.453 12.6643C4.49178 12.792 4.52757 12.918 4.55996 13.0422C4.61068 13.2391 4.64775 13.4154 4.67375 13.5835C4.68824 13.6798 4.70017 13.7749 4.70656 13.866C4.71381 13.9597 4.71679 14.0509 4.71636 14.1455C4.71466 14.2366 4.70869 14.3248 4.69889 14.4134C4.68866 14.5028 4.67247 14.5888 4.65244 14.6773C4.6111 14.8515 4.55016 15.017 4.47516 15.1632C4.43595 15.2415 4.39035 15.3154 4.34092 15.3889C4.29191 15.4612 4.23821 15.5312 4.18196 15.5944C4.15681 15.6237 4.13082 15.6525 4.10312 15.6817C4.35924 15.8683 4.64221 16.0773 4.92945 16.3138C4.96056 16.3391 4.99124 16.3654 5.02192 16.3912C5.04621 16.3602 5.07051 16.3284 5.09437 16.2961C5.17151 16.1921 5.24395 16.0799 5.30958 15.9629C5.37862 15.84 5.43743 15.7196 5.48857 15.5936L5.51286 15.5312L5.5819 15.3326L5.61386 15.2191C5.62111 15.1946 5.62665 15.1696 5.64028 15.1133C5.6454 15.0918 5.67438 14.9491 5.67438 14.9491L5.691 14.8472C5.71018 14.716 5.72168 14.5866 5.72552 14.4645C5.72935 14.336 5.72637 14.21 5.71785 14.0883C5.7089 13.9636 5.69398 13.8424 5.67523 13.7246C5.65605 13.6046 5.63176 13.4889 5.60577 13.3784C5.56869 13.2237 5.52607 13.0758 5.47962 12.9326C5.45746 12.8634 5.43445 12.7954 5.41058 12.7284L5.36584 12.6032C5.30532 12.439 5.24225 12.2816 5.18003 12.1303L5.02661 11.7644C4.91666 11.5034 4.8131 11.2583 4.72702 11.0262C4.65201 10.8249 4.59448 10.6452 4.55101 10.4771C4.51138 10.3236 4.48368 10.1774 4.46791 10.0338L4.46365 9.99383C4.45641 9.91084 4.45342 9.8313 4.45427 9.75262C4.45513 9.67093 4.46237 9.59268 4.4726 9.51528C4.48325 9.4366 4.5003 9.36007 4.52544 9.26849C4.52544 9.26849 4.54846 9.19454 4.55314 9.1825C4.56337 9.14939 4.57616 9.11714 4.58979 9.0849L4.60769 9.0419C4.63966 8.97182 4.67417 8.90045 4.71679 8.82993C4.75728 8.76114 4.80245 8.69106 4.85274 8.62054C4.90004 8.55433 4.95075 8.48898 5.00232 8.42706C5.02832 8.39568 5.05474 8.36515 5.08627 8.33032L5.15702 8.25293L5.22179 8.19016L5.27251 8.14501C5.29126 8.12738 5.31086 8.11062 5.33941 8.08783C5.36157 8.06848 5.38459 8.05042 5.42337 8.02118C5.45064 8.00055 5.47834 7.98034 5.50647 7.96099L5.48857 7.84791C5.47323 7.7473 5.45959 7.65443 5.44809 7.56543C5.37052 7.60241 5.29254 7.64411 5.21114 7.69184C5.19026 7.70431 5.09608 7.76407 5.09608 7.76407L4.97419 7.84877L4.9205 7.88962C4.89876 7.91026 4.87532 7.92917 4.84975 7.94637L4.78583 8.00227C4.75088 8.03365 4.71679 8.06504 4.68185 8.09901C4.61451 8.16393 4.54931 8.23143 4.48666 8.30152C4.42402 8.37203 4.36265 8.44684 4.30213 8.52853C4.24418 8.6055 4.1892 8.69149 4.1436 8.76845L4.12485 8.80242C4.1061 8.83638 4.08692 8.86949 4.0703 8.90518L4.00254 9.05351C3.95865 9.16272 3.92541 9.26161 3.90112 9.35577C3.87299 9.46627 3.85211 9.57333 3.83975 9.67308C3.82654 9.78229 3.81929 9.89107 3.81844 9.99684C3.81801 10.0592 3.81929 10.1211 3.82185 10.1796C3.82355 10.226 3.82654 10.2737 3.83037 10.3163Z" fill="white"/>
<path d="M4.38305 24.5015C4.38305 24.5015 4.85821 24.6021 5.0291 24.6404C5.39687 24.7217 5.69389 24.796 5.96322 24.873C6.05144 24.8984 6.13837 24.9246 6.22062 24.9508L6.33397 24.9874C6.66808 25.097 6.98471 25.2264 7.27534 25.3717C7.59837 25.5338 7.89838 25.723 8.17111 25.9367L8.22353 25.978C8.24313 25.9935 8.368 26.0997 8.368 26.0997L8.46772 26.1904L8.54442 26.2652C8.66034 26.3804 8.769 26.5012 8.86872 26.6242C9.05921 26.8611 9.22968 27.126 9.39033 27.4334C9.46491 27.5757 9.53437 27.7258 9.60085 27.8801C9.64048 27.9717 9.67841 28.065 9.71591 28.1604C9.83183 28.1501 9.95371 28.1364 10.0854 28.1183C10.2401 28.0977 10.4012 28.0723 10.5784 28.0418C10.9177 27.9824 11.2373 27.9171 11.5309 27.856L11.9323 27.7709C11.8999 27.6884 11.8663 27.6049 11.8313 27.5207C11.7542 27.3349 11.6702 27.1445 11.5773 26.9514C11.4734 26.7351 11.3736 26.5451 11.2722 26.3697C11.0285 25.9479 10.7557 25.5648 10.4617 25.2324C10.3002 25.051 10.1276 24.8773 9.94731 24.7148L9.9064 24.6782L9.67543 24.4835L9.5169 24.3605L9.3767 24.2586C8.98592 23.9817 8.55934 23.7401 8.10847 23.541C7.70448 23.3621 7.26597 23.2095 6.80061 23.0857L6.74692 23.071C6.65188 23.0461 6.55643 23.0225 6.46054 23.0001C6.14562 22.9257 5.81322 22.8595 5.38238 22.7864C5.21447 22.758 4.72099 22.6789 4.72099 22.6789C4.50067 22.6437 4.28802 22.6084 4.08517 22.5706C3.90278 22.5366 3.72806 22.5005 3.56825 22.4614L3.48941 22.4416C3.39395 22.4167 3.30063 22.3909 3.21454 22.3633L3.17278 22.35C3.09778 22.3251 3.02619 22.2997 2.95757 22.2722C2.87533 22.2395 2.79862 22.2047 2.73171 22.1711C2.65373 22.1329 2.58469 22.0916 2.51992 22.0499C2.39037 21.9665 2.27914 21.8728 2.1611 21.7455C2.11252 21.6905 2.06521 21.6307 2.01919 21.5653L1.95527 21.466C1.93055 21.4269 1.91052 21.3899 1.88623 21.3443C1.8483 21.27 1.80995 21.1878 1.77671 21.101C1.74475 21.0171 1.71449 20.9312 1.69276 20.8512C1.64247 20.677 1.61008 20.5016 1.5973 20.3425L1.59218 20.2415C1.58835 20.2058 1.58792 20.1718 1.58878 20.1323L1.5892 20.0837C1.58878 20.0579 1.58963 20.0325 1.59133 20.0184L1.5973 19.9276L1.61051 19.8115C1.62244 19.729 1.63864 19.6516 1.65781 19.5764C1.66847 19.5355 1.6804 19.4955 1.69404 19.4564C1.6919 19.4551 1.6902 19.4534 1.68807 19.4517C1.56662 19.3519 1.43877 19.25 1.30283 19.1412L1.04288 18.9327L0.860056 18.7831C0.860056 18.7831 0.534477 18.5032 0.532772 18.5015C0.499958 18.5578 0.467997 18.6154 0.43774 18.6743C0.368277 18.8097 0.309042 18.9473 0.262166 19.0819C0.21401 19.2199 0.1731 19.364 0.142417 19.505L0.113439 19.6542L0.0874434 19.8343L0.0763635 19.9285L0.0669882 20.0433C0.0669882 20.0433 0.061022 20.1194 0.0605959 20.143L0.0559082 20.3292L0.0567605 20.3683C0.0601697 20.647 0.0925573 20.9312 0.154775 21.2179C0.183754 21.3559 0.221255 21.491 0.261313 21.6178L0.293701 21.7163L0.332481 21.8237C0.357197 21.89 0.384045 21.9566 0.412597 22.022C0.441149 22.0869 0.472258 22.1544 0.506777 22.2202L0.535329 22.2756L0.612462 22.4145C0.690874 22.5465 0.776105 22.6733 0.864744 22.7877C0.958497 22.9077 1.06077 23.0229 1.16987 23.1308C1.26959 23.2297 1.3838 23.329 1.50909 23.424C1.62926 23.5152 1.75157 23.5973 1.87302 23.6691C1.99831 23.7431 2.12445 23.8093 2.24846 23.8673C2.37545 23.9271 2.50074 23.9791 2.62688 24.0277L2.68399 24.0496C2.78882 24.0883 2.89152 24.1223 3.00914 24.1601C3.21582 24.2255 3.4306 24.284 3.70419 24.3502C3.93943 24.4052 4.16614 24.4546 4.38305 24.5015Z" fill="white"/>
<path d="M14.2241 33.1413C14.2799 33.1013 14.3349 33.0622 14.3886 33.0235C14.2795 32.8949 14.1759 32.7642 14.0745 32.6279L13.3053 32.7806C13.0777 32.8261 12.819 32.8773 12.5292 32.9323C12.2471 32.9861 11.9143 33.0476 11.5439 33.106C11.659 33.3159 11.7809 33.5205 11.907 33.7166C12.1312 34.0648 12.3814 34.4028 12.6507 34.7227C13.1033 33.941 13.6956 33.5184 14.2241 33.1413Z" fill="white"/>
<path d="M18.608 37.4097C18.6059 37.2816 18.582 37.1556 18.536 37.0352C18.4959 36.929 18.4397 36.8301 18.3681 36.7394C18.1631 36.4784 18.1136 36.1301 18.2215 35.8279L17.9739 35.7053C17.9739 35.7053 17.7459 35.5892 17.7041 35.5665L17.353 35.3768C17.353 35.3768 17.1352 35.2526 17.0986 35.2311L16.8897 35.1064C16.7956 35.0488 16.7014 34.9903 16.6081 34.9297L16.5983 34.9688H16.4926C16.4921 34.9692 16.4525 35.0127 16.4525 35.0127C16.4227 35.0432 16.3916 35.0707 16.3566 35.0982C16.3294 35.1197 16.3004 35.1395 16.2761 35.1546L16.2339 35.1795C16.2339 35.1795 16.1776 35.2079 16.1785 35.2074L16.144 35.2233L16.0455 35.2573C16.0093 35.2681 15.9727 35.2762 15.936 35.2823C15.8776 35.2917 15.8192 35.3029 15.7604 35.3162L15.6731 35.3369L15.5682 35.3648L15.3961 35.4185C15.2329 35.474 15.0735 35.5424 14.9226 35.6215L14.8463 35.6623L14.7351 35.7273L14.6098 35.8072C14.5762 35.8296 14.4781 35.9001 14.4781 35.9001C14.3835 35.9706 14.2928 36.0459 14.2088 36.1228L14.1692 36.1594C14.1845 36.1705 14.1999 36.1826 14.2152 36.1938C14.4747 36.3851 14.7496 36.5657 15.0313 36.7295C15.2968 36.8838 15.5763 37.027 15.8602 37.1547L16.1197 37.2674C16.1687 37.2876 16.2177 37.3082 16.2744 37.3297L16.4725 37.4058L16.7257 37.4952L16.9264 37.5593C16.9771 37.5752 17.0274 37.5916 17.0798 37.6057L17.2831 37.6634L17.5801 37.7382L17.8695 37.8014L17.9551 37.8181C17.9551 37.8181 18.1857 37.8603 18.2351 37.868C18.3578 37.8882 18.4823 37.9054 18.608 37.9205V37.4097Z" fill="white"/>
<path d="M6.45536 11.6516L6.52525 11.6151C6.56445 11.594 6.60323 11.573 6.65054 11.5442C6.74301 11.49 6.83464 11.4281 6.91688 11.3666L6.99572 11.3055L7.05922 11.2522C7.09757 11.2208 7.13422 11.186 7.17513 11.1473C7.26633 11.0583 7.34048 10.9779 7.4061 10.8949C7.47131 10.8149 7.53438 10.7259 7.59446 10.6305L7.63836 10.5574L7.68566 10.4714L7.75683 10.3257C7.79902 10.2332 7.83822 10.1279 7.87402 10.0092C7.89064 9.95546 7.90342 9.90172 7.91365 9.86001C7.92558 9.80584 7.93709 9.75166 7.94604 9.69491C7.96351 9.58785 7.97544 9.48165 7.98056 9.3776C7.9861 9.27183 7.98652 9.16864 7.98311 9.07061C7.97885 8.96871 7.97076 8.86982 7.96053 8.77523C7.94987 8.67763 7.93581 8.58347 7.92175 8.49533C7.90172 8.37408 7.87913 8.25799 7.85527 8.14534L7.81691 7.96734L7.70313 7.47117C7.68481 7.38991 7.66819 7.31123 7.65285 7.23513C7.63665 7.15558 7.62259 7.07905 7.61151 7.0094L7.59489 6.90019L7.57529 6.72735C7.57017 6.67231 7.56676 6.619 7.56549 6.56783C7.56378 6.49517 7.56378 6.42509 7.56804 6.36618C7.5706 6.32534 7.57443 6.28578 7.57912 6.24536L7.59105 6.16582C7.60213 6.10563 7.6162 6.04844 7.63367 5.98868C7.65199 5.92978 7.67415 5.87345 7.70398 5.80681C7.72998 5.75263 7.75981 5.69846 7.79561 5.6417L7.85527 5.55399L7.87785 5.52777L7.90257 5.49466L7.93879 5.45166L7.98056 5.40609L7.99803 5.39233C8.03255 5.35148 8.06493 5.3244 8.10627 5.29043L8.16593 5.24399L8.19065 5.2268C8.29463 5.15499 8.40969 5.09609 8.54265 5.04707C8.66155 5.00279 8.79749 4.96495 8.94835 4.93486C9.08216 4.90863 9.22577 4.8867 9.37535 4.86778C9.50618 4.85101 9.64255 4.83683 9.81343 4.81877L10.2536 4.77104C10.5596 4.73622 10.8481 4.69193 11.1115 4.63991C11.3936 4.58401 11.6668 4.51393 11.9318 4.42923C11.9825 4.41418 12.032 4.39655 12.0814 4.37935L12.2054 4.33593L12.4965 4.22113C12.5387 4.20436 12.5796 4.18587 12.6205 4.16738L12.6704 4.14545C12.8983 4.04141 13.1246 3.92274 13.3432 3.79246C13.7306 3.562 14.1052 3.28554 14.4564 2.97124C14.5101 2.92309 14.562 2.87493 14.6128 2.82764C14.5556 2.86891 14.4973 2.91019 14.438 2.95146C14.0511 3.21933 13.6518 3.44806 13.2521 3.63037C13.0305 3.73141 12.8012 3.82256 12.5608 3.90339L12.2911 3.98723L12.1198 4.03453L11.9736 4.07021C11.9233 4.08225 11.8726 4.09472 11.8317 4.10246C11.5824 4.15663 11.3173 4.19834 11.0446 4.22629C10.788 4.25294 10.5162 4.26971 10.2127 4.27788L9.77423 4.28734C9.63232 4.28992 9.487 4.29293 9.33529 4.29938C9.18571 4.30583 9.02974 4.31529 8.86567 4.33421C8.68584 4.35527 8.5239 4.38537 8.37219 4.42665C8.19022 4.47652 8.02147 4.54445 7.87828 4.62357L7.79007 4.67387L7.64432 4.77319C7.64432 4.77319 7.551 4.84671 7.52926 4.86477C7.48878 4.90132 7.44829 4.93873 7.42187 4.96366C7.38991 4.99634 7.3588 5.02988 7.30894 5.08362C7.29658 5.09652 7.22883 5.1795 7.22883 5.1795C7.17002 5.25517 7.11419 5.33558 7.06561 5.41727C7.01362 5.50627 6.96887 5.59613 6.93265 5.68212C6.8943 5.77542 6.86191 5.87087 6.83634 5.96417C6.81034 6.06177 6.79117 6.15937 6.7771 6.25611C6.76688 6.32448 6.76006 6.39155 6.75537 6.45776L6.75026 6.54332C6.74642 6.62717 6.746 6.70886 6.7477 6.78754L6.75409 6.94146L6.76602 7.10356C6.77412 7.19514 6.78435 7.28414 6.79628 7.37314C6.80736 7.46214 6.82015 7.54899 6.83336 7.63198L6.89046 7.99013C6.89046 7.99013 6.93862 8.29927 6.94884 8.37408C6.96078 8.46308 6.97143 8.54864 6.9791 8.63291C6.98677 8.71418 6.99274 8.79329 6.99572 8.86724C6.99913 8.94592 6.99956 9.02117 6.99742 9.09899C6.99444 9.1738 6.9889 9.24474 6.9808 9.3101C6.97186 9.38491 6.95822 9.45284 6.94458 9.50874C6.93862 9.53496 6.9318 9.5599 6.92072 9.59774L6.90836 9.63643C6.90836 9.63643 6.8862 9.70007 6.8781 9.71856C6.85381 9.77789 6.82739 9.83421 6.79628 9.88839L6.78264 9.91333L6.72256 10.0083L6.68932 10.0556C6.64969 10.1085 6.60537 10.1618 6.5734 10.1937C6.52951 10.2427 6.4805 10.2861 6.42979 10.33L6.39527 10.3575C6.37354 10.3751 6.35095 10.3919 6.33732 10.4009L6.25464 10.4568C6.19924 10.4912 6.14171 10.5247 6.09526 10.5471C6.07481 10.5578 6.0535 10.5682 6.01855 10.5845C6.09441 10.7861 6.18561 11.0011 6.28106 11.2277C6.32879 11.3481 6.44854 11.6349 6.45536 11.6516Z" fill="white"/>
<path d="M0.101424 15.4743C0.10739 15.5009 0.147022 15.6377 0.147022 15.6377L0.182393 15.7443L0.213502 15.829C0.231826 15.8789 0.252708 15.9274 0.278277 15.9872L0.295749 16.0246C0.316631 16.0693 0.337512 16.1145 0.363933 16.1648C0.420185 16.2749 0.482404 16.3793 0.548883 16.4812C0.614511 16.5831 0.684826 16.6769 0.752584 16.7633L0.807131 16.8312L0.975035 17.0247L1.06453 17.1193C1.1114 17.1683 1.15871 17.2152 1.20473 17.2599C1.28272 17.3351 1.36028 17.4078 1.43741 17.4766L1.66711 17.6748L2.11883 18.042C2.2684 18.1611 2.41031 18.2746 2.54455 18.3847C2.65748 18.4771 2.76402 18.5678 2.86459 18.6564L2.93491 18.7196C3.01289 18.7892 3.08619 18.8593 3.1548 18.9268C3.2004 18.9711 3.24387 19.0167 3.2835 19.0584C3.3389 19.116 3.39046 19.1745 3.44586 19.2381C3.4953 19.297 3.54388 19.3559 3.58564 19.4118C3.67726 19.5318 3.75951 19.6543 3.83025 19.776C3.90142 19.899 3.96491 20.0275 4.01818 20.1556C4.07103 20.2825 4.1162 20.4158 4.15242 20.5521C4.18779 20.6854 4.21251 20.8169 4.2287 20.9541C4.23808 21.0366 4.24447 21.12 4.24703 21.2047C4.2743 21.2099 4.30243 21.2151 4.33098 21.2206C4.53553 21.2581 4.75074 21.2933 4.93441 21.323C4.93441 21.323 5.42321 21.4017 5.60645 21.4326C5.76626 21.4597 5.95419 21.4924 6.16173 21.5328C6.16258 21.4627 6.16173 21.3935 6.1596 21.3247C6.15363 21.1007 6.1319 20.8767 6.09567 20.6578C6.05902 20.4368 6.00575 20.2154 5.92947 19.9729L5.85873 19.7678L5.79097 19.5963L5.73046 19.4561L5.69168 19.3736C5.59665 19.1719 5.48713 18.975 5.36567 18.788C5.24891 18.6074 5.11638 18.4289 4.96978 18.2548C4.89947 18.1705 4.82702 18.0901 4.75798 18.0162L4.6996 17.9551C4.64463 17.8984 4.58923 17.8425 4.51976 17.7763L4.45243 17.7126C4.32544 17.5931 4.19631 17.4813 4.06762 17.3751C3.77144 17.1305 3.48038 16.9194 3.19869 16.7151L2.92255 16.5135L2.76445 16.3957L2.51685 16.2026C2.45506 16.1532 2.39838 16.105 2.32934 16.0453C2.26968 15.9928 2.21428 15.9412 2.16059 15.8892L2.10902 15.8376L2.00632 15.7271C1.95902 15.6721 1.91427 15.6187 1.88103 15.5727C1.83884 15.516 1.80134 15.4605 1.7843 15.4296C1.76938 15.4068 1.75617 15.384 1.74083 15.356L1.71952 15.3169C1.71952 15.3169 1.68628 15.2507 1.68372 15.2425C1.67307 15.2202 1.66284 15.1974 1.6573 15.1815C1.64835 15.1613 1.64068 15.1406 1.63301 15.1183C1.62364 15.0929 1.61469 15.0671 1.60787 15.0422L1.58784 14.9717L1.56355 14.8616C1.55332 14.8014 1.54352 14.7399 1.53841 14.6694L1.53542 14.638L1.52988 14.4703C1.53031 14.402 1.53457 14.3323 1.54096 14.2579C1.55545 14.1165 1.58145 13.9797 1.61895 13.8495C1.65688 13.7196 1.70802 13.5941 1.77279 13.4707C1.83842 13.3499 1.90916 13.2458 1.99354 13.1478C2.08516 13.0442 2.18147 12.9569 2.28119 12.8864C2.3873 12.8085 2.51003 12.7376 2.66345 12.6667C2.73078 12.6366 2.80067 12.6065 2.868 12.5824C2.90508 12.5682 2.94386 12.5544 2.98349 12.5415L2.97667 12.5205C2.88249 12.2328 2.78533 11.9353 2.69711 11.615C2.65961 11.4761 2.63063 11.3617 2.60592 11.2521C2.60506 11.2478 2.60379 11.2435 2.60293 11.2388C2.55478 11.2517 2.5062 11.2659 2.45591 11.2818C2.35534 11.3123 2.25264 11.348 2.15292 11.3867C1.92365 11.4761 1.72378 11.575 1.53883 11.6915C1.34195 11.8128 1.14805 11.9671 0.978444 12.1365C0.812245 12.3033 0.660961 12.4951 0.530133 12.7062C0.406549 12.9066 0.301715 13.1237 0.219894 13.3503C0.141908 13.567 0.0830996 13.7979 0.0451721 14.0339C0.0268475 14.1504 0.0136369 14.2678 0.00639227 14.38L0 14.5602L0.00127845 14.7429C0.00383536 14.8616 0.0149153 14.9833 0.028126 15.0925L0.0434675 15.1939L0.0754288 15.3659L0.101424 15.4743Z" fill="white"/>
<path d="M13.0539 31.4315L14.3686 31.1718C14.8421 31.0798 15.2989 30.9955 15.7417 30.922C15.9011 30.8954 16.0587 30.8704 16.2126 30.8476L16.6673 30.7818C16.7278 30.7724 16.7879 30.7646 16.848 30.7569L17.1339 30.7195L17.2626 30.7045L17.5937 30.0956L17.575 28.4902C17.549 28.4893 17.523 28.4885 17.497 28.4876C17.3551 28.4833 17.2111 28.4816 17.0657 28.4816C16.545 28.4816 15.9999 28.5082 15.4459 28.5611C14.788 28.6248 14.0639 28.7344 13.293 28.8875L12.826 28.9829L11.8083 29.1983C11.4968 29.2637 11.161 29.332 10.8107 29.3931C10.6317 29.4245 10.4489 29.4533 10.2639 29.4782C10.076 29.5036 9.88593 29.5247 9.70013 29.5376C9.64303 29.5418 9.58592 29.5453 9.52797 29.5487C9.42058 29.5539 9.31361 29.5565 9.20707 29.5565L9.10949 29.5556C8.91005 29.5522 8.71743 29.538 8.53674 29.5135C8.12593 29.458 7.7458 29.3466 7.38613 29.179C7.3644 29.1695 7.24252 29.1102 7.23101 29.1033L7.06822 29.0164C7.06822 29.0164 6.86835 28.9029 6.83 28.8797C6.8023 28.8629 6.68724 28.7916 6.68724 28.7916L6.47033 28.6424C6.38041 28.574 6.29135 28.5052 6.21379 28.4356C6.04162 28.2847 5.88735 28.12 5.75738 27.9493L5.73053 27.9153L5.66277 27.8177L5.61419 27.7442L5.58308 27.693C5.56305 27.6642 5.54601 27.6341 5.51319 27.5757C5.4987 27.5503 5.43904 27.4325 5.43904 27.4325L5.40836 27.3667C5.31588 27.1573 5.25494 26.9514 5.2217 26.7368C5.1906 26.5334 5.1842 26.3206 5.20125 26.0889C5.05934 26.0536 4.90507 26.0179 4.73674 25.9805C4.5829 25.9466 4.10135 25.8434 4.10135 25.8434C3.87975 25.7965 3.63983 25.744 3.38755 25.6834C3.30488 25.6632 3.22604 25.6439 3.15061 25.6245C3.14422 25.6662 3.13782 25.7075 3.13228 25.7492C3.10416 25.959 3.08754 26.1641 3.08328 26.3602C3.07859 26.573 3.08711 26.7841 3.10927 26.9875C3.13143 27.1943 3.16893 27.4028 3.2205 27.6079C3.27036 27.8053 3.33471 28.0043 3.40843 28.1901L3.46852 28.3358L3.53755 28.4863C3.55119 28.5177 3.56696 28.5474 3.58187 28.5775L3.63898 28.6897L3.78344 28.9446L3.93899 29.1858L3.97479 29.237C4.18573 29.5384 4.43332 29.8243 4.71629 30.0922C4.767 30.1421 4.81942 30.1872 4.87183 30.2332C4.87183 30.2332 4.96601 30.3149 5.00991 30.351L5.13307 30.4503L5.26858 30.554L5.42668 30.6679L5.54089 30.7453L5.74374 30.876L6.03779 31.0531L6.2564 31.1744L6.47885 31.2883L6.63994 31.364L6.81764 31.4401C6.9685 31.5029 7.12106 31.5579 7.27235 31.6074C7.42491 31.6572 7.57747 31.6989 7.7262 31.7355C7.87833 31.7716 8.02877 31.8026 8.17579 31.8271C8.46003 31.8744 8.74939 31.9045 9.03704 31.9165C9.1602 31.9221 9.2808 31.9242 9.39842 31.9242C9.54629 31.9242 9.68948 31.9204 9.82755 31.9144C9.95454 31.9083 10.0777 31.9006 10.1996 31.8907C10.3172 31.8812 10.4314 31.8705 10.5678 31.8554C10.7855 31.8309 10.9905 31.803 11.1848 31.7738C11.5939 31.7118 11.9549 31.6456 12.2758 31.5846C12.5669 31.5283 12.8255 31.4767 13.0539 31.4315Z" fill="white"/>
<path d="M29.6865 6.29971L29.5936 6.26403L29.1904 6.10107L29.2518 6.15869C29.2765 6.18105 29.3029 6.20297 29.3554 6.24683L29.476 6.34615C29.4951 6.36163 29.6064 6.44461 29.6064 6.44461C29.7994 6.58994 30.0253 6.73569 30.2759 6.87715C30.5674 7.04096 30.8746 7.18285 31.1887 7.29936L31.2415 7.31914C31.2415 7.31914 31.2931 7.08826 31.3068 7.02161C31.32 6.95626 31.3315 6.89263 31.3421 6.82985L31.3464 6.79932L31.3302 6.79632C31.0285 6.7387 30.7289 6.66174 30.4139 6.5607C30.1574 6.47815 29.9115 6.39044 29.6865 6.29971Z" fill="white"/>
<path d="M34.3078 14.84L34.3223 14.9337L34.3449 15.0476L34.3696 15.1551L34.4127 15.3138C34.4127 15.3138 34.4651 15.4711 34.4736 15.4948L34.5162 15.6044C34.5618 15.7175 34.6202 15.8379 34.6901 15.9621C34.7549 16.0778 34.8273 16.1896 34.9057 16.2958C34.9292 16.3276 34.953 16.359 34.9773 16.3895C35.0076 16.3637 35.0387 16.3379 35.0694 16.313C35.357 16.0756 35.6392 15.8671 35.8957 15.6801C35.8697 15.6526 35.8446 15.6251 35.8211 15.5975C35.7611 15.5292 35.7078 15.4595 35.6583 15.3873C35.6089 15.3142 35.5629 15.2398 35.5271 15.1676C35.4491 15.0158 35.3886 14.8507 35.3464 14.6727C35.3268 14.588 35.311 14.502 35.3004 14.4096C35.291 14.3236 35.2855 14.2354 35.2838 14.14C35.2829 14.0505 35.2863 13.9585 35.2931 13.8661C35.2995 13.7737 35.3114 13.6786 35.3268 13.5806C35.3519 13.4146 35.3894 13.2384 35.4402 13.0423C35.4721 12.9185 35.5083 12.7925 35.5467 12.6635C35.5706 12.5857 35.5948 12.507 35.62 12.4296L35.7308 12.0874C35.8182 11.8199 35.9094 11.5426 35.9895 11.2511C36.0167 11.1509 36.0427 11.0495 36.0666 10.9458C36.09 10.8444 36.1109 10.7416 36.1284 10.6358C36.1356 10.5928 36.142 10.5494 36.148 10.5043C36.1565 10.4424 36.1642 10.3796 36.1697 10.319C36.174 10.2721 36.1766 10.2252 36.1791 10.1814C36.1817 10.1195 36.1834 10.0567 36.1834 9.99649C36.1821 9.88857 36.1749 9.77936 36.1616 9.67144C36.1493 9.57083 36.1284 9.4642 36.1003 9.3537C36.076 9.25911 36.0427 9.15979 36.004 9.06262L35.9639 8.97061L35.9302 8.90182C35.9145 8.86785 35.8966 8.83603 35.8787 8.80379L35.8655 8.77885C35.8126 8.68899 35.7576 8.60343 35.698 8.52431C35.6383 8.44391 35.5769 8.3691 35.516 8.30074C35.4521 8.22936 35.3865 8.16143 35.32 8.09694C35.2859 8.06383 35.2509 8.03201 35.2168 8.00192L35.1538 7.94645L35.0302 7.87121L35.0157 7.8381L34.9709 7.80629L34.8525 7.72717C34.8316 7.71341 34.8099 7.70052 34.7758 7.68074C34.7037 7.63817 34.6292 7.59862 34.5529 7.5625C34.5414 7.65193 34.5277 7.74437 34.5124 7.84713L34.4945 7.95806C34.5269 7.98085 34.5601 8.00493 34.5942 8.03072C34.6177 8.04835 34.6411 8.06684 34.6662 8.08877C34.688 8.10554 34.7084 8.12316 34.7349 8.14767L34.786 8.19411L34.8422 8.24871L34.9198 8.33298C34.9467 8.36308 34.9731 8.39404 34.9978 8.4237C35.0498 8.48648 35.1001 8.5514 35.1504 8.62062C35.1981 8.68856 35.2424 8.75735 35.282 8.82356C35.3259 8.89709 35.3605 8.96803 35.392 9.03768L35.412 9.08541C35.4248 9.11679 35.4372 9.14818 35.444 9.17054L35.4585 9.21095L35.4785 9.27975C35.4994 9.35628 35.5164 9.43238 35.5279 9.5145C35.5377 9.59061 35.5446 9.66757 35.5463 9.75399C35.5471 9.83009 35.5441 9.90877 35.5369 9.9909L35.5318 10.0399C35.5173 10.1736 35.49 10.3155 35.4495 10.4742C35.4065 10.641 35.349 10.8207 35.2739 11.0232C35.1883 11.2545 35.0856 11.4983 34.9761 11.7572L34.8209 12.1282C34.7583 12.28 34.6956 12.4369 34.6356 12.5994L34.5895 12.7271C34.5661 12.7942 34.5431 12.8626 34.5209 12.9305C34.4753 13.0733 34.4327 13.222 34.3961 13.3738C34.3696 13.4864 34.3449 13.6017 34.3262 13.7229C34.307 13.8412 34.2925 13.9624 34.2835 14.0845C34.275 14.2083 34.2725 14.3348 34.2759 14.4607C34.278 14.585 34.2899 14.7144 34.3078 14.84Z" fill="white"/>
<path d="M39.9212 19.8999L39.8875 19.6587L39.8577 19.507C39.8266 19.3638 39.7861 19.2202 39.7375 19.08C39.6907 18.9463 39.6314 18.8087 39.5615 18.672C39.5313 18.6135 39.5002 18.5559 39.4669 18.5C39.4661 18.5009 39.3681 18.5873 39.3681 18.5873L39.1375 18.7833L38.696 19.1406C38.5609 19.2481 38.4331 19.3505 38.3112 19.4506C38.3095 19.4524 38.3074 19.4536 38.3057 19.4554C38.3189 19.4945 38.3312 19.534 38.3419 19.5749C38.3611 19.6497 38.3768 19.7271 38.3913 19.8247L38.3977 19.8802L38.4105 20.0509L38.4114 20.1902L38.4037 20.3286C38.3901 20.5002 38.3577 20.6756 38.3095 20.842C38.2861 20.9293 38.255 21.0152 38.223 21.1004C38.1898 21.1859 38.1514 21.2685 38.1113 21.3476C38.0896 21.3893 38.0692 21.4259 38.0329 21.4848L37.9797 21.566C37.9336 21.6309 37.8872 21.6907 37.8301 21.7539C37.7206 21.8717 37.6093 21.9659 37.4802 22.0493C37.4154 22.091 37.346 22.1323 37.2714 22.1693C37.2007 22.2045 37.124 22.2393 37.0417 22.2724C36.974 22.2995 36.9019 22.3253 36.8265 22.3503L36.7847 22.364C36.6987 22.3911 36.6058 22.4173 36.5107 22.4418L36.4353 22.4608C36.2721 22.5008 36.0969 22.5369 35.9154 22.5708C35.7121 22.6087 35.4995 22.6439 35.2796 22.6792C35.2796 22.6792 34.7869 22.7587 34.6178 22.7867C34.1865 22.8598 33.8541 22.9255 33.5379 23.0004C33.4433 23.0223 33.3483 23.0464 33.2515 23.0713L33.1944 23.0864C32.7337 23.2093 32.2952 23.362 31.8908 23.5408C31.4399 23.7399 31.0129 23.9811 30.6268 24.255L30.5301 24.3251L30.3337 24.4751L30.1871 24.5964L30.052 24.7146C29.873 24.8758 29.7 25.05 29.5389 25.2305C29.244 25.5646 28.9708 25.9473 28.7279 26.3691C28.6248 26.5471 28.5251 26.7367 28.4228 26.9499C28.3299 27.1434 28.2455 27.3339 28.1688 27.5188C28.1339 27.6035 28.1006 27.6869 28.0674 27.7694L28.468 27.8541C28.7629 27.9161 29.0825 27.981 29.4204 28.0403C29.5985 28.0708 29.7601 28.0962 29.9147 28.1168C30.046 28.1349 30.1679 28.1487 30.2834 28.159C30.3204 28.064 30.3588 27.9702 30.3984 27.8787C30.4649 27.7243 30.5344 27.5742 30.6085 27.4328C30.7688 27.1262 30.9392 26.8614 31.131 26.6219C31.2303 26.4989 31.3394 26.3785 31.4583 26.2599L31.5103 26.2087L31.6424 26.0875L31.7152 26.0255C31.734 26.0083 31.7544 25.992 31.7834 25.9696L31.8307 25.9322C32.0996 25.7211 32.4001 25.5315 32.7239 25.3694C33.0129 25.225 33.3295 25.0955 33.6628 24.9859L33.7753 24.9498C33.8605 24.9227 33.9474 24.8965 34.0352 24.8715C34.3054 24.7941 34.602 24.7202 34.9698 24.6389C35.1411 24.6011 35.6158 24.5001 35.6158 24.5001C35.8336 24.4532 36.0603 24.4033 36.2942 24.3474C36.5704 24.2803 36.7847 24.2219 37.0059 24.1522C37.1073 24.12 37.2105 24.0851 37.3183 24.0452L37.3745 24.0237C37.4981 23.9759 37.6238 23.9243 37.75 23.8646C37.8748 23.8061 38.001 23.7399 38.1263 23.6659C38.2486 23.5937 38.3709 23.5116 38.4893 23.4213C38.6159 23.3254 38.7301 23.2265 38.8303 23.1272C38.9398 23.0188 39.0421 22.904 39.1328 22.7871C39.2232 22.6702 39.3084 22.5437 39.3809 22.4216L39.4426 22.3116L39.4929 22.2157C39.5257 22.1521 39.5573 22.085 39.5854 22.0196C39.6144 21.9526 39.6417 21.8859 39.6642 21.8257L39.7005 21.7264L39.7354 21.6219C39.7776 21.4873 39.8151 21.3523 39.8449 21.2113C39.9063 20.9284 39.9391 20.6433 39.9425 20.3647L39.9383 20.1317C39.9383 20.1136 39.9212 19.8999 39.9212 19.8999Z" fill="white"/>
<path d="M26.6951 32.7806L25.9263 32.6279C25.8735 32.6989 25.8189 32.769 25.7627 32.8395C26.3384 33.2789 26.9849 33.8516 27.3949 34.6681C27.648 34.3637 27.882 34.0442 28.093 33.717C28.2182 33.5218 28.3401 33.3167 28.456 33.106C28.0861 33.0476 27.7533 32.9861 27.4716 32.9323C27.181 32.8773 26.9223 32.8261 26.6951 32.7806Z" fill="white"/>
<path d="M24.0628 35.2816C23.8114 35.2408 23.5907 35.0967 23.4471 34.8921C23.3354 34.9652 23.2229 35.0361 23.1108 35.1045L23.0252 35.1569C23.0252 35.1569 22.8279 35.273 22.7963 35.2907L22.4409 35.4889C22.4409 35.4889 22.2095 35.6114 22.1754 35.6282L21.7987 35.8169C21.9121 36.1231 21.863 36.4765 21.6555 36.7388C21.6236 36.7792 21.5941 36.8217 21.5682 36.8669C21.5366 36.9202 21.5098 36.977 21.488 37.0337C21.442 37.1558 21.4181 37.2822 21.416 37.4017V37.9173C21.5336 37.9026 21.6517 37.8859 21.7693 37.8665C21.8145 37.8601 21.8601 37.8519 21.9052 37.8433L22.065 37.8136L22.4145 37.7393L22.709 37.6653L22.9208 37.6051C22.9689 37.5922 23.0175 37.5763 23.0665 37.5608L23.2566 37.5006L23.5157 37.4095L23.7309 37.3265C23.7812 37.3076 23.8314 37.2865 23.8813 37.2659L24.137 37.155C24.4204 37.0273 24.6999 36.8836 24.9663 36.7293C25.2475 36.5659 25.5224 36.3858 25.7824 36.194C25.7977 36.1828 25.813 36.1708 25.8284 36.1596C25.6758 36.0151 25.5109 35.8853 25.3345 35.7718C24.9531 35.525 24.5129 35.3556 24.0628 35.2816Z" fill="white"/>
<path d="M26.6573 3.79315C26.8763 3.92342 27.1026 4.04209 27.3242 4.14313L27.3813 4.1685C27.4218 4.18656 27.4623 4.20504 27.5074 4.2231L27.5939 4.25922L27.7934 4.33618L27.9187 4.38047C27.9681 4.39766 28.018 4.41529 28.0768 4.43292C28.3329 4.51504 28.606 4.58513 28.8882 4.64102C29.1515 4.69348 29.44 4.73733 29.7477 4.77259L30.2216 4.82418C30.3588 4.83837 30.4943 4.85299 30.6247 4.86933C30.7739 4.88825 30.9179 4.91017 31.053 4.93683C31.2022 4.96693 31.3381 5.00433 31.457 5.04862C31.5895 5.09806 31.7046 5.15697 31.8081 5.22834L31.8883 5.28725L32.0106 5.39903L32.083 5.47858L32.1214 5.52888C32.1435 5.55425 32.1636 5.5822 32.181 5.60842L32.2045 5.64368C32.2398 5.69957 32.2701 5.75461 32.3004 5.81824C32.3255 5.875 32.3481 5.93089 32.3668 5.99452C32.3835 6.05042 32.3971 6.10803 32.409 6.17425C32.4133 6.19789 32.4167 6.2224 32.4201 6.24949C32.4244 6.28647 32.4278 6.32516 32.4308 6.36343C32.435 6.42706 32.435 6.49628 32.4333 6.57325C32.432 6.6214 32.4286 6.67257 32.4231 6.73491L32.406 6.88626L32.3877 7.0075C32.3758 7.08103 32.3617 7.15756 32.3455 7.2371C32.3302 7.3132 32.3136 7.39145 32.2944 7.47444L32.1423 8.14689C32.1188 8.25825 32.0962 8.37477 32.0762 8.49472C32.0617 8.58502 32.0476 8.67832 32.0374 8.77678C32.0268 8.87266 32.0191 8.97155 32.0148 9.06915C32.0114 9.16933 32.0118 9.27338 32.017 9.38001C32.0225 9.4832 32.034 9.5894 32.0519 9.69989C32.0604 9.75407 32.0724 9.80824 32.0805 9.84823C32.0941 9.90326 32.1073 9.9583 32.1244 10.0138C32.1602 10.1329 32.1981 10.2352 32.2454 10.338L32.2846 10.4205L32.3511 10.5456L32.3988 10.6252C32.4619 10.7266 32.5245 10.8152 32.5953 10.9016C32.6566 10.9786 32.7308 11.0594 32.8347 11.1609C32.8684 11.1923 32.9012 11.2237 32.94 11.255L33.073 11.3621C33.162 11.4288 33.2541 11.4911 33.3542 11.5496C33.3926 11.5728 33.4309 11.5934 33.4966 11.6291L33.5417 11.6519C33.5486 11.6351 33.6679 11.3483 33.7233 11.2176C33.8175 10.9949 33.9065 10.7838 33.9819 10.5839C33.9819 10.5839 33.9291 10.5594 33.9244 10.5564C33.8592 10.525 33.8017 10.491 33.7194 10.4394L33.6747 10.4089C33.6491 10.3921 33.6253 10.3741 33.6027 10.3556L33.5711 10.3302C33.5204 10.2872 33.4718 10.2434 33.4403 10.2081C33.3939 10.1604 33.3495 10.1071 33.2924 10.0305L33.2353 9.94411L33.1953 9.87575C33.1667 9.82458 33.1433 9.77213 33.125 9.72612C33.1143 9.70075 33.1049 9.67453 33.0913 9.6354C33.0913 9.6354 33.061 9.53436 33.0576 9.51759C33.0419 9.4531 33.0282 9.38474 33.0188 9.31035C33.0112 9.24414 33.0056 9.17363 33.0022 9.09323C33.0001 9.02142 33.0005 8.94575 33.0039 8.86965C33.0065 8.79397 33.0125 8.714 33.0205 8.63059C33.0282 8.54847 33.0389 8.46334 33.0508 8.37305C33.0615 8.29867 33.0725 8.22213 33.0853 8.13915L33.1659 7.63395C33.1787 7.54925 33.1919 7.46197 33.2034 7.37082C33.2149 7.28397 33.2251 7.19453 33.2336 7.10209L33.2451 6.94387L33.2515 6.78823C33.2532 6.70868 33.2532 6.62699 33.2494 6.54702L33.2434 6.45587C33.2392 6.39051 33.2323 6.32473 33.2217 6.25508C33.2076 6.1592 33.1885 6.06203 33.1629 5.96615C33.1369 5.87027 33.1045 5.77482 33.067 5.6841C33.0304 5.59638 32.9852 5.50695 32.9353 5.42139C32.8842 5.33583 32.8288 5.255 32.7704 5.18019L32.6882 5.08173C32.6882 5.08173 32.6068 4.99359 32.5897 4.97596C32.5497 4.93855 32.5096 4.90071 32.4789 4.87277C32.4452 4.84396 32.4099 4.81644 32.3498 4.76872L32.233 4.68789L32.1282 4.62683C31.9769 4.54299 31.8081 4.47506 31.627 4.42561C31.4745 4.38391 31.313 4.35381 31.1348 4.33274C30.9691 4.31382 30.8131 4.30479 30.6652 4.29791C30.5122 4.2919 30.3673 4.28889 30.2152 4.28588L29.7852 4.27642C29.4826 4.26825 29.2108 4.25148 28.9538 4.22482C28.681 4.19644 28.4164 4.15474 28.1773 4.10314C28.1249 4.09283 28.0738 4.08079 28.0226 4.06832L27.8739 4.03177L27.6148 3.95825C27.5743 3.94664 27.4273 3.89891 27.4273 3.89891C27.1972 3.82109 26.9679 3.73037 26.7455 3.6289C26.3457 3.4466 25.9469 3.21829 25.5591 2.94957C25.4998 2.90872 25.4419 2.86745 25.3848 2.82617C25.4351 2.87347 25.487 2.92076 25.5412 2.96978C25.8949 3.2858 26.2699 3.56226 26.6573 3.79315Z" fill="white"/>
<path d="M39.992 14.3869C39.9843 14.2678 39.9702 14.1504 39.9528 14.0365C39.9144 13.797 39.8556 13.5661 39.7785 13.3511C39.6962 13.1233 39.5914 12.9061 39.4687 12.7071C39.3365 12.4942 39.1853 12.3021 39.0199 12.1365C38.8469 11.9637 38.6581 11.8136 38.4553 11.6889C38.2724 11.5746 38.0726 11.4752 37.8476 11.3875C37.7444 11.3484 37.6422 11.3119 37.5369 11.2805C37.4888 11.2654 37.441 11.2517 37.3941 11.2388C37.3933 11.2431 37.392 11.2474 37.3912 11.2517C37.3664 11.3609 37.3375 11.4757 37.2995 11.6163C37.2122 11.9349 37.1146 12.2328 37.0204 12.5188L37.0132 12.5411C37.0515 12.554 37.0873 12.5665 37.1197 12.5789C37.196 12.6065 37.2655 12.6361 37.3405 12.6697C37.4879 12.738 37.6106 12.8094 37.7082 12.8812C37.8152 12.9564 37.9115 13.0437 38.0074 13.1521C38.0879 13.2458 38.1587 13.3503 38.2277 13.4763C38.2891 13.5932 38.3394 13.7188 38.3786 13.8516C38.4156 13.9785 38.4416 14.1152 38.457 14.2652C38.4629 14.3349 38.4672 14.405 38.4672 14.4781L38.4651 14.5782L38.4587 14.6698C38.4544 14.7343 38.4455 14.7941 38.4327 14.868L38.4144 14.954L38.3837 15.0619C38.3777 15.0817 38.3496 15.1604 38.3402 15.1819L38.3198 15.2292C38.3104 15.2528 38.2989 15.2761 38.2848 15.3027L38.2631 15.3453C38.2631 15.3453 38.2294 15.4055 38.2277 15.4081C38.1962 15.4618 38.1591 15.5164 38.1212 15.568C38.0837 15.62 38.0385 15.6742 37.9848 15.7353L37.9469 15.777L37.8369 15.8905C37.7845 15.9412 37.7287 15.9937 37.6554 16.0577C37.6004 16.1055 37.5437 16.1536 37.4849 16.2005L37.3289 16.3239L36.8026 16.713C36.5201 16.9181 36.2282 17.1296 35.9295 17.3768C35.8016 17.4813 35.6729 17.5935 35.5447 17.7139L35.4658 17.7887C35.4096 17.842 35.3542 17.8988 35.3005 17.9538L35.2451 18.0115C35.1718 18.0906 35.0989 18.171 35.0273 18.257C34.8828 18.4285 34.7503 18.6074 34.6335 18.788C34.5117 18.9767 34.4017 19.1736 34.3075 19.3736L34.2739 19.4441L34.2393 19.5236L34.1456 19.7545L34.0864 19.9213L34.0612 20.0004C33.9935 20.2146 33.9402 20.436 33.9031 20.6591C33.8669 20.8758 33.8452 21.0998 33.8392 21.326C33.8371 21.3948 33.8366 21.4636 33.8371 21.5332C34.0442 21.4928 34.2325 21.4601 34.3923 21.433C34.5756 21.4021 35.0648 21.3234 35.0648 21.3234C35.2476 21.2937 35.4633 21.2585 35.6678 21.2211C35.6964 21.2155 35.7241 21.2103 35.7518 21.2052C35.7543 21.1205 35.7607 21.0366 35.7705 20.9541C35.7863 20.8182 35.811 20.6866 35.8468 20.5521C35.8822 20.4184 35.9273 20.2855 35.981 20.1561C36.0343 20.0279 36.0974 19.9003 36.1694 19.7747C36.2406 19.653 36.3224 19.5309 36.4106 19.4157C36.4549 19.3564 36.5031 19.2979 36.558 19.2325C36.6088 19.1741 36.6599 19.116 36.7132 19.0605C36.7553 19.0163 36.7988 18.9715 36.8419 18.9285C36.9117 18.8598 36.985 18.7897 37.0652 18.7183L37.1329 18.6577C37.2343 18.5682 37.3409 18.4775 37.453 18.3859C37.588 18.275 37.7304 18.1615 37.8778 18.0441L38.2141 17.7728L38.5622 17.4753C38.6385 17.4082 38.7161 17.3351 38.7949 17.2595C38.8418 17.2147 38.8882 17.1674 38.936 17.118L39.0195 17.0299L39.1026 16.9366L39.2436 16.7672C39.3148 16.6769 39.3847 16.5831 39.452 16.4791C39.5168 16.3789 39.5795 16.2749 39.64 16.1575C39.6634 16.1132 39.6847 16.0668 39.706 16.0207L39.7248 15.9795C39.7465 15.9292 39.7678 15.8793 39.7981 15.7976L39.8185 15.7417L39.8522 15.6381L39.8829 15.5332L39.9229 15.3715L39.9404 15.2838L39.9698 15.1054C39.9847 14.9833 39.9958 14.8607 39.9984 14.7399L39.9996 14.6926L39.9975 14.4798L39.992 14.3869Z" fill="white"/>
<path d="M36.8653 25.7496C36.8598 25.7079 36.8538 25.6657 36.847 25.624C36.7716 25.6434 36.6923 25.6631 36.6092 25.6834C36.3582 25.7436 36.1183 25.796 35.8975 25.8429C35.8975 25.8429 35.4028 25.9486 35.2609 25.98C35.093 26.017 34.9391 26.0527 34.7968 26.0879C34.8138 26.321 34.8074 26.5338 34.7763 26.7368C34.7435 26.9504 34.6822 27.1564 34.582 27.383L34.5249 27.4991C34.5134 27.5244 34.4993 27.5498 34.4721 27.598C34.455 27.6289 34.4375 27.6599 34.426 27.6758L34.3894 27.7325C34.3732 27.7626 34.3544 27.7914 34.3225 27.8349L34.3007 27.8658C34.3007 27.8658 34.2564 27.929 34.2428 27.9454C34.112 28.1178 33.9581 28.282 33.7894 28.4299C33.7071 28.5039 33.6181 28.5727 33.503 28.6587L33.3206 28.7842C33.3206 28.7842 33.2004 28.8599 33.1557 28.8861C33.1301 28.9016 33.0116 28.9695 33.0116 28.9695L32.7798 29.0955C32.7542 29.1097 32.7287 29.1222 32.6775 29.1471C32.6554 29.1583 32.6332 29.169 32.6234 29.1725C32.2522 29.3457 31.8725 29.4567 31.4613 29.5126C31.2806 29.5366 31.0884 29.5508 30.8877 29.5543L30.791 29.5551C30.6844 29.5551 30.5775 29.5525 30.4696 29.547C30.4125 29.5444 30.3554 29.5409 30.3017 29.5366C30.1121 29.5233 29.9225 29.5022 29.7341 29.4769C29.5496 29.4519 29.3668 29.4231 29.1886 29.3917C28.8375 29.3307 28.5012 29.2623 28.1885 29.197L27.3396 29.0168L26.7037 28.8861C25.9341 28.733 25.2101 28.6234 24.553 28.5598C23.9981 28.5069 23.4526 28.4802 22.9319 28.4802C22.7866 28.4802 22.6429 28.4824 22.5002 28.4862C22.4742 28.4871 22.4486 28.4875 22.4226 28.4888L22.4043 30.0943L22.7354 30.7031L22.8709 30.7194C22.8709 30.7194 23.2707 30.7715 23.3218 30.7796L23.7829 30.8467C23.9393 30.8699 24.097 30.8949 24.2555 30.9215C24.6991 30.995 25.156 31.0793 25.6281 31.1709L26.9454 31.431C27.1734 31.4766 27.4316 31.5278 27.7222 31.5837C28.0431 31.6447 28.4045 31.7109 28.8136 31.7728C29.0075 31.8021 29.2125 31.83 29.4132 31.8528L29.4558 31.8571C29.5666 31.8696 29.6804 31.8808 29.8002 31.8898C29.9203 31.8997 30.0431 31.9078 30.1692 31.9134C30.3081 31.9195 30.4517 31.9233 30.5992 31.9233C30.7164 31.9233 30.837 31.9207 30.9614 31.9156C31.2478 31.9035 31.5376 31.8734 31.8205 31.8266C31.9693 31.8012 32.1197 31.7707 32.2689 31.735C32.4201 31.6976 32.5727 31.6555 32.7244 31.6064C32.877 31.5566 33.0295 31.5015 33.1872 31.4362L33.2601 31.4052L33.5107 31.2913L33.708 31.1911L33.9526 31.0561L34.256 30.8734L34.3813 30.7934L34.562 30.6726L34.7201 30.5591L34.8927 30.4266L34.9817 30.3544L35.1279 30.2297C35.179 30.1846 35.231 30.1394 35.2864 30.0853C35.5639 29.823 35.8115 29.5366 36.0211 29.237L36.0556 29.1888L36.2133 28.9429L36.3595 28.6849L36.4174 28.5705C36.4319 28.5426 36.446 28.5146 36.4618 28.4789L36.5223 28.3487L36.5849 28.1986C36.6616 28.0051 36.726 27.8065 36.7758 27.6074C36.8278 27.401 36.8653 27.1925 36.8875 26.9866C36.9096 26.7828 36.9186 26.5717 36.9139 26.3601C36.9096 26.1623 36.893 25.9568 36.8653 25.7496Z" fill="white"/>
<path d="M60.4275 25.001V27.6306C60.4275 27.8143 60.2777 27.9634 60.0931 27.9634H50.3344C50.1498 27.9616 50 27.8124 50 27.6288V14.5008C50 14.3171 50.1498 14.168 50.3344 14.168H60.0931C60.2777 14.168 60.4275 14.3171 60.4275 14.5008V17.0194C60.4275 17.2031 60.2777 17.3522 60.0931 17.3522H54.5076C54.323 17.3522 54.1732 17.5013 54.1732 17.685V19.0198C54.1732 19.2035 54.323 19.3526 54.5076 19.3526H58.8963C59.0809 19.3526 59.2307 19.5017 59.2307 19.6854V22.0822C59.2307 22.2659 59.0809 22.415 58.8963 22.415H54.5076C54.323 22.415 54.1732 22.5641 54.1732 22.7478V24.3354C54.1732 24.5191 54.323 24.6682 54.5076 24.6682H60.0931C60.2777 24.6682 60.4275 24.8173 60.4275 25.001Z" fill="white"/>
<path d="M67.4071 14.5008V27.6306C67.4071 27.8143 67.2573 27.9634 67.0728 27.9634H63.4879C63.3034 27.9634 63.1536 27.8143 63.1536 27.6306V14.5008C63.1536 14.3171 63.3034 14.168 63.4879 14.168H67.0746C67.2573 14.168 67.4071 14.3171 67.4071 14.5008Z" fill="white"/>
<path d="M69.8049 23.903L73.1028 23.3119C73.2582 23.2847 73.4116 23.3683 73.4701 23.5156C73.852 24.4594 74.6742 24.9304 75.9404 24.9304C77.0093 24.9304 77.5446 24.6467 77.5446 24.0812C77.5446 23.7847 77.4204 23.5538 77.1737 23.3883C76.9271 23.2228 76.4849 23.0773 75.849 22.95C73.4189 22.4863 71.8586 21.8807 71.1679 21.1333C70.4772 20.3859 70.1319 19.5057 70.1319 18.4946C70.1319 17.1944 70.6271 16.1123 71.6192 15.2504C72.6132 14.3866 74.0383 13.9556 75.9002 13.9556C78.5715 13.9556 80.3858 14.9667 81.3414 16.9889C81.4291 17.1726 81.3305 17.3908 81.135 17.4508L78.2499 18.3201C78.0964 18.3673 77.932 18.2964 77.8571 18.1527C77.4624 17.3962 76.759 17.018 75.7467 17.018C74.8185 17.018 74.3563 17.3053 74.3563 17.8763C74.3563 18.1327 74.4604 18.331 74.6705 18.4728C74.8807 18.6147 75.2863 18.7492 75.8892 18.8765C77.5483 19.2257 78.7268 19.5348 79.4229 19.8022C80.1209 20.0713 80.7019 20.5296 81.1697 21.1806C81.6356 21.8316 81.8695 22.5972 81.8695 23.4811C81.8695 24.8759 81.3012 26.007 80.1629 26.8744C79.0264 27.7401 77.5337 28.1747 75.6846 28.1747C72.4579 28.1747 70.4115 26.8963 69.5436 24.3394C69.4815 24.1466 69.6039 23.9393 69.8049 23.903Z" fill="white"/>
<path d="M96.121 14.5991L92.0282 27.7289C91.9843 27.8689 91.8546 27.9635 91.7084 27.9635H87.8623C87.718 27.9635 87.5882 27.8708 87.5444 27.7344L83.2634 14.6046C83.194 14.39 83.3547 14.1699 83.5813 14.1699H87.3544C87.5024 14.1699 87.6339 14.2681 87.6759 14.41L89.7991 21.6896C89.8247 21.7678 89.8502 21.8441 89.8758 21.9223C89.9763 22.2351 90.4221 22.226 90.5135 21.9114L92.6878 14.4118C92.7298 14.2699 92.8595 14.1717 93.0094 14.1717H95.8031C96.0278 14.1681 96.1886 14.3845 96.121 14.5991Z" fill="white"/>
<path d="M102.826 14.5008V27.6306C102.826 27.8143 102.676 27.9634 102.491 27.9634H98.9047C98.7201 27.9634 98.5703 27.8143 98.5703 27.6306V14.5008C98.5703 14.3171 98.7201 14.168 98.9047 14.168H102.491C102.676 14.168 102.826 14.3171 102.826 14.5008Z" fill="white"/>
<path d="M116 24.9101V27.6306C116 27.8143 115.85 27.9634 115.666 27.9634H106.618C106.433 27.9634 106.283 27.8143 106.283 27.6306V14.5008C106.283 14.3171 106.433 14.168 106.618 14.168H110.204C110.389 14.168 110.539 14.3171 110.539 14.5008V24.2445C110.539 24.4281 110.688 24.5773 110.873 24.5773H115.667C115.85 24.5773 116 24.7264 116 24.9101Z" fill="white"/>
</svg>
